<?xml version="1.0" encoding="utf-8"?>
<!-- Generator: Adobe Illustrator 27.5.0, SVG Export Plug-In . SVG Version: 6.00 Build 0)  -->
<svg version="1.1" id="Layer_1" xmlns="http://www.w3.org/2000/svg" xmlns:xlink="http://www.w3.org/1999/xlink" x="0px" y="0px"
	 viewBox="0 0 4000 4000" style="enable-background:new 0 0 4000 4000;" xml:space="preserve">
<g>
	<g>
		<rect style="fill:#E0E2EF;" width="4000" height="4000"/>
	</g>
	<g>
		<g>
			<g>
				<path style="fill:#FFFFFF;" d="M2744.763,1081.766c101.782,76.015,195,189.771,217.585,314.517
					c10.534,59.796,3.714,117.773-14.476,172.946c-19.25,58.28-51.232,113.378-88.746,164.079
					c-31.073,41.911-22.281,101.024,19.553,132.021c44.942,33.801,110.877,19.78,138.312-29.178
					c39.864-68.284,71.695-144.374,87.004-226.224c2.349-11.974,4.244-24.024,5.684-36.226
					c8.26-70.861,0.758-144.829-22.357-211.673c-41.076-116.636-121.79-204.474-220.01-270.181
					c-23.57-15.688-48.049-29.557-73.362-41.986c-8.64-4.168-16.749-7.806-26.45-11.823c-12.58-5.153-27.056,0.834-32.209,13.49
					C2730.591,1062.819,2734.987,1075.4,2744.763,1081.766z"/>
			</g>
			<g>
				<path style="fill:#D1D6E5;" d="M2878.679,1865.329c44.942,33.801,110.877,19.78,138.312-29.178
					c39.864-68.284,71.695-144.374,87.004-226.224c2.349-11.974,4.244-24.024,5.684-36.226
					c-44.412,20.69-100.873,29.33-161.806-4.471c-19.25,58.28-51.232,113.378-88.746,164.079
					C2828.053,1775.218,2836.845,1834.332,2878.679,1865.329z"/>
			</g>
			<g>
				<path style="fill:#213E68;" d="M2934.577,1908.481c-25.42,0-50.256-8.101-70.674-23.462
					c-52.578-38.975-63.674-113.657-24.595-166.382c82.964-112.08,116.213-219.102,98.813-318.086
					c-18.816-103.823-96.394-215.479-207.542-298.652c-19.407-13.154-27.009-38.135-18.069-59.785
					c10.334-25.122,39.221-37.178,64.382-26.821c10.029,4.121,18.606,7.954,27.803,12.417c26.682,13.071,52.31,27.715,76.243,43.564
					c113.008,75.693,190.237,170.742,229.646,282.578c28.364,82.114,34.587,174.697,17.573,260.84
					c-14.558,77.896-44.817,156.66-89.89,233.853c-16.357,29.209-45.19,50.254-78.887,57.349
					C2951.142,1907.626,2942.827,1908.481,2934.577,1908.481z M2758.161,1060.854c0.442,0.288,0.947,0.869,1.372,1.182
					c122.969,91.836,205.737,212.065,227.083,329.863c19.854,112.93-16.396,232.686-107.722,356.06
					c-22.915,30.913-16.411,74.688,14.487,97.593c15.823,11.904,36.121,16.294,55.852,12.134
					c19.783-4.165,36.65-16.411,46.277-33.594c42.429-72.681,70.71-146.133,84.272-218.696
					c15.4-77.974,9.805-161.455-15.708-235.313c-35.747-101.445-106.567-188.232-210.442-257.808
					c-22.058-14.609-45.825-28.188-70.53-40.288C2774.931,1068.017,2767.216,1064.574,2758.161,1060.854z"/>
			</g>
		</g>
		<g>
			<g>
				<path style="fill:#5C697F;" d="M2448.189,927.459c-15.526,12.949-8.046,38.098,11.956,41.04
					c37.896,5.573,83.615,26.716,90.622,95.039c12.262,119.556,216.632,156.757,281.009,31.057
					C2922.839,916.787,2627.815,777.642,2448.189,927.459z"/>
			</g>
			<g style="opacity:0.3;">
				<path style="fill:#FFFFFF;" d="M2781.45,978.896c0,0-100.397-121.089-269.768-39.086
					C2511.681,939.811,2661.127,932.147,2781.45,978.896z"/>
			</g>
			<g>
				<path style="fill:#213E68;" d="M2697.978,1197.592c-12.72,0-25.73-1.201-38.916-3.677
					c-74.133-13.916-126.257-64.106-132.798-127.861c-4.409-42.998-27.209-66.938-69.7-73.184
					c-19.131-2.817-34.265-16.118-39.504-34.722c-5.176-18.379,0.706-37.388,15.352-49.604l0,0
					c118.201-98.584,282.493-82.603,373.049-10.205c68.635,54.883,86.667,132.441,48.237,207.48
					C2823.955,1163.901,2765.192,1197.592,2697.978,1197.592z M2466.22,944.516c63.718,10.283,102.388,51.567,109.048,116.509
					c5.176,50.454,53.269,77.036,92.881,84.473c46.257,8.682,111.106-2.378,141.702-62.129
					c38.845-75.845-11.643-127.754-35.154-146.553C2700.158,877.216,2564.899,864.111,2466.22,944.516z"/>
			</g>
		</g>
		<g>
			<g>
				<g>
					<path style="fill:#FFFFFF;" d="M2455.243,2315.512c0,0,15.821,317.979-34.518,483.378h-329.8c0,0,44.364-200.097,17.16-404.328
						c0,0-2.697-100.858,99.779-150.477c102.476-49.62,228.119-51.777,232.715-48.541S2455.243,2315.512,2455.243,2315.512z"/>
				</g>
				<g>
					<path style="fill:#5C697F;" d="M2414.069,2229.891c20.046-11.648,45.384,2.019,46.757,25.163
						c4.752,80.073,10.899,238.276-10.793,286.961C2422.008,2604.917,2158.574,2378.348,2414.069,2229.891z"/>
				</g>
				<g>
					<path style="fill:#213E68;" d="M2474.67,2314.546c4.168,81.966,5.023,163.222,1.814,245.171
						c-3.784,83.001-9.807,165.087-32.195,246.343c-2.882,10.816-12.868,17.826-23.565,17.461h-329.799
						c-15.417,0.18-27.394-14.601-24.122-29.632c3.473-15.556,6.598-32.334,9.384-48.725
						c11.069-65.672,17.277-132.205,18.867-198.777c0.638-40.668-0.291-83.915-4.361-124.438l-2.488-24.739l-0.083-0.83
						c-1.107-11.016,6.925-20.845,17.942-21.953c10.856-1.091,20.56,6.719,21.901,17.488l3.184,25.742
						c5.165,42.001,7.172,86.872,7.448,129.126c-0.284,86.486-7.364,172.321-23.624,257.439c0,0-24.046-29.961-24.046-29.961
						h329.799l-23.563,17.458c11.315-36.585,18.31-75.68,23.882-114.934c10.834-79.125,14.564-159.717,15.758-239.763
						c0.482-40.247,0.339-80.823-0.993-120.771C2435.565,2291.012,2472.521,2289.03,2474.67,2314.546L2474.67,2314.546z"/>
				</g>
			</g>
			<g>
				<g>
					<path style="fill:#5C697F;" d="M2216.775,2866.132c0,0,72.495,52.32,177.324,3.244c50.051-23.384,65.595-66.453,46.727-104.023
						c-20.56-41.103-82.22-75.608-184.867-70.439c-52.295,2.647-92.926,18.684-121.347,40.368
						C2049.656,2799.707,2072.808,2913.363,2216.775,2866.132z"/>
				</g>
				<g>
					<path style="fill:#425475;" d="M2216.775,2866.132c0,0,72.495,52.32,177.324,3.244c50.051-23.384,65.595-66.453,46.727-104.023
						c-14.593-11.259-25.176-18.71-25.176-18.71s22.408,74.066-88.588,79.41c-111.001,5.283-64.37-68.93-85.29-76.745
						c-20.923-7.876-30.828,35.133-67.987,59.626c-37.228,24.499-91.333,4.499-45.754-53.62c7.079-9.076,8.82-15.563,6.581-20.031
						C2049.656,2799.707,2072.808,2913.363,2216.775,2866.132z"/>
				</g>
				<g>
					<path style="fill:#213E68;" d="M2304.951,2915.082c-43.328,0-75.435-13.599-91.396-22.192
						c-78.162,22.505-116.157-1.787-132.114-18.857c-22.224-23.77-26.956-59.067-12.656-94.424
						c19.038-47.07,79.158-103.94,185.93-109.316c138.296-6.982,202.693,51.895,215.764,104.419
						c11.667,46.875-14.214,92.793-65.935,116.992C2367.368,2909.096,2333.691,2915.082,2304.951,2915.082z M2231.052,2846.054
						c2.834,1.968,63.423,42.754,152.615,1.03c30.322-14.185,44.902-36.792,39.009-60.474
						c-8.931-35.889-64.551-72.163-165.486-67.119c-83.596,4.209-129.138,44.966-142.737,78.589
						c-6.919,17.104-5.808,32.92,2.971,42.31c14.529,15.537,48.796,16.406,91.672,2.334
						C2216.53,2840.273,2224.68,2841.518,2231.052,2846.054z"/>
				</g>
			</g>
		</g>
		<g>
			<g>
				<path style="fill:#FFFFFF;" d="M1176.728,2944.386l365.067,48.2c0,0,35.014-72.149,48.807-217.13
					c2.88-29.633,4.85-62.297,5.381-97.993c0,0,455.026,244.035,886.937-18.568c86.473-52.596,172.037-125.427,252.826-224.633
					c0,0-11.747,191.59-51.611,326.49c5.608,0,128.383,25.54,222.056,45.169c58.659,12.277,105.951,22.281,105.951,22.281
					s92.536-113.605,135.28-332.402c18.265-93.446,27.435-206.141,16.446-337.404c-3.714-44.108-10.155-88.292-19.705-132.021
					c-45.245-206.141-160.29-403.263-387.045-538.24c-0.076-0.076-0.152-0.076-0.152-0.076
					c-203.867-121.335-497.921-192.348-912.477-174.613c-71.998,3.107-137.023,9.928-195.606,20.008
					c-733.923,125.2-468.44,748.246-468.44,748.246s30.315,107.011,48.504,257.979c1.289,11.065,2.577,22.357,3.789,33.877
					c0,0,0,0.076,0.076,0.227C1250.317,2544.685,1249.863,2761.966,1176.728,2944.386z"/>
			</g>
			<g>
				<path style="fill:#5C697F;" d="M3033.664,2417.286c30.467,35.62,71.922,60.781,113.756,78.516
					c18.265-93.446,27.435-206.141,16.446-337.404c-3.714-44.108-10.155-88.292-19.705-132.021
					c-59.341,30.921-130.733,89.656-152.105,197.956c-3.107,15.688-5.154,32.437-5.987,50.247
					C2983.341,2334.83,3002.894,2381.363,3033.664,2417.286z"/>
			</g>
			<g>
				<path style="fill:#5C697F;" d="M1648.882,1333.455c24.327,559.839,584.621,789.247,938.396,670.64
					c283.747-95.113,226.3-367.113,169.687-516.035c-203.867-121.335-497.921-192.348-912.477-174.613
					C1772.491,1316.554,1707.465,1323.375,1648.882,1333.455z"/>
			</g>
			<g>
				<path style="fill:#D1D6E5;" d="M1220.305,2333.314l12.429,40.243c0,0,0,0.076,0.076,0.227
					c1.971,7.806,64.571,242.064,357.791,401.672c2.88-29.633,4.85-62.297,5.381-97.993c0,0,455.026,244.035,886.937-18.568
					c143.313-99.205,266.998-232.591,342.482-393.108c32.891-69.951,115.802-80.031,166.656-41.455
					c21.372-108.3,92.763-167.035,152.105-197.956c-45.245-206.141-160.29-403.263-387.045-538.24
					c-0.076-0.076,61.728,40.17,61.728,40.17s151.917,478.745-120.917,623.346c-266.012,141.04-388.257-48.731-394.245-58.356
					c4.093,9.322,85.185,196.819,47.064,429.865c-39.106,239.108-426.833,178.933-472.078-16.294
					c0,0-375.298,32.968-649.723-167.186C1226.065,2337.635,1223.185,2335.436,1220.305,2333.314z"/>
			</g>
			<g>
				<path style="fill:#D1D6E5;" d="M2906.19,2805.923c58.659,12.277,105.951,22.281,105.951,22.281s92.536-113.605,135.28-332.402
					c-41.834-17.734-83.29-42.896-113.756-78.516C3021.235,2573.408,2976.672,2701.943,2906.19,2805.923z"/>
			</g>
			<g>
				<path style="fill:#425475;" d="M2992.057,2224.333c20.766,15.764,36.151,39.561,40.698,70.709
					c3.334,22.584,4.699,48.579,3.486,78.515c-0.606,14.779-1.44,29.406-2.577,43.729c30.467,35.62,71.922,60.781,113.756,78.516
					c18.265-93.446,27.435-206.141,16.446-337.404c-3.714-44.108-10.155-88.292-19.705-132.021
					C3084.82,2057.297,3013.429,2116.032,2992.057,2224.333z"/>
			</g>
			<g>
				<path style="fill:#213E68;" d="M2850.948,2240.234c-15.253,107.88-106.718,232.095-182.672,307.696
					c-35.745,36.228-76.832,68.969-118.267,98.167c-14.123,9.189-39.231,24.483-53.675,33.456
					c-27.422,15.924-52.598-22.486-26.843-41.226c0,0,1.412-0.964,1.412-0.964l28.274-19.29
					c8.396-5.694,20.279-13.266,28.034-19.521c75.65-55.018,143.571-121.897,199.409-197.049
					c25.218-34.416,47.222-71.218,68.556-108.093c0.001,0,33.778-59.551,33.778-59.551l0.536-0.945
					C2835.552,2222.045,2852.835,2227.756,2850.948,2240.234L2850.948,2240.234z"/>
			</g>
			<g>
				<path style="fill:#213E68;" d="M1613.433,2713.162c-58.466-31.552-110.137-74.275-157.378-120.476
					c-34.362-34.133-66.95-72.094-95.069-111.517c-9.469-13.213-18.047-27.055-26.901-40.63c-4.165-6.384-2.365-14.937,4.02-19.102
					c6.223-4.076,14.485-2.403,18.756,3.486c38.301,49.169,79.965,97.185,126.629,138.628
					c34.83,31.061,72.122,59.125,111.764,83.501c12.771,7.737,26.367,15.566,39.702,21.79
					C1664.606,2683.775,1643.709,2727.247,1613.433,2713.162L1613.433,2713.162z"/>
			</g>
			<g>
				<path style="fill:#213E68;" d="M1541.838,3017.255c-1.074,0-2.153-0.073-3.237-0.215l-365.132-48.267
					c-7.542-0.996-14.199-5.425-18.037-11.987c-3.838-6.567-4.426-14.541-1.597-21.602c136.88-341.274,11.221-816.367,3.308-845.391
					c-10.632-25.718-117.131-297.168,23.997-520.991c108.169-171.553,330.999-265.732,662.3-279.927
					c450.444-19.268,796.094,64.053,1027.385,247.729c186.157,147.832,295.981,362.119,317.595,619.697
					c37.192,443.188-149.238,677.676-157.192,687.441c-5.828,7.153-15.168,10.474-24.194,8.54
					c-121.863-25.776-307.942-64.683-324.702-66.973c-7.092-0.513-13.652-4.077-17.944-9.819
					c-4.648-6.226-6.091-14.277-3.889-21.724c23.313-78.906,36.892-178.862,44.019-246.104
					c-101.426,109.106-216.267,189.155-342.244,238.433c-117.966,46.143-245.664,65.444-379.536,57.373
					c-168.591-10.176-302.576-60.659-363.281-87.524c-8.403,188.198-53.428,283.218-55.461,287.417
					C1559.841,3011.933,1551.176,3017.25,1541.838,3017.255z M1210.678,2924.003l315.505,41.704
					c13.323-36.157,42.625-132.793,45.173-288.643c0.139-8.594,4.744-16.489,12.151-20.84c7.407-4.346,16.546-4.521,24.119-0.464
					c1.589,0.85,163.11,85.986,379.927,98.647c288.616,16.865,533.931-96.094,729.07-335.698
					c6.755-8.291,18.086-11.274,28.062-7.388c9.963,3.892,16.277,13.774,15.623,24.453c-0.457,7.437-10.928,172.92-45.288,305.615
					c35.491,6.89,113.296,22.773,286.606,59.399c35.671-51.802,168.599-272.241,137.708-640.366
					c-27.412-326.641-232.021-867.876-1293.784-822.329c-313.989,13.447-523.447,99.814-622.556,256.689
					c-131.475,208.115-20.989,474.639-19.856,477.305c0.4,0.947,0.75,1.938,1.03,2.925c1.47,5.19,36.199,129.058,53.452,299.585
					C1272.81,2524.731,1276.213,2738.52,1210.678,2924.003z M2682.583,2785.331c0.684,0.054,1.191,0.034,1.536,0.044
					C2683.603,2785.375,2683.093,2785.361,2682.583,2785.331z"/>
			</g>
		</g>
		<g>
			<g>
				<path style="fill:#FFFFFF;" d="M2347.563,2373.553c0,0,21.513,432.389-46.938,657.298h-448.463
					c0,0,60.326-272.092,23.334-549.806c0,0-3.667-137.146,135.679-204.619s310.197-70.406,316.447-66.006
					S2347.563,2373.553,2347.563,2373.553z"/>
			</g>
			<g>
				<path style="fill:#5C697F;" d="M2291.575,2257.125c27.258-15.839,61.713,2.746,63.581,34.216
					c6.462,108.884,14.821,324.007-14.676,390.21C2302.37,2767.086,1944.152,2458.998,2291.575,2257.125z"/>
			</g>
			<g>
				<path style="fill:#213E68;" d="M2366.99,2372.585c5.344,111.104,6.197,221.563,1.536,332.639
					c-5.4,112.056-13.91,223.463-44.336,332.798c-2.882,10.819-12.867,17.83-23.565,17.458h-448.462
					c-13.604,0-24.63-11.025-24.63-24.629c22.499-112.485,36.046-228.398,38.078-343.284c0.466-32.545-0.105-69.519-1.393-102.212
					c-0.594-10.552-2.711-40.564-3.335-50.939c-1.311-11.901-4.05-39.495-5.351-51.551c-1.939-26.096,35.837-30.581,39.844-4.469
					c0,0,4.204,34.826,4.204,34.826c6.828,56.85,9.363,117.568,9.572,174.741c-0.681,116.685-10.718,233.458-32.94,348.21
					c0.005,0.033-24.047-29.961-24.048-29.954h448.462l-23.563,17.458c44.406-156.187,49.664-322.89,52.89-484.88
					c0.495-54.827,0.151-109.988-1.824-164.505C2327.843,2349.065,2364.773,2346.868,2366.99,2372.585L2366.99,2372.585z"/>
			</g>
		</g>
		<g>
			<g>
				<path style="fill:#5C697F;" d="M1286.847,3045.637c0,0,75.181,71.164,192.651,18.34c56.083-25.161,76.015-77.682,58.129-126.11
					c-19.477-52.975-84.124-101.024-196.137-102.843c-57.068-0.91-102.388,15.839-134.826,40.622
					C1109.732,2949.236,1126.936,3093.004,1286.847,3045.637z"/>
			</g>
			<g>
				<path style="fill:#425475;" d="M1286.847,3045.637c0,0,75.181,71.164,192.651,18.34c56.083-25.161,76.015-77.682,58.129-126.11
					c-15.082-15.233-26.071-25.388-26.071-25.388s19.174,94.279-101.934,92.006c-121.108-2.349-65.177-91.248-87.383-102.691
					c-22.206-11.52-35.999,41.379-78.137,68.966c-42.213,27.587-99.66-1.743-46.003-70.634c8.337-10.762,10.686-18.719,8.564-24.479
					C1109.732,2949.236,1126.936,3093.004,1286.847,3045.637z"/>
			</g>
			<g>
				<path style="fill:#213E68;" d="M1393.845,3108.3c-54.966,0-94.26-22.485-112.532-35.625
					c-80.806,20.186-120.112-7.886-136.66-27.124c-26.255-30.532-29.541-77.28-8.574-122.002
					c26.211-55.908,94.043-114.897,205.803-113.179c145.08,2.363,211.46,75.566,224.219,137.539
					c11.926,57.93-18.103,112.314-76.501,138.56C1454.072,3102.436,1421.914,3108.3,1393.845,3108.3z M1303.671,3027.636
					c2.886,2.651,65.92,58.74,165.732,13.901c37.08-16.665,55.645-48.73,48.447-83.691c-9.805-47.617-68.264-96.455-176.77-98.218
					c-88.264-1.479-140.727,42.881-160.398,84.834c-12.622,26.919-12.117,53.345,1.318,68.97
					c16.372,19.033,52.036,22.158,97.849,8.584C1288.234,3019.526,1297.295,3021.679,1303.671,3027.636z"/>
			</g>
		</g>
		<g>
			<g>
				<path style="fill:#5C697F;" d="M2023.294,3122.287c0,0,98.579,71.144,241.126,4.411c68.059-31.797,89.197-90.363,63.54-141.451
					c-27.957-55.892-111.803-102.812-251.382-95.783c-71.111,3.599-126.36,25.407-165.008,54.893
					C1796.045,3031.961,1827.528,3186.511,2023.294,3122.287z"/>
			</g>
			<g>
				<path style="fill:#425475;" d="M2023.294,3122.287c0,0,98.579,71.144,241.126,4.411c68.059-31.797,89.197-90.363,63.54-141.451
					c-19.843-15.31-34.234-25.442-34.234-25.442s30.471,100.716-120.462,107.981c-150.939,7.184-87.531-93.731-115.977-104.358
					c-28.451-10.71-41.92,47.773-92.448,81.08c-50.623,33.313-124.194,6.118-62.217-72.913c9.626-12.342,11.994-21.162,8.948-27.239
					C1796.045,3031.961,1827.528,3186.511,2023.294,3122.287z"/>
			</g>
			<g>
				<path style="fill:#213E68;" d="M2143.005,3178.974c-60.41,0.005-103.916-20.137-122.954-30.972
					c-103.85,31.069-153.147,0.059-173.535-21.748c-27.515-29.429-33.22-73.506-15.261-117.905
					c24.795-61.299,103.606-135.386,244.128-142.456c182.034-9.18,266.401,66.714,283.269,134.478
					c14.666,58.921-18.398,116.899-84.236,147.7C2225.249,3171.078,2180.81,3178.974,2143.005,3178.974z M2036.992,3103.095
					c3.752,2.642,90.269,61.797,217.446,2.28c45.862-21.46,67.717-56.455,58.469-93.618
					c-13.535-54.38-91.475-106.025-235.156-98.784c-118.34,5.957-183.206,64.624-202.793,113.052
					c-11.057,27.339-8.875,52.134,5.991,68.032c22.795,24.385,72,26.509,134.997,5.825
					C2023.078,3097.548,2030.891,3098.73,2036.992,3103.095z"/>
			</g>
		</g>
		<g>
			<g>
				<path style="fill:#5C697F;" d="M2746.186,2908.371c0,0,85.793,69.19,218.08,15.691c63.157-25.485,85.134-77.479,64.385-124.975
					c-22.599-51.956-96.229-98.5-222.932-98.908c-64.552-0.191-115.628,16.872-152.047,41.691
					C2544.836,2815.574,2565.841,2957.017,2746.186,2908.371z"/>
			</g>
			<g>
				<path style="fill:#425475;" d="M2746.186,2908.371c0,0,85.793,69.19,218.08,15.691c63.157-25.485,85.134-77.479,64.385-124.975
					c-17.221-14.823-29.759-24.693-29.759-24.693s22.7,92.657-114.294,91.913c-136.995-0.819-74.696-89.102-99.933-100.103
					c-25.238-11.076-40.268,41.216-87.628,68.918c-47.445,27.703-112.731-0.486-52.788-69.027
					c9.313-10.706,11.884-18.576,9.422-24.225C2544.836,2815.574,2565.841,2957.017,2746.186,2908.371z"/>
			</g>
			<g>
				<path style="fill:#213E68;" d="M2865.18,2969.101c-61.245,0.005-104.675-22.109-123.75-34.121
					c-96.309,22.9-140.168-8.276-157.976-29.497c-24.319-28.97-27.515-70.454-8.55-110.957
					c25.74-54.98,101.309-119.009,229.629-119.009c0.425,0,0.833,0,1.257,0.005c167.278,0.542,240.898,74.751,253.115,138.13
					c10.728,55.654-22.795,107.969-85.405,133.271C2933.251,2963.188,2896.831,2969.101,2865.18,2969.101z M2761.545,2889.106
					c3.374,2.637,77.512,59.004,193.499,12.144c40.999-16.572,61.743-45.83,55.491-78.276
					c-9.06-46.997-77.046-97.773-204.905-98.193c-0.369,0-0.742,0-1.108,0c-105.205,0-165.396,48.755-185.002,90.635
					c-10.776,23.013-10.168,44.297,1.667,58.398c18.33,21.841,62.664,25.864,118.584,10.771
					C2747.338,2882.529,2755.422,2884.218,2761.545,2889.106z"/>
			</g>
		</g>
		<g>
			<g>
				<g>
					<path style="fill:#FFDB94;" d="M1954.263,1045.572c0,0,75.569-58.228,127.021-149.825
						c20.137-35.849,71.779-34.595,90.057,2.237c35.562,71.66,67.46,188.879,23.822,346.849
						C2195.164,1244.833,2030.646,1198.849,1954.263,1045.572z"/>
				</g>
				<g>
					<path style="fill:#EAAF75;" d="M2134.038,931.514c0,0-19.415,165.539-144.081,205.392c0,0,82.188,43.99,175.467,46.008
						C2165.425,1182.913,2177.978,1041.873,2134.038,931.514z"/>
				</g>
				<g>
					<path style="fill:#213E68;" d="M2195.163,1269.462c-2.222,0-4.453-0.298-6.631-0.908
						c-7.148-1.997-175.977-50.786-256.316-211.997c-5.246-10.527-2.314-23.296,6.992-30.483l0,0
						c0.718-0.557,72.397-56.577,120.601-142.388c13.811-24.59,39.673-39.453,67.881-38.696
						c28.02,0.713,53.201,16.826,65.715,42.046c36.97,74.497,71.404,198.184,25.5,364.355c-1.743,6.309-5.925,11.665-11.626,14.888
						C2203.552,1268.383,2199.372,1269.462,2195.163,1269.462z M1985.422,1051.567c55.327,96.016,148.789,143.213,192.517,160.938
						c31.689-138.11,2.578-240.62-28.66-303.574c-6.404-12.9-18.113-14.575-22.849-14.697c-9.875-0.098-18.755,4.819-23.672,13.579
						C2063.498,977.7,2011.428,1028.598,1985.422,1051.567z"/>
				</g>
			</g>
			<g>
				<g>
					<path style="fill:#FFDB94;" d="M1340.501,986.991c0,0-70.465-54.295-118.442-139.705
						c-18.777-33.428-66.931-32.258-83.974,2.086c-33.16,66.819-62.903,176.121-22.213,323.42
						C1115.872,1172.792,1269.277,1129.915,1340.501,986.991z"/>
				</g>
				<g>
					<path style="fill:#EAAF75;" d="M1152.878,897.915c0,0-4.087,113.936,54.158,185.465l-68.464,32.699
						C1138.572,1116.08,1118.135,984.261,1152.878,897.915z"/>
				</g>
				<g>
					<path style="fill:#213E68;" d="M1115.871,1195.761c-3.926,0-7.822-1.006-11.299-2.974c-5.315-3.003-9.214-7.998-10.84-13.882
						c-42.803-154.956-10.693-270.283,23.779-339.741c11.67-23.516,35.151-38.54,61.279-39.209
						c26.174-0.557,50.415,13.154,63.293,36.079c44.946,80.019,111.782,132.261,112.454,132.778
						c8.665,6.704,11.406,18.613,6.519,28.423c-74.912,150.327-232.339,195.815-239.004,197.676
						C1120.024,1195.478,1117.944,1195.761,1115.871,1195.761z M1180.627,845.868c-0.22,0-0.439,0-0.659,0.005
						c-4.419,0.117-15.337,1.675-21.309,13.711c-29.131,58.691-56.274,154.277-26.726,283.066
						c40.754-16.519,127.92-60.532,179.512-150.068c-24.25-21.416-72.803-68.882-109.409-134.048
						C1197.561,850.566,1189.592,845.868,1180.627,845.868z"/>
				</g>
			</g>
			<g>
				<g>
					<path style="fill:#5C697F;" d="M1082.81,1349.6c-222.593,176.293-334.353,40.506-384.963-74.111
						c-23.829-53.965,12.502-115.183,71.304-119.906c171.759-13.794,353.071-50.609,353.071-50.609s48.925,24.463,27.181,103.286
						C1127.658,1287.084,1082.81,1349.6,1082.81,1349.6z"/>
				</g>
				<g style="opacity:0.3;">
					<path style="fill:#FFFFFF;" d="M1043.285,1161.296c0,0-164.007,36.787-282.797,36.02c0,0,163.24,39.852,282.797,8.43V1161.296z
						"/>
				</g>
				<g>
					<g>
						<path style="fill:#425475;" d="M1099.572,1296.598c-193.888,117.783-347.912-14.96-347.912-14.96
							s29.132,165.041,163.493,150.817c134.361-14.224,193.479-97.804,201.633-114.112
							C1124.94,1302.034,1099.572,1296.598,1099.572,1296.598z"/>
					</g>
					<g>
						<path style="fill:#213E68;" d="M756.354,1276.189c75.969,44.997,167.86,64.664,254.563,43.788
							c28.746-6.747,56.947-17.013,85.089-29.25c3.51-1.56,7.631,0.043,9.16,3.567c1.276,2.932,0.355,6.267-2.03,8.174
							c-90.472,72.945-221.509,79.618-318.615,15.323c-13.463-9.02-26.13-18.529-37.557-30.707
							c-2.728-2.908-2.583-7.478,0.325-10.208C749.836,1274.484,753.593,1274.342,756.354,1276.189L756.354,1276.189z"/>
					</g>
				</g>
				<g>
					<path style="fill:#213E68;" d="M1125.405,1120.647c-114.808,27.352-231.185,47.035-348.733,57.666
						c-1.762,0.253-5.467,0.39-7.241,0.796c-37.144,3.19-63.847,42.371-53.331,78.201c24.709,65.241,71.921,136.976,142.928,153.714
						c78.463,17.266,153.188-29.288,217.662-69.15c4.636-3.089,10.966-1.728,13.893,3.021c2.527,4.077,1.725,9.277-1.653,12.432
						c-23.139,22-48.685,42.054-76.409,58.386c-28.868,16.516-59.354,29.304-92.84,34.956
						c-71.206,13.256-139.337-17.23-184.946-71.818c-22.125-25.423-38.834-53.884-53.332-83.773
						c-18.56-33.566-19.431-77.713,1.923-111.34c17.942-29.713,50.905-49.451,85.647-51.552
						c75.955-5.992,151.522-15.161,227.091-25.323c30.752-4.059,92.576-12.986,123.268-17.605
						C1139.277,1086.74,1145.024,1115.432,1125.405,1120.647L1125.405,1120.647z"/>
				</g>
			</g>
			<g>
				<g>
					<path style="fill:#FFFFFF;" d="M846.296,1729.215l572.951,83.518l898.532,130.884c0,0,24.555-249.567-43.35-551.578
						c-1.516-6.821-3.183-13.566-5.002-20.235c-38.879-146.724-137.099-271.545-271.621-343.164
						c-93.066-49.641-212.886-94.734-352.41-106.026c-25.54-2.122-51.763-3.107-78.667-2.728
						c-67.375,0.909-138.615,10.079-213.113,30.466c-161.502,44.108-293.523,160.896-359.004,314.971
						c-8.64,20.311-17.583,41.911-26.601,64.647c-15.157,38.197-30.618,79.425-45.472,122.851
						C893.208,1538.156,865.849,1632.284,846.296,1729.215z"/>
				</g>
				<g>
					<path style="fill:#D1D6E5;" d="M1419.247,1812.733l898.532,130.884c0,0,24.555-249.567-43.35-551.578
						c-1.516-6.821-3.183-13.566-5.002-20.235c-38.955-37.288-78.667-68.284-118.228-90.187c0,0,285.111,506.509-459.952,366.909
						C1392.115,1592.519,1295.865,1661.765,1419.247,1812.733z"/>
				</g>
				<g>
					<path style="fill:#5C697F;" d="M968.01,1329.969c558.021,66.238,675.642-400.384,677.385-407.356
						c-25.54-2.122-51.763-3.107-78.667-2.728c-67.375,0.909-138.615,10.079-213.113,30.466
						c-161.502,44.108-293.523,160.896-359.004,314.971C985.972,1285.633,977.029,1307.233,968.01,1329.969z"/>
				</g>
				<g style="opacity:0.3;">
					<path style="fill:#FFFFFF;" d="M2023.855,1120.66c-94.793-50.562-216.836-96.492-358.948-107.993
						c-26.014-2.162-52.723-3.164-80.127-2.779c-68.625,0.926-141.186,10.266-217.067,31.031
						c-152.374,41.615-278.939,146.775-349.783,286.774c5.916-14.579,12.027-29.298,18.535-44.586
						c60.804-143.074,180.768-248.373,329.152-288.898c66.661-18.24,134.533-27.95,201.75-28.857
						c3.56-0.052,7.109-0.074,10.643-0.074c21.034,0,42.441,0.892,63.72,2.657c113.943,9.222,226.547,43.145,334.707,100.843
						c57.588,30.657,108.031,72.335,149.176,121.806C2094.622,1163.823,2060.622,1140.235,2023.855,1120.66z"/>
				</g>
				<g>
					<path style="fill:#213E68;" d="M1923.739,1476.274c-34.505-28.877-79.171-61.88-123.921-64.082
						c-46.401-2.406-82.833,30.13-116.117,62.962c-8.234,8.174-21.536,8.125-29.711-0.107c-6.383-6.428-7.729-15.981-4.105-23.738
						c12.588-26.785,31.221-51.995,57.166-72.163c87.344-68.122,198.537-12.864,247.953,73.426
						C1965.718,1472.941,1940.411,1491.652,1923.739,1476.274L1923.739,1476.274z"/>
				</g>
				<g>
					<path style="fill:#213E68;" d="M1079.228,1411.016c46.71-84.013,153.435-136.333,232.948-61.361
						c22.511,21.149,37.485,46.142,47.305,72.045c3.927,10.356-1.287,21.936-11.643,25.862c-8.211,3.113-17.194,0.479-22.515-5.906
						c-29.252-32.403-57.31-66.406-101.835-67.594c-40.809,0.147-82.972,32.829-114.207,59.298
						C1093.566,1448.5,1069.024,1430.159,1079.228,1411.016L1079.228,1411.016z"/>
				</g>
				<g>
					<path style="fill:#213E68;" d="M2317.785,1968.207c-1.182,0-2.368-0.083-3.552-0.254l-1471.462-214.39
						c-6.694-0.977-12.693-4.663-16.587-10.195c-3.894-5.527-5.344-12.422-4.004-19.053
						c36.97-183.242,101.838-355.991,149.746-468.638c69.282-162.905,206.035-282.857,375.198-329.097
						c279.353-76.348,514.346,1.514,662.29,80.283c146.997,78.267,252.344,216.689,289.031,379.785
						c68.018,302.383,44.873,548.989,43.853,559.341c-0.659,6.699-4.031,12.837-9.333,16.987
						C2328.605,1966.386,2323.254,1968.207,2317.785,1968.207z M875.8,1708.593l1419.27,206.787
						c3.948-70.801,9.109-278.76-44.688-517.92c-33.535-149.082-129.802-275.601-264.119-347.109
						c-140.071-74.58-362.407-148.35-626.152-76.25c-154.539,42.246-279.504,151.899-342.854,300.854
						C972.478,1380.248,912.626,1538.91,875.8,1708.593z"/>
				</g>
			</g>
			<g>
				<g>
					<path style="fill:#FFC2C2;" d="M2020.428,1661.747c0,0-218.676-143.059-602.891-161.452
						c-384.215-18.393-652.139,112.611-664.202,371.953c-12.262,263.637,392.39,611.066,1105.64,500.706
						c0,0,454.51,108.867,531.361-251.375C2455.735,1815.024,2202.317,1629.048,2020.428,1661.747z"/>
				</g>
				<g>
					<path style="fill:#FF99A8;" d="M815.678,1912.923c8.412,60.63,42.819,124.67,99.281,183.86
						c143.541,150.286,391.517,236.532,680.568,236.532h0.076c81.547,0,167.035-6.821,254.115-20.311l11.747-1.819l11.595,2.804
						c0.531,0.151,59.341,13.793,134.901,13.793c183.404,0,292.083-73.665,323.081-218.873c7.503-35.317,10.155-67.678,9.094-97.084
						c-24.934,60.782-82.457,135.053-214.553,130.203c-221.677-8.185-254.341-178.1-254.341-178.1s-133.234,234.031-588.563,178.327
						C1030.838,2111.409,890.707,2003.413,815.678,1912.923z"/>
				</g>
				<g style="opacity:0.5;">
					<path style="fill:#FFFFFF;" d="M831.745,1771.39c24.479-32.816,56.916-61.615,97.31-86.094
						c100.57-61.008,245.929-93.294,420.467-93.294c23.418,0,47.67,0.606,71.998,1.819
						c251.234,11.974,446.453,54.335,544.749,98.443c-3.107-2.425-95.559-44.104-237.735-99.277
						c-85.64-22.964-190.984-42.289-313.911-48.201c-22.66-1.137-45.169-1.667-66.996-1.667
						c-162.412,0-297.768,30.012-391.365,86.776C895.255,1666.955,853.648,1714.322,831.745,1771.39z"/>
				</g>
				<g style="opacity:0.5;">
					<path style="fill:#FFFFFF;" d="M2326.582,1890.641c0,0-79.304-148.423-214.955-171.415
						c-135.65-22.992-157.365,44.45-157.365,44.45S2147.137,1683.078,2326.582,1890.641z"/>
				</g>
				<g>
					<path style="fill:#213E68;" d="M2028.984,1685.5c-27.015-2.97-55.524,6.035-78.243,21.391
						c-11.554,7.289-24.32-7.757-15.434-17.954c21.38-25.308,50.825-43.013,82.674-51.455
						C2049.924,1631.188,2060.5,1677.245,2028.984,1685.5L2028.984,1685.5z"/>
				</g>
				<g>
					<path style="fill:#213E68;" d="M1887.829,2405.273c-21.084-4.13-40.907-13.512-58.195-26.125
						c-16.884-12.216-31.007-28.177-41.811-45.906c-3.66-5.803-1.923-13.474,3.879-17.134c4.983-3.142,11.345-2.305,15.36,1.67
						c22.547,23.974,55.644,41.754,88.534,38.848C1927.567,2362.738,1920.151,2409.415,1887.829,2405.273L1887.829,2405.273z"/>
				</g>
				<g>
					<path style="fill:#213E68;" d="M1948.133,1893.013c-16.041-2.661-30.133-4.614-45.487-5.852
						c-15.215-1.248-30.385-0.086-45.675-2.104c-7.238-1.16-12.167-7.967-11.007-15.206c1.575-9.722,12.108-12.129,19.952-14.971
						c13.723-3.89,28.259-3.963,42.26-0.742c9.34,2.27,18.366,6.125,26.177,11.78c7.779,5.686,14.552,12.722,18.376,22.351
						C1953.911,1891.123,1950.972,1893.951,1948.133,1893.013L1948.133,1893.013z"/>
				</g>
				<g>
					<path style="fill:#213E68;" d="M1905.279,1882.014c-30.554,61.062-92.763,101.762-156.108,121.983c0,0-23.72,6.958-23.72,6.958
						c-7.755,1.517-28.616,5.679-36.175,7.129c-7.999,0.93-28.274,2.945-36.464,3.792c-32.254,1.972-64.701-0.252-96.642-4.512
						c-9.132-1.222-8.764-14.829,0.596-15.327c38.843-1.144,78.3-1.873,116.618-8.551c0,0.001,11.404-1.662,11.404-1.662
						l11.169-2.664c54.776-11.835,108.467-37.142,147.744-77.2c11.991-12.875,23.795-27.369,31.449-43.169
						C1884.406,1849.188,1913.447,1861.762,1905.279,1882.014L1905.279,1882.014z"/>
				</g>
				<g>
					<g>
						<path style="fill:#4EC422;" d="M1556.8,2158.398c63.585-28.647,83.517-141.04,83.517-141.04
							c0,73.589,34.71,131.794,34.71,131.794c74.575-63.358,81.775-156.349,81.775-156.349
							c4.092,126.716,68.435,244.262,68.435,244.262c73.59-132.855,38.045-244.262,38.045-244.262
							c70.558,118.834,185.754,120.577,185.754,120.577c-24.555-153.241-158.926-230.999-158.926-230.999
							c-63.661,71.467-129.293,105.95-184.39,121.714c-10.004,2.88-19.705,5.153-28.951,6.896c-24.328,4.623-45.7,5.76-62.752,5.381
							c-11.065-0.227-20.387-1.061-27.435-1.97c-10.155-1.364-15.764-2.804-15.764-2.804
							C1527.926,2089.659,1556.8,2158.398,1556.8,2158.398z"/>
					</g>
					<g>
						<path style="fill:#31A519;" d="M1878.902,1903.925c0,0,62.333,67.953,87.368,120.067c0,0-109.338-79.193-119.045-92.477
							L1878.902,1903.925z"/>
					</g>
					<g>
						<path style="fill:#31A519;" d="M1823.211,1955.017c0,0,13.793,115.16,1.277,171.604c0,0-37.037-129.825-36.462-146.268
							L1823.211,1955.017z"/>
					</g>
					<g>
						<path style="fill:#31A519;" d="M1676.771,2010.992c2.652,40.698,6.594,84.958,6.594,84.958
							c10.155-23.494,17.431-59.266,22.357-91.854C1695.718,2006.975,1686.017,2009.249,1676.771,2010.992z"/>
					</g>
					<g>
						<path style="fill:#31A519;" d="M1578.097,2092.917c0,0,19.098-39.561,35.923-76.545c-11.065-0.227-20.387-1.061-27.435-1.97
							C1581.128,2042.292,1577.111,2071.318,1578.097,2092.917z"/>
					</g>
					<g>
						<path style="fill:#213E68;" d="M1887.739,1867.415c4.842-0.434,10.37,1.59,14.347,4.541
							c14.638,9.325,28.201,20.062,41.365,31.294c61.681,53.407,107.343,126.626,120.555,207.759
							c1.938,9.247-5.811,18.144-15.22,17.551c-20.897-0.858-41.322-5.815-60.852-12.939
							c-57.091-20.656-105.706-63.751-131.676-118.604c0,0,14.885-6.684,14.885-6.684c16.631,41.895,17.021,86.697,10.919,130.495
							c-5,32.623-14.583,64.469-28.44,94.395c-4.582,9.958-9.956,19.524-15.106,29.17c-3.813,7.386-12.956,10.247-20.291,6.321
							c-2.809-1.5-4.939-3.765-6.277-6.406c-10.481-19.966-19.105-39.517-27.211-59.839
							c-23.988-61.015-40.486-125.343-43.096-191.152c0,0,30.262,0.674,30.262,0.674c-3.621,32.114-13.507,62.784-28.149,91.482
							c-14.42,28.679-34.651,54.19-58.899,75.249c-6.817,6.291-18.138,4.488-22.704-3.562
							c-23.563-42.827-36.504-90.941-37.01-139.807c0,0,30.082,2.646,30.082,2.646c-5.953,29.51-15.019,57.254-28.573,84.192
							c-6.859,13.357-14.917,26.423-25.253,38.31c-10.194,11.9-23.029,22.622-38.417,29.688
							c-8.865,4.461-19.314-1.484-21.221-10.923c-15.587-51.398-6.452-108.464,20.818-154.204c1.952-4.065,6.503-5.763,10.62-4.563
							c13.705,2.828,28.392,3.674,42.468,3.757c43.459-0.235,86.66-10.616,126.3-28.264c19.552-9.304,38.654-20.12,56.497-32.388
							c5.763-4.378,20.45-15.298,26.006-19.733c5.419-4.949,18.775-16.882,24.301-21.89
							C1860.869,1892.056,1874.519,1878.346,1887.739,1867.415L1887.739,1867.415z M1892.546,1897.346
							c-7.856,10.37-14.197,19.063-24.066,27.735c0,0-17.757,15-17.757,15c-9.75,8.835-26.488,19.96-37.341,27.683
							c-12.97,7.977-26.693,16.476-40.522,22.928c-62.583,30.771-135.625,44.851-204.429,29.993
							c-0.006,0.016,10.669-4.612,10.61-4.547c-20.558,41.402-25.592,91.361-8.942,134.885c0.239,0.573,0.517,1.257,0.638,1.474
							l-20.192-7.954c44.854-22.673,64.48-83.558,74.83-129.838c3.755-17.749,29.451-15.362,30.082,2.536
							c0.196,21.62,3.115,43.26,8.847,64.196c5.466,20.556,13.502,41.479,23.755,59.966c0,0-22.828-3.789-22.828-3.789
							c40.194-34.543,66.054-84.112,75.082-136.125c0.604-3.374,1.086-7.103,1.371-9.888c0.856-8.337,8.309-14.404,16.648-13.55
							c7.542,0.774,13.221,6.946,13.608,14.287c1.099,20.471,2.797,41.003,6.616,61.355c10.85,60.858,31.815,121.248,59.991,176.072
							c0,0-26.554-0.064-26.554-0.064c18.236-35.872,33.082-74.118,40.248-113.845c7.336-39.444,8.09-80.834,3.253-120.537
							c-3.714-8.362,7.6-15.336,13.421-8.415c22.847,29.455,48.381,57.742,80.303,77.353c30.124,18.549,64.704,31.171,100.046,33.99
							c0.037-0.007-15.203,17.549-15.194,17.551c-14.532-88.466-71.256-166.103-144.698-215.94
							c-1.734-1.299-3.713-2.349-5.478-3.543C1885.363,1897.495,1890.145,1898.336,1892.546,1897.346L1892.546,1897.346z"/>
					</g>
				</g>
				<g>
					<path style="fill:#213E68;" d="M1744.958,1650.667c-20.72,3.065-43.006,2.324-63.55,4.607
						c-22.116,2.002-40.097,8.073-61.726,16.775c-4.387,2.095-9.785,0.168-11.445-4.502c-0.722-1.98-0.619-4.075,0.121-5.884
						c5.345-13.246,14.284-24.755,25.655-33.432c33.819-26.059,85.212-29.697,120.306-4.454c9.726,6.729,6.55,22.929-4.8,25.647
						C1749.519,1649.424,1744.958,1650.667,1744.958,1650.667L1744.958,1650.667z"/>
				</g>
				<g>
					<path style="fill:#213E68;" d="M1162.895,1574.268c33.427-20.035,80.341-8.447,103.599,22.014
						c8.077,9.946,12.63,22.009,14.287,33.941c0.568,4.094-2.291,7.876-6.388,8.445c-2.222,0.359-4.183-0.491-5.958-1.599
						c-8.846-5.573-15.826-11.205-24.834-15.63c-15.046-8.375-30.638-11.957-47.606-15.579c-6.249-1.216-13.756-2.831-20.178-4.26
						c-4.113-0.724-8.284-2.492-11.836-4.356C1154.679,1593.138,1154.125,1579.184,1162.895,1574.268L1162.895,1574.268z"/>
				</g>
				<g>
					<path style="fill:#213E68;" d="M2020.695,2419.252c-79.624,0.005-144.097-15.869-163.301-21.138
						c-211.887,32.183-408.408,26.616-584.163-16.563c-154.172-37.881-287.456-104.429-385.437-192.446
						c-106.055-95.273-164.033-211.182-159.065-318.003c4.595-98.77,43.538-182.158,115.747-247.861
						c117.854-107.236,321.809-159.58,574.236-147.549c349.697,16.738,562.744,133.735,606.907,160.288
						c101.511-14.165,218.616,33.237,301.089,122.598c53.699,58.184,136.462,183.525,87.444,369.282
						c-29.241,110.806-87.927,191.489-174.434,239.81C2168.227,2407.607,2088.901,2419.252,2020.695,2419.252z M1347.932,1523.232
						c-207.305,0-372.7,47.642-470.303,136.445c-62.185,56.582-95.725,128.486-99.69,213.711
						c-4.28,92.002,47.761,193.716,142.776,279.072c97.292,87.397,383.122,281.475,934.495,196.152
						c3.648-0.571,7.375-0.303,10.903,0.767c1.968,0.591,200.396,58.799,349.817-24.844
						c74.255-41.567,124.922-111.963,150.591-209.243c43.022-163.027-29.158-272.534-76.011-323.301
						c-72.808-78.892-179.585-121.494-265.725-106.001c-6.194,1.104-12.581-0.186-17.842-3.633
						c-3.31-2.139-219.502-139.697-590.583-157.456C1393.093,1523.788,1370.258,1523.232,1347.932,1523.232z"/>
				</g>
			</g>
			<g>
				<g>
					<path style="fill:#FFFFFF;" d="M2159.91,1448.691c251.05,198.832,377.098,45.685,434.178-83.585
						c26.875-60.865-14.1-129.909-80.42-135.235c-193.717-15.558-398.208-57.079-398.208-57.079s-55.18,27.59-30.656,116.491
						S2159.91,1448.691,2159.91,1448.691z"/>
				</g>
				<g>
					<g>
						<path style="fill:#D1D6E5;" d="M2141.006,1388.913c218.676,132.84,392.39-16.873,392.39-16.873
							s-32.857,186.14-184.395,170.098c-151.538-16.042-218.214-110.308-227.41-128.701
							C2112.394,1395.044,2141.006,1388.913,2141.006,1388.913z"/>
					</g>
					<g>
						<path style="fill:#213E68;" d="M2538.691,1378.184c-108.067,106.935-284.275,111.849-401.706,17.348
							c-3.371-2.69-3.923-7.602-1.231-10.974c2.263-2.835,6.109-3.678,9.274-2.266c31.738,13.801,63.545,25.378,95.967,32.991
							c64.97,15.071,131.846,11.819,195.334-8.467c31.882-10.107,63.538-24.279,92.313-41.235
							C2536.579,1360.897,2545.079,1371.446,2538.691,1378.184L2538.691,1378.184z"/>
					</g>
				</g>
				<g>
					<path style="fill:#213E68;" d="M2119.049,1155.117c113.866,16.986,232.788,33.403,347.085,44.241
						c21.092,2.319,42.777,3.001,63.776,6.218c48.456,9.006,87.715,49.392,96.706,97.557c2.667,14.745,2.609,29.929,0.106,44.68
						c-2.521,13.137-8.438,28.194-14.086,39.387c-16.353,33.707-35.193,65.811-60.149,94.485
						c-74.041,87.553-177.748,106.339-280.467,58.47c-44.297-19.994-84.037-49.511-119.01-82.748
						c-9.673-9.423,2.495-24.721,13.804-17.431c113.314,73.154,245.208,136.436,347.383,9.427
						c20.818-25.496,37.505-54.326,51.27-84.3c8.377-16.995,12.735-33.58,9.384-52.105c-6.246-31.72-33.155-55.01-65.233-57.077
						c-134.068-11.94-266.819-34.244-397.745-65.452C2089.769,1184.648,2096.07,1151.902,2119.049,1155.117L2119.049,1155.117z"/>
				</g>
			</g>
		</g>
	</g>
</g>
</svg>
