<?xml version="1.0" encoding="utf-8"?>
<!-- Generator: Adobe Illustrator 27.5.0, SVG Export Plug-In . SVG Version: 6.00 Build 0)  -->
<svg version="1.1" id="Layer_1" xmlns="http://www.w3.org/2000/svg" xmlns:xlink="http://www.w3.org/1999/xlink" x="0px" y="0px"
	 viewBox="0 0 4000 4000" style="enable-background:new 0 0 4000 4000;" xml:space="preserve">
<g>
	<g>
		<g>
			
				<rect x="2.223" y="0" transform="matrix(-1 -1.224647e-16 1.224647e-16 -1 4000 4000)" style="fill:#50DEFF;" width="3995.555" height="4000"/>
		</g>
	</g>
	<g>
		<g>
			<g>
				<g>
					<g>
						<path style="fill:#FFB32C;" d="M2573.863,3220.19c269.832,33.779,401.861-221.774,381.803-438.187
							c-16.521-178.251-98.204-254.513-117.937-256.35s-34.876,25.267-34.876,25.267
							c-60.422-103.061-200.104-119.889-222.566-104.898c-11.931,7.963-6.425,34.915-6.425,34.915s-140.423-39.656-184.773,70.443
							c-44.11,109.501,68.519,577.615,68.519,577.615L2573.863,3220.19z"/>
					</g>
				</g>
				<g>
					<g>
						<path style="fill:#F28D14;" d="M2616.082,2995.169c152.891-22.052,155.719-249.115,30.287-285.14
							c-110.991-31.877-102.181,71.055-76.177,138.953c15.771,41.178-10.17,82.328-10.17,82.328L2616.082,2995.169z"/>
					</g>
				</g>
				<g>
					<g>
						<path style="fill:#F28D14;" d="M2442.833,3063.939c8.122,2.033,16.794,4.446,26.172,7.352
							c293.572,90.959,484.578-111.946,425.852-488.523c25.974,41.406,52.213,106.485,60.81,199.236
							c20.057,216.413-111.971,471.966-381.803,438.187l-116.254-91.195C2457.609,3128.995,2451.565,3103.869,2442.833,3063.939z"/>
					</g>
				</g>
				<g>
					<g>
						<path style="fill:#FFF8E1;" d="M2573.863,2480.937c0,0-5.507-26.953,6.425-34.915
							c22.461-14.991,162.144,1.838,222.566,104.898c0,0,15.144-27.105,34.876-25.267c19.733,1.838,101.417,78.099,117.937,256.35
							c16.909,182.444-74.275,392.696-264.985,433.97c-29.675-3.027-60.66-7.219-93.162-12.804
							c281.814-61.98,299.102-334.546,224.955-505.391c-68.141-157.006-282.57-202.14-378.021-132.309
							c-20.156-4.16-38.524-8.976-55.27-14.3C2433.632,2441.343,2573.863,2480.937,2573.863,2480.937z"/>
					</g>
				</g>
				<g>
					<g>
						<path style="fill:#F4DAB0;" d="M2854.613,2944.137c47.229-87.39,63.781-210.438,40.244-361.37
							c25.974,41.406,52.213,106.485,60.81,199.236c16.909,182.444-74.275,392.696-264.985,433.97
							c-29.675-3.027-60.66-7.219-93.162-12.804C2760.783,3167.262,2835.257,3060.676,2854.613,2944.137z"/>
					</g>
				</g>
				<g>
					<g>
						<path style="fill:#512717;" d="M2621.148,3246.682c-16.41,0-33.147-1.06-50.196-3.193l-6.446-0.806l-127.79-100.244
							l-1.909-7.944c-11.708-48.662-113.075-478.691-67.471-591.899c34.915-86.675,123.21-98.237,183.26-90.259
							c2.17-9.751,6.984-19.38,16.68-25.85c23.829-15.903,74.839-5.82,89.912-2.354c30.247,6.963,99.872,28.823,148.051,88.984
							c9.182-6.914,20.88-12.119,34.659-10.845c33.666,3.14,121.506,87.466,139.123,277.563
							c13.215,142.583-35.158,286.03-126.246,374.355C2789.886,3215.178,2710.551,3246.682,2621.148,3246.682z M2583.132,3197.629
							c92.744,10,174.559-16.611,237.007-77.168c79.896-77.476,123.927-209.478,112.173-336.289
							c-13.915-150.146-77.06-223.691-97.277-234.707c-3.243,1.748-8.711,7.705-11.779,13.037l-20.131,35.005l-20.5-34.702
							c-50.415-85.991-159.381-101.938-186.528-97.573c-0.185,3.354,0.134,8.003,0.746,10.996l7.719,37.773l-37.066-10.469
							c-4.86-1.343-120.793-32.378-156.652,56.631c-33.208,82.432,35.875,421.265,67.676,555.405L2583.132,3197.629z
							 M2833.081,2548.542L2833.081,2548.542C2833.078,2548.542,2833.081,2548.542,2833.081,2548.542z M2592.084,2466.247
							C2592.084,2466.247,2592.084,2466.242,2592.084,2466.247L2592.084,2466.247z"/>
					</g>
				</g>
				<g>
					<g>
						<path style="fill:#512717;" d="M2595.89,2746.629c52.806-19.844,97.828,32.575,103.039,82.017
							c8.232,56.31-26.305,110.168-81.404,125.228c0.001,0.001-12.984-45.126-12.984-45.126
							c36.059-9.375,59.525-40.816,59.402-77.686C2665.512,2791.029,2638.435,2750.116,2595.89,2746.629L2595.89,2746.629z"/>
					</g>
				</g>
			</g>
			<g>
				<g>
					<g>
						<path style="fill:#FFB32C;" d="M2339.825,2282.657c136.752,249.428,172.546,452.486,172.546,452.486
							c134.916,62.308,178.97,393.852,18.482,577.102l-665.834,21.911l-200.691,5.973h-104.017l-200.691-86.159
							c-50.479-69.613-59.657-384.678,45.89-442.576c0,0,6.425-279.308,43.341-480.389L2339.825,2282.657z"/>
					</g>
				</g>
				<g>
					<g>
						<path style="fill:#F28D14;" d="M1433.578,2430.473c4.397-34.166,9.454-67.789,15.27-99.469l890.977-48.347
							c16.633,30.338,31.761,59.982,45.524,88.666C2178.387,2656.649,1588.792,2628.034,1433.578,2430.473z"/>
					</g>
				</g>
				<g>
					<g>
						<path style="fill:#F28D14;" d="M1560.309,3340.128l-200.691-86.159c-3.428-4.727-6.658-10.623-9.683-17.457
							c-26.708-343.333,227.506-107.516,227.506-107.516l216.918-230.313c37.618,73.515,104.853,78.45,164.746-5.503
							c0,0,244.158,209.921,307.172,130.473c90.844-114.538,378.216-79.635,293.644,250.541
							c-8.831,13.243-18.494,25.978-29.069,38.052l-665.834,21.911l-200.691,5.972H1560.309z"/>
					</g>
				</g>
				<g style="opacity:0.6;">
					<g>
						<path style="fill:#FFFFFF;" d="M1359.618,3253.969c-50.479-69.614-59.657-384.679,45.89-442.576
							c0,0,6.425-279.308,43.341-480.39l33.538-1.82c-10.842,84.643-45.769,375.575-28.04,481.724l31.113,16.577
							c-141.796,20.362-128.699,306.309-97.025,438.856L1359.618,3253.969z"/>
					</g>
				</g>
				<g style="opacity:0.6;">
					<g>
						<path style="fill:#FFFFFF;" d="M2339.825,2282.656c136.752,249.428,172.546,452.487,172.546,452.487
							c134.916,62.308,178.97,393.852,18.482,577.101l-13.57,0.447c111.82-265.237,45.218-565.604-123.766-535.743l54.659-42.451
							c0,0-82.635-326.523-188.701-447.481L2339.825,2282.656z"/>
					</g>
				</g>
				<g>
					<g>
						<path style="fill:#FFF8E1;" d="M1503.009,2390.434l749.74-18.975c81.569,204.73-53.347,487.725-293.239,496.031
							c48.532,182.808,79.349,337.326,95.563,460.411l-190.054,6.254l-87.01,2.589c-61.152-89.975-107.317-228.782,18.048-469.255
							C1512.89,2828.863,1448.848,2605.896,1503.009,2390.434z"/>
					</g>
				</g>
				<g>
					<g>
						<path style="fill:#F4DAB0;" d="M1503.009,2390.434l749.74-18.975c13.108,32.898,20.595,67.822,22.985,103.298
							c-228.974,151.829-613.285,132.341-788.264,6.309C1490.136,2451.061,1495.407,2420.673,1503.009,2390.434z"/>
					</g>
				</g>
				<g>
					<g>
						<path style="fill:#F4DAB0;" d="M1959.106,2893.179c0,0,3.286,2.823,9.138,7.648c43.522,168.315,71.61,311.544,86.828,427.074
							l-190.054,6.254l-87.01,2.589c-55.903-82.252-99.194-205.368-10.452-409.602l26.805-28.46
							C1831.978,2972.198,1899.213,2977.133,1959.106,2893.179z"/>
					</g>
				</g>
				<g>
					<g>
						<path style="fill:#512717;" d="M1664.676,3363.611h-109.183l-211.059-90.615l-3.797-5.234
							c-39.899-55.02-53.363-223.643-27.179-340.42c13.971-62.31,37.136-105.61,68.961-128.989
							c1.788-56.816,10.974-295.181,43.362-471.592l46.135,8.486c-36.161,196.963-42.897,473.911-42.96,476.689l-0.312,13.54
							l-11.864,6.509c-24.901,13.662-45.34,51.177-57.553,105.64c-24.063,107.329-11.057,250.864,16.142,297.554l189.757,81.47
							h98.848l200.346-5.962l655.401-21.567c93.563-113.345,102.118-270.996,80.414-373.257
							c-16.844-79.365-53.327-138.955-97.589-159.395l-11.14-5.146l-2.131-12.095c-0.354-1.987-36.946-202.573-170.009-445.269
							l41.121-22.598c120.228,219.287,163.112,401.128,172.83,448.149c53.125,30.361,93.887,97.476,112.802,186.592
							c24.453,115.205,13.581,294.756-97.528,421.621l-6.704,7.656l-675.999,22.246L1664.676,3363.611z"/>
					</g>
				</g>
				<g>
					<g>
						<path style="fill:#512717;" d="M2509.298,2758.421c-26.109-11.123-57.756-12.119-83.659,1.071
							c9.314-13.599,22.905-24.761,37.913-32.307c16.207-8.066,33.573-13.818,51.892-15.32
							C2515.443,2711.865,2509.298,2758.421,2509.298,2758.421L2509.298,2758.421z"/>
					</g>
				</g>
				<g>
					<g>
						<path style="fill:#512717;" d="M1451.549,2826.258c-14.357-0.172-31.091,2.249-43.704,8.499c0,0-4.674-46.729-4.674-46.729
							c10.609,1.379,20.353,4.024,29.364,7.581c9.179,3.587,17.092,7.679,25.5,13.022L1451.549,2826.258L1451.549,2826.258z"/>
					</g>
				</g>
			</g>
			<g>
				<g>
					<g>
						<g>
							<path style="fill:#2EB9FF;" d="M2387.55,2189.672c6.425,34.302,7.342,102.831-16.291,131.314
								c-40.947,49.35-265.095,153.086-543.106,146.322c-264.325-6.432-397.865-99.232-418.974-146.552
								c-12.423-27.848-9.637-70.749-9.637-70.749L2387.55,2189.672z"/>
						</g>
					</g>
					<g>
						<g>
							<path style="fill:#0791E5;" d="M1399.431,2256.832c21.109,47.319,154.649,140.121,418.974,146.552
								c278.011,6.766,502.159-96.971,543.106-146.321c12.371-14.911,17.975-40.796,19.623-67l6.416-0.391
								c6.425,34.303,7.343,102.831-16.291,131.314c-40.947,49.35-265.095,153.087-543.106,146.321
								c-264.325-6.431-397.865-99.232-418.974-146.551c-9.474-21.237-10.1-51.174-9.865-64.216
								C1399.356,2256.635,1399.389,2256.738,1399.431,2256.832z"/>
						</g>
					</g>
					<g>
						<g>
							<path style="fill:#512717;" d="M1853.67,2491.096c-8.657,0-17.339-0.103-26.087-0.317
								c-271.212-6.597-413.71-101.914-439.821-160.449c-14.374-32.217-11.95-76.86-11.625-81.846l46.811,3.047
								c-0.646,10.352-0.534,41.309,7.648,59.648c14.808,33.193,136.669,126.294,398.129,132.656
								c8.716,0.21,17.415,0.313,25.999,0.313c265.552,0.015,465.812-98.779,498.496-138.164
								c16.3-19.648,17.556-78.467,11.279-111.987l46.106-8.652c4.953,26.45,11.671,110.903-21.3,150.649
								C2342.981,2391.814,2120.958,2491.091,1853.67,2491.096z"/>
						</g>
					</g>
				</g>
				<g>
					<g>
						<g>
							<g>
								<ellipse style="fill:#FFE41F;" cx="1828.31" cy="2570.786" rx="115.184" ry="115.312"/>
							</g>
						</g>
						<g style="opacity:0.6;">
							<g>
								<path style="fill:#FFFFFF;" d="M1828.31,2455.475c63.614,0,115.184,51.626,115.184,115.311
									c0,11.44-1.689,22.481-4.788,32.914c-2.751-30.18-17.131-56.979-38.594-75.92c2.821,5.833,3.675,11.828,2.078,17.491
									c-5.164,18.313-33.878,26.227-64.133,17.676c-30.255-8.552-50.596-30.329-45.431-48.643
									c1.521-5.392,5.124-9.853,10.165-13.287c-42.611,7.964-76.976,39.361-89.159,80.373c-0.318-3.494-0.505-7.027-0.505-10.604
									C1713.126,2507.101,1764.696,2455.475,1828.31,2455.475z"/>
							</g>
						</g>
						<g>
							<g>
								<path style="fill:#FFB806;" d="M1828.31,2609.836c31.649,0,60.29-12.799,81.101-33.487
									c-2.868,42.389-38.031,75.909-81.101,75.909c-43.07,0-78.233-33.52-81.101-75.909
									C1768.02,2597.037,1796.661,2609.836,1828.31,2609.836z"/>
							</g>
						</g>
						<g>
							<g>
								<path style="fill:#512717;" d="M1828.31,2704.88c-73.858,0-133.948-60.151-133.948-134.092s60.089-134.097,133.948-134.097
									s133.948,60.156,133.948,134.097S1902.168,2704.88,1828.31,2704.88z M1828.31,2474.26
									c-53.166,0-96.421,43.301-96.421,96.528c0,53.223,43.255,96.523,96.421,96.523c53.166,0,96.421-43.301,96.421-96.523
									C1924.731,2517.561,1881.476,2474.26,1828.31,2474.26z"/>
							</g>
						</g>
					</g>
					<g>
						<g>
							<g>
								<path style="fill:#CECECE;" d="M1814.604,2536.338h27.411c8.959,0,16.385-8.766,16.985-20.052l7.097-133.522
									c0.66-12.407-7.135-22.929-16.985-22.929h-41.606c-9.85,0-17.644,10.522-16.985,22.929l7.097,133.522
									C1798.219,2527.572,1805.645,2536.338,1814.604,2536.338z"/>
							</g>
						</g>
						<g>
							<g>
								<path style="fill:#99A5AA;" d="M1807.507,2359.835h15.678c-1.307,3.299-2.035,7.019-1.824,10.985l7.097,133.522
									c0.6,11.284,8.026,20.052,16.985,20.052h11.809c-2.796,7.103-8.587,11.945-15.236,11.945h-27.411
									c-8.959,0-16.385-8.768-16.985-20.052l-7.097-133.522C1789.863,2370.357,1797.657,2359.835,1807.507,2359.835z"/>
							</g>
						</g>
						<g style="opacity:0.6;">
							<g>
								<path style="fill:#FFFFFF;" d="M1830.089,2516.287l7.097-133.522c0.66-12.408-7.134-22.929-16.984-22.929h28.911
									c9.85,0,17.644,10.522,16.985,22.929L1859,2516.287c-0.6,11.284-8.026,20.052-16.985,20.052h-27.411
									c-0.256,0-0.496-0.077-0.75-0.092C1822.468,2535.765,1829.507,2527.249,1830.089,2516.287z"/>
							</g>
						</g>
						<g>
							<g>
								<path style="fill:#512717;" d="M1842.015,2555.124h-27.411c-18.902,0-34.595-16.621-35.722-37.842l-7.097-133.521
									c-0.641-12.061,3.441-23.672,11.196-31.86c6.628-6.997,15.339-10.85,24.526-10.85h41.604c9.187,0,17.898,3.853,24.526,10.85
									c7.755,8.188,11.837,19.8,11.196,31.86l-7.097,133.521C1876.611,2538.503,1860.918,2555.124,1842.015,2555.124z
									 M1816.824,2517.556h22.972c0.212-0.527,0.415-1.289,0.468-2.266l7.097-133.521c0.073-1.401-0.193-2.466-0.468-3.149
									h-37.166c-0.276,0.684-0.542,1.748-0.468,3.149l7.097,133.521C1816.409,2516.267,1816.611,2517.029,1816.824,2517.556z"/>
							</g>
						</g>
					</g>
				</g>
			</g>
			<g>
				<g>
					<g>
						<path style="fill:#512717;" d="M2549.046,1367.47c-0.358-0.764-36.31-77.17-89.656-144.329l36.717-29.229
							c56.902,71.636,93.892,150.364,95.441,153.682L2549.046,1367.47z"/>
					</g>
				</g>
				<g>
					<g>
						<g>
							<path style="fill:#FFB32C;" d="M1203.927,1405.297c-84.437-356.501-31.744-670.727,71.661-700.17
								c116.516-33.177,368.342,261.598,368.342,261.598c181.112-61.255,387.922,0,387.922,0
								c89.332-118.834,361-313.623,455.227-246.243c154.126,110.212,83.214,637.047,83.214,637.047
								c56.292,126.184,64.858,303.822,64.858,303.822c165.203,317.298-168.875,669.652-807.661,669.512
								c-674.278-0.148-849.268-434.295-688.959-608.257C1152.604,1561.507,1203.927,1405.297,1203.927,1405.297z"/>
						</g>
					</g>
					<g>
						<g>
							<path style="fill:#F28D14;" d="M1952.566,1642.164c-76.534-36.554-194.281-38.63-257.238,0
								C1724.901,1533.33,1880.093,1435.935,1952.566,1642.164z"/>
						</g>
					</g>
					<g style="opacity:0.6;">
						<g>
							<path style="fill:#FFFFFF;" d="M1575.759,1006.387c0,0-181.724-247.162-285.894-245.478
								c-86.679,1.402-125.988,235.108-126.195,236.342c8.899-161.784,51.846-275.02,111.919-292.124
								c116.516-33.177,368.342,261.598,368.342,261.598c181.112-61.254,387.922,0,387.922,0
								c89.332-118.834,361-313.622,455.227-246.243c42.346,30.281,67.679,92.041,82.188,165.655l0,0
								c-58.121-114.201-100.123-164.16-192.732-125.227c-202.527,85.145-280.846,238.893-280.846,238.893l134.916,41.96
								c-234.038-30.813-484.597-70.749-775.538,32.159L1575.759,1006.387z"/>
						</g>
					</g>
					<g>
						<g>
							<path style="fill:#F28D14;" d="M1519.314,1035.33c0,0-160.658-272.536-238.168-259.106
								c-95.451,16.539-92.239,374.878-52.377,564.454C1228.769,1340.678,1331.166,1102.404,1519.314,1035.33z"/>
						</g>
					</g>
					<g>
						<g>
							<path style="fill:#F28D14;" d="M2517.877,1318.327c43.442-175.801,40.41-557.416-70.058-557.416
								c-102.502,0-273.809,250.04-273.809,250.04C2460.056,1128.131,2517.877,1318.327,2517.877,1318.327z"/>
						</g>
					</g>
					<g>
						<g>
							<path style="fill:#FFF8E1;" d="M1827.49,2330.864c-630.88-0.139-824.647-380.191-715.676-571.603
								c3.532,1.113,7.267,6.33,10.578,3.315c144.774-131.851,282.769-10.178,393.046-10.178
								c81.684,0,112.583-105.134,287.119-108.81c174.194-3.668,229.601,109.34,336.983,101.989
								c107.382-7.352,283.293-109.34,413.009-40.122c112.861,60.224,115.642,232.767,49.238,331.131
								c0.065,1.117,0.112,2.219,0.174,3.333C2478.085,2207.002,2206.399,2330.946,1827.49,2330.864z"/>
						</g>
					</g>
					<g>
						<g>
							<path style="fill:#F4DAB0;" d="M1140.952,1943.683c326.025,373.073,1348.883,229.796,1489.175-127.585
								c1.92,56.461-13.396,112.516-45.916,166.202c-112.679,186.017-402.493,301.583-756.335,301.601h-0.376
								c-185.586-0.041-342.257-33.313-465.651-98.895c-98.922-52.571-173.011-126.352-208.61-207.755
								C1148.341,1966.054,1144.286,1954.842,1140.952,1943.683z"/>
						</g>
					</g>
					<g>
						<g>
							<path style="fill:#512717;" d="M1827.866,2354.343c-0.132,0-0.251,0-0.38,0c-197.207-0.044-364.97-36.084-498.63-107.114
								c-144.671-76.885-210.403-173.887-240.075-241.719c-46.913-107.256-36.393-218.547,27.091-292.722
								c13.486-142.698,54.017-277.585,63.733-308.455c-38.765-166.624-50.693-334.937-33.569-474.629
								c17.376-141.724,61.106-229.5,123.137-247.163c57.368-16.316,139.128,24.048,249.932,123.457
								c60.297,54.094,111.258,109.895,132.345,133.677c154.986-46.768,320.561-12.41,371.523,0.364
								c50.113-61.387,137.308-134.656,222.501-186.345c81.045-49.172,191.113-98.174,255.239-52.317
								c70.351,50.308,107.1,177.725,109.224,378.711c1.363,128.84-11.969,245.225-15.552,273.979
								c50.42,117.383,62.038,270.513,63.904,300.991c60.621,119.856,55.729,248.872-13.94,363.85
								c-59.697,98.521-163.28,181.631-299.552,240.337C2200.391,2321.462,2021.64,2354.343,1827.866,2354.343z M1296.128,725.871
								c-5.041,0-9.752,0.596-14.123,1.841c-80.904,23.035-139.749,315.432-55.258,672.168l1.529,6.45l-2.068,6.301
								c-0.505,1.538-50.652,155.652-64.313,312.021l-0.697,7.986l-5.429,5.891c-55.444,60.166-64.647,155.249-24.016,248.142
								c26.682,61.001,86.352,148.525,219.099,219.077c126.815,67.397,287.181,101.592,476.643,101.631c0.11,0,0.254,0,0.363,0
								c361.997,0.01,659.452-119.849,776.382-312.827c62.614-103.333,66.108-214.797,10.111-322.349l-2.378-4.565l-0.249-5.149
								c-0.085-1.733-9.065-174.822-62.848-295.386l-2.717-6.094l0.888-6.616c19.175-142.651,43.331-531.189-73.6-614.805
								c-73.858-52.822-330.455,118.342-422.855,241.255l-9.789,13.02l-15.608-4.622c-1.983-0.583-202.075-58.33-373.761-0.271
								l-15.02,5.081l-10.311-12.063C1538,878.899,1376.727,725.871,1296.128,725.871z"/>
						</g>
					</g>
					<g>
						<g>
							
								<ellipse transform="matrix(0.995 -0.1003 0.1003 0.995 -176.6875 244.0792)" style="fill:#FFA4A4;" cx="2338.426" cy="1878.764" rx="101.937" ry="79.608"/>
						</g>
					</g>
					<g>
						<g>
							
								<ellipse transform="matrix(0.0932 -0.9956 0.9956 0.0932 -705.2448 2950.4961)" style="fill:#FFA4A4;" cx="1267.167" cy="1862.42" rx="79.608" ry="101.937"/>
						</g>
					</g>
					<g>
						<g>
							<path style="fill:#FFF8E1;" d="M1564.542,1371.158c67.675-5.169,73.883-88.36,10.861-99.385
								c-61.113-10.692-110.748,21.439-112.583,49.693C1461.312,1344.667,1490.353,1376.824,1564.542,1371.158z"/>
						</g>
					</g>
					<g>
						<g>
							<path style="fill:#FFF8E1;" d="M2075.808,1359.554c-67.675-5.169-73.883-88.36-10.861-99.385
								c61.112-10.692,110.747,21.439,112.583,49.693C2179.037,1333.063,2149.996,1365.22,2075.808,1359.554z"/>
						</g>
					</g>
				</g>
				<g>
					<g>
						<g>
							<path style="fill:#FFAFA9;" d="M2477.749,1208.528c0,0,54.15-368.446-37.458-393.281
								c-89.016-24.132-241.399,192.519-241.399,192.519C2288.224,1042.222,2388.723,1103.782,2477.749,1208.528z"/>
						</g>
					</g>
					<g>
						<g>
							<path style="fill:#F28383;" d="M2491.476,1068.255c0.001-0.007,0.003-0.013,0.004-0.02
								c-4.344,76.375-13.731,140.293-13.731,140.293c-89.026-104.746-189.525-166.306-278.857-200.762
								c0,0,152.383-216.65,241.399-192.519c40.226,10.906,52.343,88.066,53.285,171.19
								c-25.391-82.557-104.198-120.995-112.451-5.318C2374.134,1079.111,2472.417,1153.551,2491.476,1068.255z"/>
						</g>
					</g>
					<g>
						<g>
							<path style="fill:#512717;" d="M2493.419,1263.2l-33.534-39.456c-75.636-88.992-166.282-154.287-269.427-194.067
								l-28.055-10.82l17.31-24.609c1.597-2.273,39.707-56.233,89.607-108.083c72.722-75.559,130.663-106.169,177.103-93.579
								c51.152,13.865,73.522,86.675,70.398,229.131c-2.095,95.576-15.305,186.409-15.869,190.23L2493.419,1263.2z
								 M2235.503,997.475c82.808,36.382,159.532,90.066,225.206,157.481c3.8-35.188,8.145-84.702,9.223-134.644
								c2.736-126.731-17.559-177.461-35.771-182.4C2388.356,825.486,2296.444,917.302,2235.503,997.475z"/>
						</g>
					</g>
				</g>
				<g>
					<g>
						<g>
							<path style="fill:#FFAFA9;" d="M1490.353,1029.358c0,0-125.721-210.402-184.171-203.518
								c-93.615,11.026-41.607,439.807-41.607,439.807S1340.446,1129.662,1490.353,1029.358z"/>
						</g>
					</g>
					<g>
						<g>
							<path style="fill:#F28383;" d="M1251.702,1101.547c53.766,27.963,109.409-21.088,98.28-100.672
								c-9.637-68.911-88.107-109.59-99.801,34.424c-0.194-103.628,11.29-204.193,56.002-209.459
								c58.45-6.885,184.171,203.518,184.171,203.518c-149.907,100.304-225.778,236.289-225.778,236.289
								s-9.165-75.588-12.874-164.103C1251.701,1101.545,1251.701,1101.546,1251.702,1101.547z"/>
						</g>
					</g>
					<g>
						<g>
							<path style="fill:#512717;" d="M1249.947,1339.751l-8.657-71.274c-4.446-36.66-41.582-360.537,22.846-442.549
								c13.437-17.104,28.791-22.17,39.304-23.408c23.263-2.732,59.67,7.107,135.516,108.416
								c39.019,52.119,70.217,104.177,71.527,106.37l11.452,19.165l-18.549,12.41c-143.073,95.732-217.609,226.921-218.344,228.237
								L1249.947,1339.751z M1309.044,849.155c-0.073,0-0.115,0.005-0.124,0.005c-0.915,0.107-3.7,0.435-7.911,5.798
								c-33.588,42.754-31.057,212.83-19.787,343.34c34.703-46.951,93.755-115.698,177.444-175.554
								c-12.403-19.624-33.544-51.992-57.292-83.706C1335.511,851.081,1310.97,849.155,1309.044,849.155z"/>
						</g>
					</g>
					<g>
						<g>
							<path style="fill:#512717;" d="M1226.135,1412.849l-44.418-15.103c26.443-77.935,60.863-140.796,62.316-143.435
								l41.085,22.664C1284.781,1277.588,1251.188,1339.009,1226.135,1412.849z"/>
						</g>
					</g>
				</g>
				<g>
					<g>
						<g>
							
								<ellipse transform="matrix(0.9998 -0.0191 0.0191 0.9998 -29.7212 41.2694)" style="fill:#512717;" cx="2140.64" cy="1572.975" rx="133.822" ry="157"/>
						</g>
					</g>
					<g>
						<g>
							
								<ellipse transform="matrix(0.9998 -0.0191 0.0191 0.9998 -29.2425 40.4505)" style="fill:#FFFFFF;" cx="2097.595" cy="1547.192" rx="49.761" ry="58.38"/>
						</g>
					</g>
					<g style="opacity:0.4;">
						<g>
							
								<ellipse transform="matrix(0.9998 -0.0191 0.0191 0.9998 -30.6985 41.9122)" style="fill:#FFFFFF;" cx="2174.156" cy="1624.655" rx="22.427" ry="26.311"/>
						</g>
					</g>
				</g>
				<g>
					<g>
						<g>
							
								<ellipse transform="matrix(0.0191 -0.9998 0.9998 0.0191 -119.1167 3017.1799)" style="fill:#512717;" cx="1478.195" cy="1569.3" rx="157" ry="133.822"/>
						</g>
					</g>
					<g>
						<g>
							
								<ellipse transform="matrix(0.0191 -0.9998 0.9998 0.0191 -51.1204 3034.9255)" style="fill:#FFFFFF;" cx="1521.24" cy="1543.517" rx="58.38" ry="49.761"/>
						</g>
					</g>
					<g style="opacity:0.4;">
						<g>
							
								<ellipse transform="matrix(0.0191 -0.9998 0.9998 0.0191 -203.6411 3034.3835)" style="fill:#FFFFFF;" cx="1444.68" cy="1620.979" rx="26.311" ry="22.427"/>
						</g>
					</g>
				</g>
				<g>
					<g>
						<g>
							<g>
								<path style="fill:#FFA4A4;" d="M1902.378,1913.399c-11.559,74.133,9.856,193.886-124.907,191.895
									c-122.223-1.805-117.192-131.45-87.634-197.407C1760.062,1848.566,1831.161,1875.172,1902.378,1913.399z"/>
							</g>
						</g>
						<g>
							<g>
								<path style="fill:#EF7878;" d="M1770.888,2049.861c107.317,1.586,115.589-74.024,120.346-142.329
									c3.714,1.92,7.429,3.873,11.144,5.867c-11.559,74.133,9.856,193.886-124.907,191.894
									c-83.761-1.237-107.746-62.514-105.04-122.188C1684.448,2020.244,1713.765,2049.017,1770.888,2049.861z"/>
							</g>
						</g>
						<g>
							<g>
								<path style="fill:#512717;" d="M1780.807,2128.801c-1.219,0-2.441-0.01-3.682-0.029
									c-60.624-0.894-91.512-29.629-106.749-53.574c-32.744-51.46-23.958-127.786-1.939-176.924l42.799,19.224
									c-17.144,38.259-23.426,97.69-1.295,132.471c13.33,20.952,35.534,31.372,67.876,31.851
									c84.12,1.27,91.607-47.285,97.021-126.553c1.095-16.016,2.129-31.145,4.365-45.488l46.35,7.241
									c-1.924,12.334-2.89,26.479-3.914,41.453C1916.995,2026.428,1909.994,2128.801,1780.807,2128.801z"/>
							</g>
						</g>
						<g>
							<g>
								<path style="fill:#512717;" d="M1818.792,1879.9c-18.051,35.886-30.052,74.654-37.804,114.37
									c-3.95-20.359-6.612-41.269-7.869-62.451c-1.202-21.843-1.527-43.104,0.659-65.137
									C1773.778,1866.682,1818.792,1879.9,1818.792,1879.9L1818.792,1879.9z"/>
							</g>
						</g>
					</g>
					<g>
						<g>
							<g>
								<g>
									<path style="fill:#FFF8E1;" d="M2060.611,1842.971c-57.362,90.045-153.731,92.801-264.326,30.321
										c-39.006,20.214-190.443,88.207-232.203-42.266C1577.136,1643.5,2037.87,1643.5,2060.611,1842.971z"/>
								</g>
							</g>
							<g>
								<g>
									<path style="fill:#F4DAB0;" d="M1571.17,1820.92c85.541,52.189,227.683-32.871,227.683-32.871
										c51.786,28.05,132.553,68.245,252.325,42.621c-43.136,33.266-115.642,72.943-254.892-0.913
										C1759.836,1848.646,1625.779,1921.99,1571.17,1820.92z"/>
								</g>
							</g>
							<g>
								<g>
									<path style="fill:#512717;" d="M2060.611,1842.972c-9.641,51.609-62.354,85.025-112.128,91.403
										c-57.24,7.236-114.978-12.573-163.725-40.632c0,0,22.309,0.403,22.309,0.403c-21.589,11.529-44.153,20.421-67.974,26.646
										c-36.606,9.51-76.654,12.921-112.985-0.837c-36.501-13.194-65.981-49.108-62.026-88.929
										c14.959,17.087,27.81,33.524,45.91,45.225c53.324,33.264,135.51-3.296,186.204-29.574
										c24.402,13.096,49.676,26.177,75.165,35.448c41.331,15.374,88.753,21.526,129.571,0.986
										C2022.421,1872.108,2040.497,1856.846,2060.611,1842.972L2060.611,1842.972z"/>
								</g>
							</g>
							<g>
								<g>
									<path style="fill:#512717;" d="M1821.401,1792.002c-14.223,20.512-19.605,58.706-1.84,78.401
										c0.001,0-46.552,5.776-46.552,5.776c6.54-15.02,7.86-29.978,7.237-45.852c-0.534-15.634-1.494-30.436-5.084-46.233
										C1775.161,1784.095,1821.401,1792.002,1821.401,1792.002L1821.401,1792.002z"/>
								</g>
							</g>
						</g>
						<g>
							<g>
								<g>
									<path style="fill:#512717;" d="M1793.774,1814.488c38.551,0,115.969-45.105,108.037-92.434
										c-8.331-49.707-191.436-47.461-205.366,0.715C1685.975,1758.98,1751.416,1814.488,1793.774,1814.488z"/>
								</g>
							</g>
							<g style="opacity:0.4;">
								<g>
									<path style="fill:#FFFFFF;" d="M1786.84,1741.61c18.059,1.564,52.057-11.77,51.097-25.878
										c-0.96-14.108-97.331-11.713-97.331,0.339S1770.319,1740.179,1786.84,1741.61z"/>
								</g>
							</g>
						</g>
					</g>
				</g>
			</g>
			<g>
				<g>
					<g>
						<path style="fill:#FFF8E1;" d="M2531.95,3308.486c4.895-38.59-74.647-139.591-212.317-146.398
							c-128.002-6.329-158.32,91.729-150.519,132.31c6.716,34.937,26.31,64.317,150.519,67.992S2528.867,3332.792,2531.95,3308.486z
							"/>
					</g>
				</g>
				<g>
					<g>
						<path style="fill:#F4DAB0;" d="M2292.558,3291.182c111.541,3.3,191.439-23.193,208.818-46.235
							c21.735,24.474,32.462,48.651,30.574,63.538c-3.083,24.306-88.108,57.58-212.317,53.904
							c-124.208-3.675-143.802-33.055-150.519-67.992c-1.47-7.648-1.582-17.343,0.055-27.991
							C2189.813,3279.94,2226.292,3289.22,2292.558,3291.182z"/>
					</g>
				</g>
				<g>
					<g>
						<path style="fill:#512717;" d="M2337.224,3386.13c-6.109,0-12.201-0.088-18.283-0.269
							c-112.997-3.345-161.461-27.744-172.857-87.026c-5.453-28.359,2.739-72.764,33.332-108.037
							c22.446-25.874,65.25-55.864,141.374-52.163c79.916,3.95,155.547,39.663,202.319,95.527
							c23.131,27.627,34.834,55.796,32.11,77.28l0,0C2549.134,3359.431,2442.682,3386.13,2337.224,3386.13z M2308.218,3185.281
							c-40.553,0-72.695,12.456-93.383,36.309c-21.368,24.639-25.257,55.01-22.689,68.369c3.478,18.091,8.733,45.425,128.18,48.96
							c108.734,3.252,176.113-22.998,188.311-35.557c-0.732-6.26-6.119-20.684-21.482-39.033
							c-14.432-17.241-69.254-73.872-168.677-78.789C2315.002,3185.368,2311.581,3185.281,2308.218,3185.281z M2509.81,3301.96
							L2509.81,3301.96L2509.81,3301.96z"/>
					</g>
				</g>
				<g>
					<g>
						<path style="fill:#512717;" d="M2273.285,3253.97c-3.188,31.225-5.589,69.445,13.305,95.603c0.001,0-43.489,17.6-43.489,17.6
							C2235.204,3326,2252.91,3287.859,2273.285,3253.97L2273.285,3253.97z"/>
					</g>
				</g>
				<g>
					<g>
						<path style="fill:#512717;" d="M2360.934,3262.232c-0.694,31.817,2.933,65.813,21.81,91.389
							c0.001,0-43.62,17.273-43.62,17.273C2332.413,3330.762,2343.589,3296.203,2360.934,3262.232L2360.934,3262.232z"/>
					</g>
				</g>
			</g>
			<g>
				<g>
					<g>
						<path style="fill:#FFF8E1;" d="M1459.352,3205.578c-85.661-5.513-144.4,52.066-141.953,119.447
							c2.468,67.948,84.332,71.541,125.432,67.38c81.684-8.269,124.212-39.18,107.688-103.52
							C1533.996,3224.545,1497.82,3208.054,1459.352,3205.578z"/>
					</g>
				</g>
				<g>
					<g>
						<path style="fill:#F4DAB0;" d="M1426.311,3316.188c62.94-6.372,102.597-26.207,109.939-64.4
							c5.647,10.131,10.48,22.342,14.269,37.097c16.523,64.34-26.004,95.251-107.688,103.52
							c-41.1,4.161-122.964,0.567-125.432-67.38c-0.392-10.793,0.804-21.329,3.411-31.401
							C1348.218,3318.168,1397.361,3319.118,1426.311,3316.188z"/>
					</g>
				</g>
				<g>
					<g>
						<path style="fill:#512717;" d="M1419.443,3417.053c-29.152,0-69.544-5.029-96.938-28.931
							c-17.758-15.493-27.63-37.017-28.545-62.241c-1.383-38.066,13.093-73.862,40.763-100.801
							c31.718-30.884,76.482-46.147,126.134-42.935c59.163,3.809,95.921,36.812,112.38,100.894
							c8.187,31.88,4.604,59.141-10.65,81.025c-20.09,28.823-58.49,45.737-117.396,51.699
							C1438.76,3416.418,1429.81,3417.053,1419.443,3417.053z M1448.064,3228.694c-32.198,0-60.555,10.503-80.635,30.054
							c-18.042,17.563-27.484,40.801-26.591,65.425c0.454,12.437,4.421,21.509,12.488,28.545
							c19.041,16.611,57.502,19.307,87.144,16.328c43.253-4.38,72.178-15.396,83.647-31.851c7.175-10.298,8.382-24.189,3.687-42.466
							c-14.049-54.702-41.926-63.916-69.956-65.718C1454.551,3228.801,1451.288,3228.694,1448.064,3228.694z"/>
					</g>
				</g>
				<g>
					<g>
						<path style="fill:#512717;" d="M1393.882,3287.046c-1.241,26.143,3.389,54.211,17.693,75.945
							c4.258,6.599,9.74,11.755,15.056,16.125l-37.433,28.303C1369.468,3369.227,1375.314,3323.863,1393.882,3287.046
							L1393.882,3287.046z"/>
					</g>
				</g>
			</g>
			<g>
				<g>
					<g>
						<path style="fill:#FFB32C;" d="M2319.633,2799.461c-11.013,237.055-35.315,482.202-152.354,563.235
							c-63.27,43.806-136.921,45.641-194.476,43.084c-121.858-5.413-132.03-63.528-130.216-99.724
							c2.686-53.601,40.109-90.431,81.476-105.991c0,0,33.5-155.74,35.794-352.826L2319.633,2799.461z"/>
					</g>
				</g>
				<g>
					<g>
						<path style="fill:#F28D14;" d="M2167.279,3362.695c-63.27,43.807-136.921,45.641-194.476,43.084
							c-121.858-5.412-132.03-63.527-130.216-99.724c0.063-1.266,0.239-2.475,0.341-3.722
							c38.758,23.12,99.779,38.644,182.093,24.988c154.284-25.597,76.862-110.935,76.862-110.935
							c116.882,15.908,140.044-193.96,217.751-416.926C2308.62,3036.515,2284.319,3281.662,2167.279,3362.695z"/>
					</g>
				</g>
				<g>
					<g>
						<path style="fill:#FFF8E1;" d="M1959.857,2847.239c19.643-46.735,77.888-32.147,135.829-18.038h0.001
							c-66.537,38.252-136.582,53.379-136.582,53.379C1959.46,2870.966,1959.718,2859.183,1959.857,2847.239z"/>
					</g>
				</g>
				<g>
					<g>
						<path style="fill:#FFF8E1;" d="M1842.587,3306.056c2.686-53.601,40.109-90.43,81.476-105.991c0,0,3.153-14.684,7.583-40.647
							c0.001,0,0.002-0.001,0.002-0.001c64.303-64.091,249.056-16.94,333.173,49.358c-22.049,68.674-53.097,123.148-97.542,153.92
							c-63.27,43.807-136.921,45.641-194.476,43.084C1850.945,3400.368,1840.773,3342.253,1842.587,3306.056z"/>
					</g>
				</g>
				<g>
					<g>
						<path style="fill:#F4DAB0;" d="M1842.587,3306.056c0.063-1.265,0.239-2.475,0.341-3.722
							c38.758,23.12,99.779,38.644,182.093,24.988c154.284-25.597,76.862-110.935,76.862-110.935
							c38.38,5.224,66.655-13.898,90.073-49.834c27.904,12.245,53.163,26.694,72.865,42.222
							c-22.049,68.674-53.097,123.148-97.542,153.92c-63.27,43.807-136.921,45.641-194.476,43.084
							C1850.945,3400.368,1840.773,3342.253,1842.587,3306.056z"/>
					</g>
				</g>
				<g>
					<g>
						<path style="fill:#512717;" d="M2319.633,2799.461c8.545,47.281,8.512,94.747,5.429,142.329
							c-9.046,118.992-19.34,242.178-73.292,351.204c-56.525,115.554-171.6,144.403-291.105,135.421
							c-40.104-2.748-83.304-11.54-113.004-40.936c-43.108-43.104-35.052-117.032,0.979-161.641
							c17.783-22.122,41.41-38.125,67.151-47.744c0.077-0.076-14.666,17.046-14.657,17.029
							c11.174-56.63,21.574-115.059,30.419-172.505c9.252-57.091,14.786-118.844,28.303-175.378
							c6.106,29.67,8.774,59.58,9.493,89.443c1.034,90.103-4.815,179.612-22.356,268.325c-0.001,0-2.495,11.928-2.495,11.928
							l-12.186,5.11c-18.253,7.052-34.703,18.862-46.344,33.63c-21.17,26.389-29.641,72.043-4.597,98.054
							c21.521,20.334,54.141,25.271,82.797,27.859c85.017,7.421,182.15-4.78,234.346-80.039
							c67.612-98.52,84.55-244.564,98.087-362.142C2301.426,2892.276,2306.747,2845.552,2319.633,2799.461L2319.633,2799.461z"/>
					</g>
				</g>
				<g>
					<g>
						<path style="fill:#512717;" d="M2081.022,3208.794c-51.431-1.776-105.247,1.188-154.158,14.582c0,0-5.6-46.625-5.6-46.625
							C1976.967,3178.468,2029.342,3191.216,2081.022,3208.794L2081.022,3208.794z"/>
					</g>
				</g>
				<g>
					<g>
						<path style="fill:#512717;" d="M2061.427,3269.896c-9.657,31.688-9.313,66.591,3.144,97.08
							c3.613,9.577,9.116,18.174,14.576,26.245l-42.533,19.807C2022.124,3364.674,2031.561,3310.206,2061.427,3269.896
							L2061.427,3269.896z"/>
					</g>
				</g>
				<g>
					<g>
						<path style="fill:#512717;" d="M1939.92,3262.232c-7.949,22.672-10.835,47.518-7.598,70.862
							c2.743,21.716,12.53,41.367,27.146,56.633c0,0-39.095,25.955-39.095,25.955
							C1895.437,3365.741,1906.866,3304.972,1939.92,3262.232L1939.92,3262.232z"/>
					</g>
				</g>
			</g>
			<g>
				<g>
					<g>
						<path style="fill:#FFB32C;" d="M1797.407,2853.671c-10.096,83.306,2.753,335.981-5.201,416.224s-36.1,136.623-176.829,136.623
							c-112.154,0-156.388-16.128-165.79-71.363c-7.797-45.803,16.189-82.105,38.522-98.644c0,0-34.876-402.596-39.261-521.583
							L1797.407,2853.671z"/>
					</g>
				</g>
				<g>
					<g>
						<path style="fill:#F28D14;" d="M1449.587,3335.156c-1.725-10.135-1.823-19.771-0.798-28.864
							c21.954,15.077,68.383,32.306,164.141,26.176c164.123-10.504,95.451-95.956,95.451-95.956
							c67.917,0,28.451-175.788,86.574-351.701c0.004-0.012,0.01-0.025,0.014-0.038c-5.203,102.863,4.366,313.204-2.762,385.122
							c-7.954,80.243-36.1,136.623-176.829,136.623C1503.224,3406.518,1458.989,3390.39,1449.587,3335.156z"/>
					</g>
				</g>
				<g>
					<g>
						<path style="fill:#FFF8E1;" d="M1571.326,2763.68c85.601,10.15,162.874,36.442,226.082,89.991
							c-0.966,7.974-1.719,17.524-2.304,28.302C1643.217,2843.87,1571.326,2763.68,1571.326,2763.68L1571.326,2763.68z"/>
					</g>
				</g>
				<g>
					<g>
						<path style="fill:#FFF8E1;" d="M1488.109,3236.512c0,0-1.725-19.917-4.453-52.156
							c85.473-79.091,311.202-10.049,311.298-10.019c0.019,39.872-0.609,73.979-2.748,95.559
							c-7.954,80.243-36.1,136.623-176.829,136.623c-112.154,0-156.388-16.128-165.79-71.362
							C1441.791,3289.352,1465.776,3253.051,1488.109,3236.512z"/>
					</g>
				</g>
				<g>
					<g>
						<path style="fill:#F4DAB0;" d="M1449.587,3335.156c-1.725-10.135-1.823-19.771-0.798-28.864
							c21.954,15.077,68.383,32.306,164.141,26.176c164.123-10.504,70.364-103.804,70.364-103.804
							c44.666,3.56,62.244-20.374,68.165-65.453c26.437,5.914,43.469,11.118,43.495,11.126c0.019,39.872-0.609,73.979-2.748,95.559
							c-7.954,80.243-36.1,136.623-176.829,136.623C1503.224,3406.518,1458.989,3390.39,1449.587,3335.156z"/>
					</g>
				</g>
				<g>
					<g>
						<path style="fill:#512717;" d="M1797.407,2853.67c11.522,82.066,10.293,162.703,13.662,244.985
							c1.593,51.218,3.509,102.888,1.974,154.529c-3.142,135.84-73.908,175.336-200.944,176.46
							c-52.144-0.827-124.801,1.008-163.093-40.766c-43.306-50.634-26.911-133.221,25.155-171.243c0,0-9.418,20.905-9.418,20.905
							c-8.033-86.909-13.185-174.005-17.194-261.181c-2.722-87.411-10.988-175.324,1.299-262.429
							c10.243,42.894,16.681,85.975,21.938,129.526c14.299,124.854,30.813,265.512,40.693,390.027c0,0,0.978,12.441,0.978,12.441
							l-10.397,8.464c-33.811,24.652-46.005,94.256-0.783,113.292c16.108,7.076,34.537,9.767,52.044,11.706
							c37.835,3.383,78.39,4.78,116.383-0.346c34.894-4.636,68.614-16.944,85.419-48.678c17.23-31.478,18.73-74.044,20.338-110.29
							c2.689-81.23,2.157-163.313,3.891-244.863C1780.846,2934.967,1783.733,2893.158,1797.407,2853.67L1797.407,2853.67z"/>
					</g>
				</g>
				<g>
					<g>
						<path style="fill:#512717;" d="M1652.395,3223.956c-40.823,1.804-82.595,6.612-121.401,18.923
							c-12.337,4.114-24.133,9.085-33.549,15.174l-18.671-43.081C1536.969,3200.083,1595.484,3211.194,1652.395,3223.956
							L1652.395,3223.956z"/>
					</g>
				</g>
				<g>
					<g>
						<path style="fill:#512717;" d="M1541.341,3279.083c-10.878,27.964-8.217,62.285,3.838,88.899
							c3.964,8.054,9.133,14.621,14.798,18.936l-37.273,28.513C1499.658,3374.481,1511.666,3312.731,1541.341,3279.083
							L1541.341,3279.083z"/>
					</g>
				</g>
				<g>
					<g>
						<path style="fill:#512717;" d="M1639.306,3279.083c-4.252,31.04-2.549,64.551,10.122,93.035
							c3.97,8.75,9.328,16.199,14.931,22.549l-40.448,23.784C1605.704,3372.189,1617.012,3321.168,1639.306,3279.083
							L1639.306,3279.083z"/>
					</g>
				</g>
			</g>
		</g>
	</g>
</g>
</svg>
