<?xml version="1.0" encoding="utf-8"?>
<!-- Generator: Adobe Illustrator 27.5.0, SVG Export Plug-In . SVG Version: 6.00 Build 0)  -->
<svg version="1.1" id="Layer_1" xmlns="http://www.w3.org/2000/svg" xmlns:xlink="http://www.w3.org/1999/xlink" x="0px" y="0px"
	 viewBox="0 0 331.499 321.439" style="enable-background:new 0 0 331.499 321.439;" xml:space="preserve">
<g>
	<g>
		<g>
			<path style="fill:#5E2C00;" d="M168.086,264.341c-0.54-1.711-1.554-3.283-2.96-4.329c-2.163-1.617-2.897-2.983-3.171-5.907
				c-0.562-6.104-0.018-12.676,0.579-18.998c0.157-0.176,0.283-0.351,0.309-0.431c0.913-2.834,1.187-7.283-1.671-9.135
				c-2.545-1.648-6.423-0.766-8.747,0.752c-2.311,1.503-5.092,4.17-5.904,6.899c-0.139,0.473-0.201,0.944-0.227,1.413
				c-0.383,0.247-0.814,0.892-0.674,1.167c4.19,8.425,4.077,17.419,5.03,26.493c-4.634,2.63-25.068,10.162-27.597,11.192
				c-4.373,1.778-8.237,4.32-12.158,6.913c-1.305,0.866-2.702,1.655-3.624,2.831c0.744,0.658,1.949,0.661,3.242,0.393
				c2.154,0.484,5.222-0.369,6.945-0.352c1.997,0.016,3.855,0.169,5.582,1.272c0.47,0.304,1.461,3.029,2.119,3.281
				c0.062,0.025,0.122,0.035,0.188,0.06c0.117,0.096,0.291,0.144,0.496,0.157c1.771,0.458,3.377,0.045,5.308,0.105
				c3.347,0.114,6.385,1.671,9.091,3.497c3.32,2.242,5.1,5.822,7.993,8.43c0.01,0.373,0.053,0.738,0.211,1.013
				c0.212,0.37,0.682,0.289,1.126,0.128c0.597-0.72,10.578-10.689,14.481-20.115c0.817-1.962,1.811-3.904,2.545-5.892
				c0.923-2.476,1.966-5.47,1.928-8.143C168.512,266.139,168.359,265.222,168.086,264.341z"/>
			<path style="fill:#F9B845;" d="M121.221,281.515c-2.681-0.551-5.248,0.246-7.811,0.726c3.238-1.684,6.467-3.335,9.9-4.599
				c2.458-0.904,4.887-1.829,7.327-2.794c1.376-0.543,8.621-3.506,10.911-2.791c-2.181,2.241-5.484,4.066-7.808,5.952
				c-1.245,1.015-4.585,3.15-6.875,5.288c-0.283,0.353-0.57,0.707-0.81,1.088c-0.156,0.252-0.335,0.58-0.496,0.933
				c-0.043-0.481-0.035-0.981-0.339-1.362C123.972,282.387,123.126,281.903,121.221,281.515z"/>
			<path style="fill:#F9B845;" d="M142.63,291.374c-3.315-2.594-7.919-4.988-12.279-4.507c-0.771,0.339-1.476,0.443-2.137,0.405
				c-0.082-0.041-0.169-0.084-0.252-0.123c0.152-0.1,0.304-0.19,0.447-0.298c3.329-2.55,6.693-5.107,10.135-7.498
				c3.26-2.267,6.719-4.225,10.279-5.989c1.175-0.583,5.326-2.969,6.404-1.301c1.02,1.572-0.225,4.681-0.678,6.365
				c-0.971,3.632-1.988,7.252-3.146,10.827c-0.887,2.743-1.658,5.822-2.876,8.599C146.511,295.754,144.972,293.202,142.63,291.374z"
				/>
			<path style="fill:#F9B845;" d="M165.514,274.117c-0.317,0.593-0.604,1.188-0.893,1.786c-1.249,2.626-2.323,5.323-3.781,7.851
				c-1.649,2.867-3.285,5.745-5.187,8.452c-0.931,1.332-1.923,2.613-3.007,3.821c-0.561,0.624-1.144,1.23-1.762,1.801
				c-0.27,0.248-0.961,0.659-1.327,1.012c-0.02-0.022-0.044-0.041-0.074-0.062c1.622-3.263,2.59-6.967,3.612-10.36
				c1.589-5.273,5.035-12.288,3.691-17.855c-0.797-3.276-11.285,3.137-12.355,3.746c-2.494,1.42-4.778,2.936-7.128,4.576
				c-1.602,1.125-3.142,2.368-4.708,3.544c-0.953,0.692-1.898,1.393-2.837,2.101c-0.983,1.049-2.189,1.592-3.599,1.67
				c2.938-2.554,5.792-5.217,8.821-7.681c2.632-2.143,6.178-4.013,8.236-6.739c0.227-0.294,0.626-0.883,0.305-1.244
				c-2.098-2.354-11.467,2.795-14.029,3.82c-3.481,1.379-7.115,2.498-10.482,4.129c-1.563,0.753-3.051,1.646-4.604,2.407
				c-0.487,0.238-2.455,1.011-3.968,1.649c-0.092,0-0.188,0-0.282-0.003c7.966-5.678,17.692-9.055,26.795-12.251
				c4.5-1.58,10.443-2.844,13.873-6.475c0.013,0.106,0.03,0.216,0.044,0.322c0.905-1.235,1.51-2.622,1.928-4.084
				c-0.139-4.353-0.783-8.727-1.393-12.98c-0.631-4.368-1.245-7.41-3.429-10.75c-0.039-0.1-0.065-0.204-0.105-0.303
				c-1.505-3.893,3.394-8.415,6.876-9.31c2.101-0.545,5.186,0.036,6.4,1.93c0.552,0.861,0.718,1.968,0.735,3.103
				c-1.5,6.196-2.102,12.79-2.123,19.111c-0.018,3.233,0.013,5.955,0.988,8.979c3.742,1.146,6.605,4.987,6.422,8.858
				C167.072,270.605,166.393,272.433,165.514,274.117z"/>
			<path style="fill:#F9B845;" d="M147.938,299.752c0.548-1.685,1.062-3.332,1.702-4.663c1.796-3.733,3.611-7.512,4.759-11.501
				c0.888-3.081,2.155-6.66,2.034-9.902c-0.314-7.848-12.198,0.154-15.201,2.424c-4.886,3.693-9.138,8.12-13.776,12.112
				c1.188,0.033,2.363-0.145,3.693-0.104c3.347,0.114,6.385,1.671,9.091,3.497C143.439,293.776,145.219,297.173,147.938,299.752z"/>
			<path style="fill:#F9B845;" d="M124.959,287.636c3.481-2.255,6.622-5.094,9.634-7.894c1.506-1.399,2.964-2.881,4.509-4.231
				c0.743-0.648,1.509-1.278,2.214-1.972c0.314-0.314,2.903-2.868,0.4-2.74c-11.618,0.596-23.176,6.768-33.249,12.084
				c-0.291,0.157-0.565,0.024-0.718-0.19c-0.161,0.165-0.336,0.325-0.479,0.508c0.744,0.658,1.949,0.661,3.242,0.393
				c2.154,0.484,5.222-0.369,6.945-0.352c1.997,0.016,3.855,0.169,5.582,1.272C123.466,284.787,124.314,287.018,124.959,287.636z"/>
			<path style="fill:#F9B845;" d="M168.086,264.341c-0.54-1.711-1.554-3.283-2.96-4.329c-2.163-1.617-2.897-2.983-3.171-5.907
				c-0.562-6.104-0.018-12.676,0.579-18.998c0.157-0.176,0.283-0.351,0.309-0.431c0.913-2.834,1.187-7.283-1.671-9.135
				c-2.545-1.648-6.423-0.766-8.747,0.752c-2.311,1.503-5.092,4.17-5.904,6.899c-0.139,0.473-0.201,0.944-0.227,1.413
				c-0.383,0.247-0.814,0.892-0.674,1.167c1.371,2.755,2.276,5.573,2.915,8.437c0.156-0.103,0.304-0.218,0.474-0.302
				c1.946-0.97,4.273-0.885,5.627,1.05c2.523,3.614,2.284,8.807,2.284,13.004c0,0.663-0.408,3.499,0.436,3.715
				c0.753,0.194,1.519,0.392,2.224,0.743c1.214,0.601,2.372,1.364,3.186,2.48c5.09,7.032-1.236,17.101-4.543,23.49
				c-0.992,1.929-1.993,4.253-3.125,6.578c3.168-3.833,6.902-8.934,8.956-13.897c0.817-1.962,1.811-3.904,2.545-5.892
				c0.923-2.476,1.966-5.47,1.928-8.143C168.512,266.139,168.359,265.222,168.086,264.341z"/>
		</g>
		<g>
			<path style="fill:#5E2C00;" d="M221.37,263.045c-1.015-1.828-2.542-3.395-4.395-4.265c-2.854-1.338-4.016-2.729-5.008-6.012
				c-2.067-6.854-2.985-14.496-3.781-21.87c0.134-0.236,0.243-0.466,0.257-0.565c0.378-3.453-0.349-8.604-4.047-10.053
				c-3.303-1.292-7.528,0.621-9.835,2.9c-2.293,2.263-4.852,5.959-5.143,9.273c-0.053,0.57-0.01,1.125,0.073,1.669
				c-0.378,0.37-0.722,1.207-0.5,1.495c6.766,8.657,8.737,18.97,11.954,29.128c-4.696,4.093-26.301,17.486-28.954,19.255
				c-4.587,3.058-8.415,6.865-12.298,10.748c-1.288,1.3-2.702,2.528-3.481,4.087c1.004,0.582,2.384,0.302,3.802-0.31
				c2.577,0.051,5.883-1.641,7.864-2.027c2.28-0.445,4.447-0.703,6.679,0.153c0.614,0.233,2.384,3.116,3.189,3.255
				c0.079,0.017,0.157,0.017,0.231,0.026c0.156,0.085,0.366,0.094,0.604,0.064c2.132,0.113,3.873-0.738,6.097-1.119
				c3.855-0.654,7.689,0.419,11.214,1.874c4.325,1.788,7.201,5.47,11.118,7.773c0.096,0.427,0.23,0.833,0.479,1.11
				c0.331,0.371,0.844,0.172,1.318-0.116c0.51-0.963,9.6-14.7,11.867-26.393c0.47-2.439,1.153-4.892,1.532-7.339
				c0.475-3.047,0.97-6.715,0.296-9.765C222.279,265,221.887,263.986,221.37,263.045z"/>
			<path style="fill:#F9B845;" d="M171.776,293.643c-3.194-0.002-5.945,1.508-8.764,2.662c3.311-2.689,6.619-5.331,10.247-7.578
				c2.603-1.61,5.161-3.236,7.728-4.909c1.445-0.944,9.034-6.024,11.824-5.744c-1.963,3.074-5.318,5.934-7.528,8.636
				c-1.193,1.451-4.517,4.672-6.631,7.651c-0.24,0.473-0.483,0.946-0.675,1.44c-0.122,0.32-0.249,0.74-0.345,1.18
				c-0.169-0.541-0.269-1.113-0.713-1.478C175.131,293.998,174.043,293.646,171.776,293.643z"/>
			<path style="fill:#F9B845;" d="M198.573,299.921c-4.4-2.193-10.222-3.858-15.101-2.286c-0.804,0.567-1.579,0.853-2.345,0.963
				c-0.109-0.028-0.218-0.057-0.326-0.085c0.152-0.146,0.304-0.284,0.444-0.441c3.215-3.696,6.461-7.404,9.842-10.948
				c3.199-3.35,6.697-6.403,10.356-9.255c1.21-0.94,5.405-4.636,7.024-2.986c1.536,1.564,0.831,5.409,0.713,7.442
				c-0.262,4.384-0.583,8.761-1.07,13.123c-0.371,3.34-0.532,7.044-1.284,10.505C204.038,304.021,201.68,301.465,198.573,299.921z"
				/>
			<path style="fill:#F9B845;" d="M220.712,274.831c-0.217,0.743-0.413,1.5-0.6,2.251c-0.823,3.294-1.42,6.633-2.494,9.864
				c-1.214,3.666-2.415,7.338-3.951,10.882c-0.757,1.738-1.593,3.436-2.554,5.069c-0.492,0.849-1.019,1.678-1.593,2.472
				c-0.247,0.351-0.943,0.983-1.279,1.468c-0.035-0.017-0.066-0.032-0.1-0.051c1.092-4.111,1.335-8.573,1.705-12.691
				c0.583-6.405,2.89-15.239,0.053-21.292c-1.676-3.565-12.175,6.227-13.255,7.176c-2.523,2.206-4.777,4.473-7.083,6.902
				c-1.572,1.661-3.037,3.44-4.557,5.153c-0.931,1.013-1.849,2.036-2.753,3.067c-0.879,1.428-2.133,2.331-3.725,2.753
				c2.758-3.61,5.408-7.323,8.289-10.852c2.511-3.065,6.135-6.037,7.85-9.633c0.188-0.393,0.509-1.16,0.061-1.497
				c-2.953-2.204-12.462,5.877-15.168,7.649c-3.651,2.394-7.55,4.522-11.018,7.175c-1.61,1.227-3.103,2.596-4.704,3.829
				c-0.501,0.389-2.567,1.73-4.151,2.814c-0.109,0.022-0.214,0.043-0.327,0.063c7.789-8.356,18.124-14.494,27.792-20.28
				c4.773-2.856,11.274-5.69,14.355-10.649c0.035,0.122,0.084,0.241,0.127,0.358c0.74-1.623,1.114-3.351,1.245-5.121
				c-1.179-4.948-2.929-9.8-4.63-14.521c-1.735-4.849-3.155-8.189-6.436-11.496c-0.07-0.105-0.117-0.22-0.183-0.325
				c-2.637-4.096,1.91-10.418,5.679-12.255c2.28-1.111,5.948-1.17,7.78,0.711c0.831,0.856,1.28,2.083,1.567,3.382
				c-0.278,7.437,0.579,15.117,2.037,22.357c0.74,3.702,1.405,6.812,3.233,10.039c4.542,0.435,8.721,4.162,9.417,8.626
				C221.678,270.444,221.326,272.696,220.712,274.831z"/>
			<path style="fill:#F9B845;" d="M206.6,308.26c0.239-2.054,0.435-4.058,0.857-5.729c1.184-4.694,2.371-9.437,2.759-14.271
				c0.291-3.729,0.909-8.12,0.004-11.802c-2.185-8.905-13.912,3.028-16.819,6.326c-4.729,5.368-8.555,11.428-12.923,17.075
				c1.362-0.238,2.667-0.72,4.199-0.981c3.855-0.654,7.689,0.419,11.214,1.874C200.061,302.478,202.888,305.945,206.6,308.26z"/>
			<path style="fill:#F9B845;" d="M177.481,299.78c3.459-3.4,6.388-7.38,9.181-11.286c1.393-1.953,2.707-3.987,4.161-5.897
				c0.701-0.916,1.436-1.814,2.075-2.771c0.287-0.435,2.65-3.96-0.188-3.23c-13.142,3.398-24.92,13.161-35.198,21.597
				c-0.304,0.243-0.648,0.156-0.87-0.052c-0.144,0.229-0.305,0.452-0.431,0.694c1.004,0.582,2.384,0.302,3.802-0.31
				c2.577,0.051,5.883-1.641,7.864-2.027c2.28-0.445,4.447-0.703,6.679,0.153C175.114,296.863,176.602,299.219,177.481,299.78z"/>
			<path style="fill:#F9B845;" d="M221.37,263.045c-1.015-1.828-2.542-3.395-4.395-4.265c-2.854-1.338-4.016-2.729-5.008-6.012
				c-2.067-6.854-2.985-14.496-3.781-21.87c0.134-0.236,0.243-0.466,0.257-0.565c0.378-3.453-0.349-8.604-4.047-10.053
				c-3.303-1.292-7.528,0.621-9.835,2.9c-2.293,2.263-4.852,5.959-5.143,9.273c-0.053,0.57-0.01,1.125,0.073,1.669
				c-0.378,0.37-0.722,1.207-0.5,1.495c2.21,2.832,3.912,5.841,5.309,8.965c0.156-0.153,0.3-0.317,0.474-0.455
				c1.993-1.563,4.683-2.012,6.679-0.111c3.729,3.541,4.674,9.54,5.657,14.34c0.152,0.757,0.344,4.096,1.362,4.148
				c0.909,0.044,1.832,0.091,2.719,0.326c1.528,0.407,3.038,1.008,4.221,2.096c7.471,6.854,2.585,19.849,0.296,27.932
				c-0.688,2.439-1.284,5.332-2.038,8.258c2.725-5.129,5.809-11.837,7.002-17.989c0.47-2.439,1.153-4.892,1.532-7.339
				c0.475-3.047,0.97-6.715,0.296-9.765C222.279,265,221.887,263.986,221.37,263.045z"/>
		</g>
		<path style="fill:#5E2C00;" d="M306.979,147.131c-3.276-0.705-6.811,3.046-9.06,4.885c-0.07,0.057-0.144,0.12-0.208,0.178
			c1.327-3.798,2.297-7.708,2.784-11.828c0.462-3.956-0.556-11.044-5.696-6.304c-0.822,0.758-1.619,1.586-2.428,2.393
			c-0.004-0.255-0.057-0.486-0.162-0.688c-1.226-2.269-5.821,1.262-10.099,5.305c3.063-4.423,5.954-8.927,8.412-13.934
			c1.879-3.823,0.517-9.813-4.413-5.933c-8.086,6.364-15.896,13.768-22.28,22.175c0.913-2.668,1.602-5.389,1.676-8.227
			c0.126-4.926-2.863-3.791-5.901-1.264c-4.821,4.01-8.349,10.824-11.457,16.161c-2.615,4.484-5.547,9.367-6.945,14.502
			c-0.087,0.045-0.174,0.111-0.27,0.208c-1.576-1.377-3.172-2.736-4.804-4.063c-2.119-1.48-4.23-2.981-6.279-4.545
			c-0.653-0.428-1.284-0.874-1.941-1.287c0.191,0.086,0.392,0.157,0.583,0.239c-6.092-4.682-12.059-9.529-18.342-13.973
			c-11.378-7.066-22.723-14.193-35.203-19.137c-11.165-4.424-23.419-7.866-35.215-4.43c-0.802,0.232-1.794,0.563-2.864,0.981
			c-2.24-6.693-0.261-13.549,1.375-20.259c1.836-7.507,5.744-13.972,8.489-21.104c2.767-7.185,3.824-15.191,0.619-21.787
			c-0.031-0.118-0.04-0.24-0.075-0.353c0.056,0.021,0.104,0.055,0.157,0.071c0.539,0.216,1.166-0.886,1.284-1.251
			c0.769-2.493-0.274-6.062-1.911-9.097c0.518-0.498,0.996-1.37,0.987-1.68c-0.774-24.191-25.107-38.994-47.156-38.239
			c-11.288,0.389-21.657,6.753-29.081,14.856c-3.72,4.061-9.038,12.923-5.795,18.412c-3.255,0.822-6.167,4.323-8.06,7.963
			c-0.06,0.054-0.13,0.098-0.178,0.162c-2.458,3.503-3.613,7.535-7.728,10.003c-2.598,1.558-5.539,2.776-8.325,3.958
			c-6.388,2.721-12.893,5.207-19.434,7.533c-4.464,1.589-17.032,3.281-17.066,10.122c-0.013,3.283,4.138,3.953,6.523,4.649
			c3.437,1.001,6.962,1.836,10.518,2.452c1.857,0.53,3.702,1.123,5.575,1.551c4.921,1.136,10.012,1.692,15.011,2.418
			c9.513,1.375,19.269,2.496,28.894,1.823c7.076-0.494,16.414-0.795,22.397-5.102c0.339-0.242,0.627-0.541,0.884-0.873
			c0.1-0.514,0.148-1.036,0.239-1.552c0.614,2.561,2.167,4.631,5.627,5.642c1.332,0.387,2.693,0.553,4.055,0.609
			c1.114,0.604,1.837-0.294,2.198,4.077c0.144,1.634-0.126,3.405-0.483,5.154c0.118,7.744-4.338,15.294-9.825,21.955
			c-3.738,5.153-7.791,10.18-11.167,15.557c-2.041,2.585-3.964,5.234-5.5,8.108c-3.864,7.243-5.788,15.928-5.566,24.111
			c0.191,7.209,3.325,13.558,7.823,18.866c0.598,1.842,1.15,3.664,1.58,4.982c1.75,3.273,3.36,6.62,5.461,9.732
			c4.704,6.971,10.387,13.237,16.706,18.782c4.499,3.947,9.208,7.578,14.077,10.971c18.803,11.799,41.835,15.462,63.697,14.876
			c21.623-0.585,42.013-7.934,62.059-15.363c14.961-5.548,28.825-15.773,38.681-28.576c5.139-5.28,9.382-11.314,12.554-18.061
			c4.225-8.988,10.056-19.145,10.89-29.287C307.985,154.171,309.25,147.623,306.979,147.131z"/>
		<path style="fill:#F9B845;" d="M93.693,80.003c-0.117,5.405-5.909,5.86-9.946,6.752c-8.243,1.821-16.88,1.666-25.251,1.128
			c-5.188-0.336-10.366-1.006-15.535-1.737c8.825-0.146,17.641-0.953,26.221-3.117c4.226-1.064,8.52-3.828,12.806-2.498
			c3.643,1.127,7.084,0.751,10.065-1.808c0.305-0.266,0.579-0.538,0.858-0.809c0.287,0.266,0.574,0.53,0.866,0.795
			C93.754,79.138,93.706,79.551,93.693,80.003z"/>
		<path style="fill:#F9B845;" d="M89.385,78.137c-3.454,1.162-6.775-1.157-10.251-1.132c-2.72,0.021-6.118,2.335-8.738,3.225
			c-8.408,2.861-18.698,3.068-27.44,3.27c-9.561,0.216-18.751-0.59-28.071-2.771c-2.498-0.591-12.437-3.368-4.899-6.83
			c4.755-2.189,9.716-3.492,14.699-5.039c7.311-2.273,14.812-5.402,21.618-8.912c2.825-1.455,5.301-2.678,7.537-4.969
			c0.295-0.296,0.553-0.616,0.792-0.951c1.479-3.492,3.768-7.672,6.706-10.276c0.461-0.47,0.948-0.877,1.453-1.238
			c2.019-1.846,4.643-2.793,7.032-0.856c0.231,0.186,0.427,0.394,0.636,0.592c1.453,0.956,2.407,2.535,3.029,4.369
			c0.808,1.604,1.527,3.278,2.471,4.832c0.839,1.384,1.766,2.689,2.732,3.965c2.35,2.517,5.283,3.658,8.398,5.212
			c1.705,0.849,3.386,2.085,4.956,3.16C97.318,67.396,95.321,76.144,89.385,78.137z"/>
		<path style="fill:#F9B845;" d="M7.957,77.843c1.736-2.804,6.763-4.231,9.36-4.945c8.381-2.309,17.119-3.312,25.278-6.425
			c5.273-2.014,9.5-4.484,12.615-9.316c2.175-3.372,4.059-7.001,6.745-10.021C64,44.838,67.415,42.4,70.68,43.751
			c0.834,0.347,1.54,0.842,2.193,1.395c-0.592-1.196-1.371-2.21-2.415-2.897c-0.209-0.198-0.405-0.406-0.636-0.592
			c-2.389-1.937-5.013-0.989-7.032,0.856c-0.505,0.361-0.992,0.769-1.453,1.238c-2.938,2.604-5.227,6.784-6.706,10.276
			c-0.239,0.335-0.497,0.655-0.792,0.951c-2.236,2.291-4.712,3.514-7.537,4.969c-6.805,3.51-14.307,6.639-21.618,8.912
			c-4.983,1.547-9.943,2.85-14.699,5.039C6.761,75.378,6.739,76.731,7.957,77.843z"/>
		<path style="fill:#F9B845;" d="M92.044,63.786c-1.57-1.075-3.251-2.311-4.956-3.16c-3.115-1.554-6.048-2.695-8.398-5.212
			c-0.966-1.275-1.893-2.581-2.732-3.965c-0.601-0.983-1.102-2.015-1.598-3.046c0.097,1.488,0.153,2.991,0.283,4.451
			c0.262,2.847,0.789,6.199,3.617,7.652c1.47,0.756,3.006,1.375,4.5,2.089c2.542,1.221,7.306,3.192,7.954,6.403
			c0.736,3.642-2.967,5.554-6.084,5.343c-6.691-0.454-11.753-6.002-18.423-1.667c-5.662,3.68-11.883,6.497-18.393,8.312
			c-4.035,1.127-8.151,1.947-12.297,2.461c2.463,0.089,4.938,0.104,7.441,0.052c8.742-0.201,19.032-0.408,27.44-3.27
			c2.62-0.89,6.018-3.203,8.738-3.225c3.477-0.025,6.797,2.294,10.251,1.132C95.321,76.144,97.318,67.396,92.044,63.786z"/>
		<path style="fill:#FFFFFF;" d="M303.423,163.607c-4.473,15.815-12.832,30.051-23.7,42.205c-0.093,0.1-0.157,0.204-0.214,0.309
			c-3.755,3.992-7.863,7.651-12.354,10.977c-9.386,6.957-19.524,11.02-30.442,14.911c-19.486,6.942-38.775,12.145-59.653,11.622
			c-21.884-0.539-42.915-6.204-60.977-18.798c-8.477-5.905-16.541-12.196-22.432-20.767c-2.784-4.049-5.43-8.451-7.837-12.962
			c0.626,0.589,1.257,1.179,1.914,1.732c0.553,0.466,1.875-1.181,1.384-1.728c-8.029-8.975-13.076-18.129-11.945-30.489
			c0.94-10.301,5.789-18.214,11.475-25.997c3.077-3.94,6.08-7.962,8.898-12.096c0.435-0.632,0.857-1.271,1.28-1.908
			c1.797-2.723,3.507-5.492,5.082-8.326c3.029-5.458,4.291-11.242,5.344-17.348c0.417-2.407,0.414-4.407-0.343-5.737
			c2.889-0.533,5.651-1.729,8.089-3.355c-3.15,0.737-6.758,0.989-9.956,0.566c-1.498-0.065-3.02-0.253-4.575-0.542
			c-5.817-1.093-5.822-7.472-6.436-12.278c2.228-4.939,0.167-10.056-5.861-13.695c-2.181-1.318-4.439-2.376-6.662-3.612
			c-3.221-1.793-4.325-5.298-5.701-8.424c-1.779-4.057-4.476-8.13-8.798-9.625c-0.205-0.072-0.409-0.116-0.609-0.16
			c-7.001-8.937,8.298-21.932,15.251-25.758c9.412-5.186,19.935-5.302,30.108-2.868c14.743,3.527,28.45,16.116,31.418,31.392
			c-0.618-0.365-1.288-0.678-2.142-0.956c-0.073-0.027-0.16-0.021-0.252,0.007c0.405,1.227,0.67,2.484,0.831,3.763
			c1.82,2.461,3.604,6.175,3.773,9.029c-0.609-0.444-1.218-1.01-1.784-1.635c-0.456-0.764-1.01-1.491-1.605-2.205
			c3.406,8.378,2.65,19.25-1.201,27.162c0.096-0.095,0.186-0.201,0.257-0.316c1.575-2.576,2.876-5.43,3.746-8.372
			c-0.061,7.492-4.247,14.719-7.362,21.274c-2.924,6.166-4.409,13.018-5.536,19.701c-0.673,4.01-1.361,7.849,0.662,11.255
			c-3.033,1.462-6.041,3.568-6.901,6.23c3.367-3.34,7.266-5.619,12.519-6.232c1.01-0.118,2.02-0.198,3.02-0.248
			c4.461-0.687,8.833-0.135,13.299,0.89c10.461,2.396,20.408,6.136,29.934,11.064c7.993,3.343,15.029,7.531,22.309,12.207
			c8.438,5.414,16.079,11.228,22.989,17.934c3.006,2.298,5.917,4.769,8.75,7.319c0.04,0.137,0.117,0.194,0.231,0.201
			c0.435,0.396,0.849,0.804,1.28,1.201c4.552,3.889,8.968,7.942,13.167,12.249c0.265,0.271,0.362,0.572,0.353,0.866
			c1.118,1.165,2.179,2.38,3.115,3.725c1.754,2.525,1.071,2.483-1.844,2.455c-5.492-0.055-11.031-1.292-16.335-2.615
			c-3.082-0.769-6.114-1.688-9.138-2.647c-3.86-0.976-7.698-2.03-11.476-3.288c0.646,0.32,1.293,0.631,1.934,0.971
			c5.891,3.115,11.268,6.997,16.947,10.468c3.008,1.834,8.195,6.53,2.064,8.076c-3.629,0.913-8.776,0.128-12.372-0.241
			c-6.087-0.63-12.175-1.468-18.18-2.614c-9.67-1.845-20.008-3.771-29.342-7.371c6.831,4.952,17.423,7.457,25.156,9.072
			c7.911,1.649,16.287,2.605,24.55,2.879c-2.938,1.175-7.711,1.974-8.171,2.041c-4.087,0.624-8.326,0.777-12.445,0.921
			c-7.799,0.273-15.349-0.075-23.011-1.603c-4.169-0.833-8.337-1.806-12.41-3.026c-0.079-0.004-0.156,0.014-0.24-0.011
			c-5.673-1.373-11.178-3.516-16.126-6.664c-4.117-2.621-8.638-5.056-12.341-8.311c0.731,1.155,1.536,2.253,2.389,3.305
			c1.532,2.21,3.033,4.432,4.77,6.54c0.249,0.361,0.531,0.681,0.818,1.006c-0.774-0.447-1.553-0.898-2.328-1.313
			c-6.397-3.428-12.149-8.001-16.449-13.688c-3.123-3.246-6.057-7.141-7.649-11.235c-0.436,0.488-0.778,1.064-0.744,1.381
			c0.188,1.876,0.649,3.634,0.975,5.498c0.144,0.825,0.562,1.898,0.936,3.005c-1.829-2.734-3.678-7.554-4.082-8.554
			c-0.901-2.211-1.466-4.496-1.84-6.81c-0.061,1.673-0.027,3.352,0.17,5.055c0.57,4.953,1.819,9.53,4.234,13.535
			c0.478,0.549,0.988,1.08,1.532,1.585c1,0.923,2.719-1.411,2.928-2.106c0.092-0.299,0.109-0.613,0.148-0.923
			c3.335,4.93,7.663,9.116,12.707,12.605c2.602,1.803,11.997,9.586,14.899,5.564c0.283-0.397,0.831-1.161,0.4-1.639
			c-0.039-0.048-0.086-0.081-0.126-0.125c11.374,6.581,25.952,9.242,37.923,9.938c10.361,0.601,21.701,0.089,31.708-2.743
			c1.698-0.483,4.152-1.66,5.493-3.177c1.983,0.01,3.977,0.035,5.934-0.042c2.511-0.098,8.955-2.477,6.093-6.115
			c-1.88-2.381-4.343-4.48-7.068-6.374c12.454,3.244,23.367,4.231,23.046-1.383c-0.253-4.334-5.278-8.445-8.189-11.113
			c-3.942-3.612-7.807-7.254-11.784-10.801c2.58-9.671,8.424-17.816,13.903-26.044c1.78-2.669,7.005-7.534,6.122-1.682
			c-0.365,2.388-1.092,4.733-1.75,7.05c-0.392,1.39-0.979,2.76-1.557,4.131c-1.21,1.909-2.307,3.869-3.342,5.868
			c0.939-0.98,1.897-1.946,2.849-2.922c1.167-1.188,2.29-2.425,3.434-3.638c0.27-0.438,0.525-0.881,0.81-1.307
			c4.181-6.358,9.072-11.959,14.515-17.254c2.39-2.326,4.939-4.371,7.733-6.182c6.344-4.111-0.492,9.521-0.966,10.366
			c-3.12,5.489-7.415,10.318-11.036,15.48c-0.147,0.215-0.234,0.413-0.295,0.6c3.181-3.271,6.449-6.518,10.261-8.994
			c1.276-1.103,2.594-2.032,3.995-2.563c2.093-0.801,2.106-0.139,1.47,0.971c-0.265,0.297-0.522,0.604-0.783,0.909
			c0.013,0.157,0.013,0.32-0.038,0.494c-0.326,1.048-0.736,2.047-1.167,3.037c2.938-3.676,5.988-7.659,9.983-9.334
			c0.788-0.326,1.605,0.48,1.609,1.227c0.013,1.286-0.147,2.628-0.37,3.995c-0.151,2.391-0.791,5.072-1.208,7.193
			c-0.049,0.251-0.131,0.491-0.192,0.736c-1.123,6.761-4.391,13.712-7.253,19.466c-1.201,2.402-2.307,5.081-3.551,7.698
			c2.707-3.993,4.922-8.496,6.958-12.38c1.267-2.418,2.417-4.846,3.447-7.313c3.279-2.827,8.641-6.806,9.181-3.355
			C305.978,155.989,304.321,160.425,303.423,163.607z"/>
		<path style="fill:#5E2C00;" d="M99.694,189.357c-3.873,0.655-7.958-3.223-10.361-5.8c-2.907-3.122-5.77-9.073-5.112-13.462
			c0.1-0.631-0.696,0.1-0.77,0.383c-1.384,5.168,0.904,11.227,4.038,15.376c2.393,3.17,7.785,7.892,11.818,5.085
			C99.58,190.748,100.647,189.196,99.694,189.357z"/>
		<path style="fill:#5E2C00;" d="M106.526,185.081c-2.771,0.344-5.844-1.872-7.89-3.469c-2.779-2.165-5.661-4.275-7.087-7.618
			c-0.162-0.367-0.844,0.429-0.767,0.735c1.175,4.316,4.482,7.104,7.846,9.807c1.98,1.583,5.547,3.707,7.754,1.631
			C106.565,185.993,107.197,185,106.526,185.081z"/>
		<path style="fill:#5E2C00;" d="M111.574,181.352c-3.773-1.182-8.455-1.512-10.627-5.356c-0.217-0.381-0.975,0.473-0.83,0.801
			c1.622,3.703,6.622,6.092,10.543,6.046C111.139,182.836,112.265,181.571,111.574,181.352z"/>
		<path style="fill:#5E2C00;" d="M62.933,54.326c-0.021-0.483-0.186-0.943-0.617-1.116c-0.226-0.292-0.466-0.57-0.736-0.827
			c-0.252-0.239-0.671,0.45-0.718,0.615c-0.156,0.527-0.126,1.025-0.057,1.535c-0.148,0.316-0.278,0.623-0.344,1.002
			c-0.135,0.716,0.043,0.483-0.17,1.095c-0.304,0.824-0.7,1.761-0.465,2.644c0.1,0.394,0.639,0.278,0.887,0.144
			c1.441-0.788,2.237-2.115,2.424-3.714C63.199,55.209,63.094,54.757,62.933,54.326z"/>
		<path style="fill:#CCCECF;" d="M110.073,56.251c-2.259-2.497-6.367-3.87-9.404-4.429c-0.274-0.014-0.552-0.026-0.822-0.031
			c-3.276-0.041-7.741,0.555-10.935,2.447c-0.022,0.027-0.04,0.062-0.061,0.088C96.048,53.469,103.058,54.635,110.073,56.251z"/>
		<path style="opacity:0.6;fill:#B9BBBD;" d="M305.443,152.584c-0.54-3.451-5.902,0.527-9.181,3.355
			c-1.031,2.467-2.181,4.895-3.447,7.313c-2.036,3.884-4.251,8.387-6.958,12.38c1.245-2.617,2.35-5.296,3.551-7.698
			c2.863-5.754,6.131-12.705,7.253-19.466c0.061-0.245,0.143-0.485,0.192-0.736c0.417-2.121,1.057-4.803,1.208-7.193
			c0.223-1.367,0.383-2.709,0.37-3.995c-0.004-0.747-0.821-1.554-1.609-1.227c-3.995,1.675-7.045,5.658-9.983,9.334
			c0.431-0.99,0.841-1.989,1.167-3.037c0.051-0.174,0.051-0.337,0.038-0.494c0.261-0.306,0.518-0.612,0.783-0.909
			c0.636-1.109,0.623-1.771-1.47-0.971c-1.401,0.53-2.719,1.46-3.995,2.563c-3.812,2.477-7.08,5.723-10.261,8.994
			c0.062-0.186,0.148-0.385,0.295-0.6c3.621-5.161,7.915-9.99,11.036-15.48c0.475-0.845,7.31-14.478,0.966-10.366
			c-2.794,1.811-5.344,3.855-7.733,6.182c-5.443,5.295-10.334,10.896-14.515,17.254c-0.261,0.394-0.506,0.805-0.749,1.212
			c1.174-1.623,2.355-3.221,3.572-4.753c3.931-4.92,8.777-12.57,15.545-13.652c0.313-0.049,0.722,0.076,0.787,0.449
			c0.421,2.483-0.993,4.958-2.298,6.973c-1.941,3.016-4.212,5.783-6.423,8.604c-2.354,3.001-4.517,6.127-6.905,9.11
			c-2.581,3.223-5.309,6.579-6.823,10.46c4.247-3.605,7.707-8.298,11.709-12.145c3.016-2.895,6.392-6.851,10.457-8.282
			c2.973-1.042,5.427,0.199,3.738,3.417c-0.905,1.729-1.919,3.381-2.969,5.007c2.224-2.481,4.749-4.461,7.93-4.968
			c0.378-0.06,0.844,0.166,0.814,0.621c-0.582,7.994-6.945,13.528-10.791,20.021c-2.555,4.316-4.935,8.801-8.094,12.723
			c-0.965,1.197-2.441,3.306-4.169,3.449c-1.662,0.145-2.707-2.188-3.441-3.326c-2.528-3.918-6.276-7.1-10.343-9.371
			c-2.642-1.479-5.483-2.491-8.276-3.604c2.675,2.456,5.347,4.929,8.046,7.399c2.911,2.668,7.936,6.779,8.189,11.113
			c0.321,5.614-10.592,4.627-23.046,1.383c2.725,1.895,5.188,3.993,7.068,6.374c2.862,3.639-3.581,6.018-6.093,6.115
			c-1.958,0.077-3.951,0.052-5.934,0.042c-1.341,1.517-3.795,2.693-5.493,3.177c-10.008,2.832-21.347,3.344-31.708,2.743
			c-11.971-0.696-26.548-3.357-37.923-9.938c0.04,0.044,0.087,0.077,0.126,0.125c0.431,0.477-0.117,1.241-0.4,1.639
			c-2.902,4.021-12.297-3.762-14.899-5.564c-5.044-3.488-9.372-7.675-12.707-12.605c-0.039,0.31-0.056,0.624-0.148,0.923
			c-0.209,0.695-1.928,3.029-2.928,2.106c-0.544-0.505-1.054-1.036-1.532-1.585c-2.416-4.005-3.664-8.582-4.234-13.535
			c-0.196-1.703-0.23-3.382-0.17-5.055c0.374,2.313,0.939,4.599,1.84,6.81c0.404,1,2.253,5.819,4.082,8.554
			c-0.374-1.107-0.792-2.18-0.936-3.005c-0.326-1.864-0.787-3.622-0.975-5.498c-0.034-0.317,0.309-0.893,0.744-1.381
			c1.593,4.095,4.526,7.989,7.649,11.235c4.3,5.687,10.052,10.26,16.449,13.688c0.775,0.414,1.554,0.865,2.328,1.313
			c-0.287-0.325-0.569-0.645-0.818-1.006c-1.736-2.108-3.238-4.33-4.77-6.54c-0.761-0.938-1.47-1.919-2.141-2.938
			c-1.132-0.682-2.241-1.399-3.293-2.191c-3.73-2.796-6.654-6.289-8.9-10.368c0,0,0-0.008-0.003-0.012
			c-0.344-0.526-0.679-1.058-0.997-1.597c-2.728-4.04-4.83-8.451-5.905-13.004c-2.454-10.375,1.884-19.311,11.601-23.881
			c21.152-9.959,46.912,3.73,63.052,17.401c0.406,0.341,0.102,1.168-0.456,1.096c-4.104-0.527-8.12-1.432-12.083-2.557
			c2.541,1.556,5.021,3.216,7.436,4.984c9.422,6.894,20.065,12.375,28.011,21.096c0.334,0.369,0.148,1.174-0.454,1.097
			c-9.78-1.222-19.081-4.384-28.171-8.113c5.837,4.025,11.776,7.89,17.811,11.67c3.517,2.205,8.511,5.038,10.249,9.059
			c1.448,3.358,0.012,4.045-3.12,4.415c-6.336,0.75-13.011-0.514-19.23-1.669c-6.636-1.231-13.346-2.681-19.624-5.236
			c-4.186-1.706-8.717-3.919-12.937-6.639c5.521,6.756,12.001,12.564,20.02,16.729c0.701,0.362,0.174,1.273-0.491,1.173
			c-15.327-2.299-30.601-9.001-41.256-20.219c2.641,3.843,5.665,7.451,8.693,11.012c0.449,0.526-0.13,1.425-0.774,1.008
			c-2.745-1.759-5.696-3.216-8.521-4.867c3.521,2.882,7.65,5.144,11.436,7.558c4.948,3.148,10.452,5.291,16.126,6.664
			c0.084,0.024,0.162,0.007,0.24,0.011c4.073,1.221,8.241,2.193,12.41,3.026c7.663,1.527,15.212,1.876,23.011,1.603
			c4.12-0.144,8.358-0.297,12.445-0.921c0.46-0.067,5.233-0.866,8.171-2.041c-8.263-0.273-16.64-1.229-24.55-2.879
			c-7.732-1.615-18.325-4.12-25.156-9.072c9.334,3.6,19.672,5.526,29.342,7.371c6.005,1.146,12.093,1.984,18.18,2.614
			c3.595,0.369,8.743,1.154,12.372,0.241c6.131-1.546,0.944-6.242-2.064-8.076c-5.679-3.471-11.056-7.352-16.947-10.468
			c-0.641-0.34-1.288-0.65-1.934-0.971c3.778,1.258,7.615,2.313,11.476,3.288c3.024,0.96,6.057,1.879,9.138,2.647
			c5.305,1.323,10.843,2.561,16.335,2.615c2.915,0.027,3.599,0.069,1.844-2.455c-0.935-1.345-1.996-2.559-3.115-3.725
			c0.009-0.294-0.088-0.595-0.353-0.866c-4.199-4.307-8.615-8.36-13.167-12.249c-0.431-0.397-0.845-0.806-1.28-1.201
			c-0.114-0.007-0.191-0.064-0.231-0.201c-2.833-2.551-5.744-5.021-8.75-7.319c-6.911-6.706-14.552-12.52-22.989-17.934
			c-7.28-4.676-14.316-8.864-22.309-12.207c-9.526-4.928-19.473-8.667-29.934-11.064c-4.465-1.024-8.838-1.576-13.299-0.89
			c-1,0.05-2.01,0.13-3.02,0.248c-5.253,0.613-9.152,2.893-12.519,6.232c0.861-2.662,3.869-4.769,6.901-6.23
			c-2.023-3.406-1.336-7.245-0.662-11.255c1.127-6.684,2.612-13.535,5.536-19.701c3.115-6.556,7.301-13.782,7.362-21.274
			c-0.87,2.942-2.171,5.796-3.746,8.372c-0.07,0.115-0.161,0.222-0.257,0.316c3.852-7.912,4.607-18.784,1.201-27.162
			c0.596,0.714,1.149,1.441,1.605,2.205c0.565,0.625,1.175,1.19,1.784,1.635c-0.169-2.854-1.953-6.568-3.773-9.029
			c-0.16-1.278-0.425-2.536-0.831-3.763c0.092-0.028,0.179-0.034,0.252-0.007c0.854,0.278,1.524,0.591,2.142,0.956
			c-2.619-13.48-13.602-24.857-26.287-29.772c12.284,7.3,18.911,23.248,17.223,37.281c-0.061,0.48-0.7,0.948-1.096,0.454
			c-2.451-3.064-4.83-6.625-8.416-8.323c3.873,5.147,6.997,10.658,7.367,17.292c0.03,0.552-0.727,0.859-1.096,0.453
			c-2.094-2.325-3.738-5.015-5.862-7.202c4.365,6.205,5.508,14.114,0.644,20.839c-4.208,5.816-13.485,10.666-20.525,7.139
			c-3.617-1.81-5.822-4.795-6.754-8.707c-0.953-4.038-1.036-9.943-4.999-12.398c-2.98-1.842-6.419-1.806-9.726-2.62
			c-1.911-0.474-3.677-1.184-5.344-2.17c0.797,1.268,1.792,2.393,3.203,3.179c2.223,1.236,4.481,2.294,6.662,3.612
			c6.028,3.64,8.089,8.756,5.861,13.695c0.614,4.807,0.619,11.186,6.436,12.278c1.555,0.289,3.077,0.477,4.575,0.542
			c3.198,0.423,6.805,0.171,9.956-0.566c-2.438,1.626-5.2,2.822-8.089,3.355c0.422,0.746,0.591,1.721,0.6,2.842
			c0.344-0.267,0.679-0.545,1.04-0.788c4.238-2.857,10.814-3.439,14.129,1.294c4.486,6.408,0.652,15.306-1.658,21.793
			c-1.563,4.375-2.793,8.778-3.873,13.294c-1.092,4.564-2.241,9.423-1.257,14.104c0.13,0.627-0.587,1.075-1.071,0.624
			c-2.629-2.443-2.481-6.054-2.968-9.389c-2.815,7.737-1.593,16.529-0.031,24.417c0.805,4.075,1.785,8.115,2.611,12.185
			c0.51,2.496,1.25,5.246,1.023,7.812c-0.409,4.625-4.625,6.524-8.633,4.146c-4.286-2.541-6.753-7.539-10.766-10.273
			c1.276,4.66,5.739,7.679,7.42,12.226c0.148,0.398-0.231,0.814-0.622,0.814c-6.227,0-12.032-2.666-16.087-7.095
			c0.993,3.479,2.451,6.821,4.013,10.195c0.261,0.563-0.287,1.218-0.879,0.879c-3.721-2.122-7.511-4.726-10.591-7.904
			c2.027,3.718,4.69,7.239,7.81,10.726c0.492,0.547-0.831,2.193-1.384,1.728c-0.658-0.553-1.289-1.143-1.914-1.732
			c2.407,4.511,5.053,8.913,7.837,12.962c5.892,8.571,13.955,14.862,22.432,20.767c18.063,12.594,39.093,18.259,60.977,18.798
			c20.878,0.523,40.167-4.68,59.653-11.622c10.918-3.891,21.057-7.954,30.442-14.911c4.491-3.325,8.599-6.984,12.354-10.977
			c0.057-0.105,0.122-0.21,0.214-0.309c10.869-12.154,19.227-26.39,23.7-42.205C304.321,160.425,305.978,155.989,305.443,152.584z"
			/>
		<g>
			<g>
				<path style="fill:#5E2C00;" d="M102.628,46.556c0,3.729-2.263,6.756-5.062,6.756c-2.793,0-5.061-3.026-5.061-6.756
					c0-3.735,2.268-6.764,5.061-6.764C100.365,39.792,102.628,42.82,102.628,46.556z"/>
			</g>
			<g>
				<path style="fill:#FFFFFF;" d="M97.553,43.922c0,1.135-0.696,2.048-1.54,2.048c-0.844,0-1.54-0.913-1.54-2.048
					c0-1.137,0.696-2.059,1.54-2.059C96.857,41.862,97.553,42.785,97.553,43.922z"/>
			</g>
		</g>
	</g>
	<g>
		<g>
			<path style="fill:#5E2C00;" d="M262.871,299.657c-0.429-3.545-2.704-6.455-3.581-9.884c0.001-0.012-0.001-0.024,0-0.036
				c0.422-5.912,1.898-11.381,1.487-17.254c0.102-0.644,0.038-1.157-0.152-1.556c-0.006-0.055-0.01-0.107-0.018-0.16
				c-0.02-0.142-0.094-0.183-0.186-0.172c-0.892-1.138-3.079-1.039-4.82-0.51c-1.266,0.387-2.59,0.918-3.51,1.905
				c-0.284,0.307-0.401,0.635-0.422,0.975c-0.144,0.16-0.251,0.368-0.208,0.505c1.173,3.852,1.729,7.721,1.861,11.729
				c0.063,1.911-0.363,3.851-0.857,5.704c-3.892,2.582-8.757,2.21-13.234,2.465c-1.374,0.079-3.488-0.012-4.591,0.972
				c-1.031,0.921-0.582,1.86,0.718,2.032c0.031,0.548,0.046,1.026-0.139,1.583c-0.091,0.272-0.215,0.484-0.362,0.674
				c-1.271,0.385-2.505,1.025-2.291,2.143c0.141,0.739,1.27,0.938,2.462,0.944c1.135,0.269,1.993,0.695,2.677,1.677
				c0.287,0.415,0.498,0.902,0.651,1.381c0.02,0.066,0.02,0.137,0.015,0.208c-0.242,0.178-0.469,0.366-0.659,0.57
				c-0.202,0.218-0.584,0.934-0.072,1.059c2.154,0.52,4.442-0.41,6.524-1.087c2.401-0.367,4.8-0.834,7.05-1.687
				c1.863-0.705,3.762-1.252,5.63-1.935c1.776-0.65,2.996-0.598,4.809-0.63C262.621,301.255,262.973,300.496,262.871,299.657z"/>
			<path style="fill:#CA6F57;" d="M238.605,302.881c-0.385-0.598-0.85-1.011-1.386-1.301c0.256-0.028,0.47-0.053,0.602-0.063
				c4.249-0.338,8.445-0.772,12.619-1.567c-0.907,0.431-2.033,0.832-2.4,1.023c-1.604,0.837-3.184,1.427-4.9,1.977
				c-1.149,0.368-2.681,0.829-3.935,1.512C239.182,303.93,238.942,303.406,238.605,302.881z"/>
			<path style="fill:#CA6F57;" d="M258.771,300.303c-1.134,0.29-2.296,0.678-3.453,1.101c-0.409,0.156-0.819,0.312-1.23,0.465
				c-0.984,0.38-1.958,0.775-2.896,1.149c-0.151,0.061-0.307,0.108-0.46,0.164c0.606-0.247,1.215-0.503,1.827-0.765
				c-1.23,0.429-2.472,0.82-3.74,1.122c-3.067,0.729-6.448,2.216-9.639,2.074c-0.241-0.012-0.377-0.379-0.16-0.52
				c1.818-1.172,4.342-1.577,6.368-2.28c2.016-0.698,4.058-1.339,5.906-2.397c0.457-0.634,0.791-1.374,1.058-2.089
				c-5.466,1.127-11.44,2.061-17.035,1.911c-0.568-0.015-0.966-0.036-0.953-0.11c0.021-0.016,0.042-0.035,0.063-0.053
				c0.145-0.077,0.559-0.19,1.361-0.363c1.711-0.371,3.408-0.792,5.107-1.224c1.589-0.403,3.176-0.814,4.764-1.224
				c0.851-0.366,1.657-0.825,2.465-1.287c-0.47-0.113-0.938-0.232-1.407-0.351c-2.353-0.185-4.656-0.104-7.071-0.196
				c-0.349-0.002-0.697,0.007-1.046,0.034c-0.086,0.003-3.197-0.512-3.439-0.389c0.801-0.407,1.943-0.414,2.822-0.489
				c4.957-0.424,10.087,0.177,14.239-2.775c-0.033,0.117-0.066,0.237-0.099,0.355c-0.133,0.477-0.132,0.866,0.03,1.18
				c0.599-0.474,1.031-1.095,1.362-1.778c0.131-1.462,0.66-3.76,0.679-3.847c0.34-1.537,0.341-3.112,0.239-4.673
				c-0.22-3.398-0.814-6.545-2.064-9.728c0.053-0.506,0.188-0.975,0.512-1.209c0.655-0.472,1.408-0.78,2.162-1.043
				c0.989-0.345,2.086-0.6,3.135-0.586c1.047,0.01,1.471,0.54,1.707,1.229c0.119,4.63-0.585,8.883-1.189,13.471
				c-0.17,1.271-0.316,2.529-0.443,3.792c0.12,1.14,0.395,2.257,0.91,3.314c0.637,1.306,1.249,2.597,1.642,3.978
				c0.441,1.096,0.773,2.192,1.072,3.354C262.177,300.789,259.233,300.185,258.771,300.303z"/>
			<path style="fill:#CA6F57;" d="M261.874,299.621c-0.299-1.161-0.631-2.258-1.072-3.354c-0.393-1.382-1.005-2.673-1.642-3.978
				c-0.515-1.057-0.79-2.174-0.91-3.314c0.127-1.263,0.273-2.521,0.443-3.792c0.604-4.588,1.308-8.841,1.189-13.471
				c-0.237-0.689-0.66-1.22-1.707-1.229c-1.049-0.014-2.146,0.241-3.135,0.586c-0.754,0.263-1.507,0.571-2.162,1.043
				c-0.324,0.234-0.458,0.703-0.512,1.209c0.388,0.987,0.706,1.971,0.976,2.959c1.382,0.048,2.719,0.258,3.491,1.434
				c0.689,1.054,0.502,2.857,0.364,4.036c-0.222,1.906-0.706,3.773-0.911,5.682c-0.198,1.827-0.132,3.65,0.674,5.337
				c0.627,1.309,1.974,2.696,2.181,4.144c0.195,1.373-0.331,2.552-1.133,3.6c0.255-0.073,0.509-0.145,0.762-0.21
				C259.233,300.185,262.177,300.789,261.874,299.621z"/>
			<path style="fill:#CA6F57;" d="M236.092,296.427c1.506,0.072,4.669,0.11,7.399,0.196c-2.12,0.506-4.236,1.027-6.372,1.492
				c-0.279,0.06-0.768,0.145-1.324,0.27c0.029-0.067,0.06-0.134,0.088-0.205C236.124,297.544,236.155,297.011,236.092,296.427z"/>
		</g>
		<g>
			<path style="fill:#5E2C00;" d="M282.014,307.218c-0.428-3.544-2.704-6.454-3.581-9.884c0.001-0.011-0.001-0.024,0-0.036
				c0.423-5.91,1.899-11.379,1.487-17.253c0.103-0.645,0.039-1.156-0.151-1.556c-0.007-0.055-0.01-0.107-0.018-0.161
				c-0.019-0.14-0.093-0.182-0.186-0.17c-0.893-1.139-3.079-1.04-4.82-0.51c-1.266,0.386-2.59,0.917-3.51,1.903
				c-0.285,0.308-0.401,0.636-0.422,0.977c-0.144,0.16-0.25,0.367-0.208,0.504c1.174,3.852,1.731,7.72,1.861,11.729
				c0.063,1.912-0.363,3.851-0.857,5.704c-3.892,2.583-8.758,2.211-13.233,2.465c-1.375,0.079-3.489-0.011-4.591,0.973
				c-1.032,0.92-0.583,1.862,0.718,2.031c0.03,0.55,0.044,1.027-0.139,1.583c-0.09,0.273-0.215,0.485-0.362,0.675
				c-1.271,0.385-2.505,1.025-2.29,2.142c0.141,0.74,1.27,0.937,2.461,0.944c1.135,0.269,1.994,0.693,2.677,1.678
				c0.287,0.413,0.498,0.899,0.651,1.379c0.021,0.066,0.02,0.138,0.015,0.209c-0.242,0.178-0.47,0.364-0.659,0.57
				c-0.202,0.218-0.585,0.934-0.073,1.058c2.155,0.52,4.442-0.411,6.524-1.087c2.4-0.367,4.799-0.832,7.05-1.685
				c1.863-0.706,3.763-1.252,5.628-1.937c1.777-0.649,2.998-0.598,4.81-0.63C281.763,308.816,282.115,308.058,282.014,307.218z"/>
			<path style="fill:#CA6F57;" d="M257.749,310.442c-0.386-0.599-0.851-1.012-1.388-1.302c0.258-0.028,0.471-0.053,0.604-0.064
				c4.248-0.337,8.444-0.771,12.619-1.567c-0.908,0.43-2.033,0.834-2.399,1.024c-1.604,0.836-3.184,1.426-4.9,1.976
				c-1.15,0.368-2.681,0.831-3.935,1.512C258.324,311.491,258.085,310.968,257.749,310.442z"/>
			<path style="fill:#CA6F57;" d="M277.913,307.865c-1.134,0.289-2.296,0.675-3.453,1.1c-0.409,0.156-0.818,0.31-1.229,0.463
				c-0.985,0.382-1.958,0.776-2.898,1.151c-0.151,0.06-0.307,0.107-0.46,0.164c0.607-0.246,1.215-0.501,1.828-0.765
				c-1.231,0.429-2.474,0.82-3.741,1.121c-3.067,0.729-6.448,2.217-9.639,2.074c-0.241-0.01-0.378-0.378-0.16-0.519
				c1.818-1.173,4.34-1.578,6.368-2.281c2.015-0.697,4.056-1.338,5.904-2.397c0.457-0.634,0.792-1.372,1.058-2.089
				c-5.466,1.128-11.44,2.062-17.035,1.913c-0.567-0.016-0.965-0.036-0.953-0.111c0.021-0.016,0.042-0.036,0.063-0.053
				c0.145-0.077,0.559-0.19,1.361-0.363c1.713-0.372,3.409-0.791,5.107-1.224c1.588-0.404,3.176-0.815,4.765-1.225
				c0.851-0.364,1.657-0.825,2.464-1.285c-0.469-0.115-0.938-0.233-1.406-0.352c-2.354-0.184-4.657-0.105-7.072-0.195
				c-0.348-0.005-0.697,0.006-1.046,0.032c-0.087,0.004-3.197-0.513-3.438-0.389c0.8-0.409,1.943-0.414,2.822-0.487
				c4.957-0.424,10.088,0.176,14.24-2.776c-0.034,0.117-0.066,0.237-0.099,0.355c-0.133,0.476-0.133,0.866,0.03,1.179
				c0.599-0.472,1.03-1.094,1.362-1.778c0.132-1.461,0.661-3.76,0.679-3.847c0.341-1.536,0.341-3.11,0.24-4.673
				c-0.22-3.397-0.814-6.544-2.064-9.727c0.052-0.507,0.188-0.975,0.511-1.209c0.654-0.472,1.407-0.781,2.162-1.042
				c0.988-0.345,2.084-0.6,3.133-0.59c1.048,0.014,1.472,0.542,1.708,1.232c0.118,4.631-0.585,8.884-1.191,13.472
				c-0.167,1.27-0.315,2.528-0.441,3.792c0.12,1.139,0.394,2.256,0.911,3.313c0.635,1.305,1.247,2.595,1.641,3.979
				c0.441,1.095,0.773,2.191,1.073,3.352C281.319,308.35,278.377,307.747,277.913,307.865z"/>
			<path style="fill:#CA6F57;" d="M281.017,307.182c-0.3-1.16-0.632-2.257-1.073-3.352c-0.393-1.385-1.005-2.675-1.641-3.979
				c-0.517-1.058-0.791-2.175-0.911-3.313c0.126-1.264,0.274-2.523,0.441-3.792c0.607-4.588,1.309-8.841,1.191-13.472
				c-0.236-0.69-0.66-1.218-1.708-1.232c-1.049-0.01-2.146,0.245-3.133,0.59c-0.755,0.261-1.508,0.57-2.162,1.042
				c-0.324,0.234-0.459,0.702-0.511,1.209c0.387,0.986,0.706,1.971,0.975,2.96c1.382,0.046,2.721,0.256,3.491,1.433
				c0.69,1.054,0.502,2.857,0.365,4.034c-0.222,1.907-0.706,3.777-0.911,5.683c-0.198,1.829-0.132,3.651,0.675,5.337
				c0.626,1.31,1.973,2.696,2.18,4.143c0.196,1.374-0.33,2.552-1.133,3.601c0.255-0.072,0.509-0.144,0.761-0.208
				C278.377,307.747,281.319,308.35,281.017,307.182z"/>
			<path style="fill:#CA6F57;" d="M255.234,303.988c1.506,0.071,4.669,0.109,7.4,0.195c-2.121,0.506-4.238,1.029-6.372,1.492
				c-0.28,0.061-0.769,0.145-1.324,0.271c0.03-0.068,0.061-0.134,0.088-0.206C255.268,305.105,255.299,304.571,255.234,303.988z"/>
		</g>
		<path style="fill:#5E2C00;" d="M326.48,263.17c-0.027-0.067-0.074-0.111-0.14-0.138c-1.23-0.327-2.642,0.107-3.882,0.247
			c-0.429,0.048-0.858,0.112-1.284,0.179c2.475-1.366,4.684-3.278,4.829-5.35c0.007-0.103-0.063-0.211-0.16-0.243
			c-0.358-0.12-0.798-0.109-1.28-0.021c0.573-0.539,1.002-1.134,1.154-1.796c0.369-1.608-2.143-0.931-3.97-0.371
			c-3.576,0.289-6.793,0.327-10.389-0.52c-4.189-0.987-6.874-4.088-9.803-7.052c-4.81-4.865-9.877-9.709-15.773-13.235
			c-6.463-3.866-13.404-6.488-20.63-8.526c-4.565-1.289-9.618-2.009-13.851-0.06c-0.815,0.014-1.577,0.169-2.41,0.483
			c0.676-0.256,1.163-0.966,1.293-1.679c0.046-0.265-0.169-0.337-0.382-0.242c-0.721,0.32-1.273,0.858-1.999,1.215
			c-0.049,0.02-0.093,0.052-0.141,0.073c0.541-0.76,1.058-1.696,1.045-2.537c-0.005-0.361-0.46-0.142-0.592-0.011
			c-3.785,3.73-8.513,4.068-11.965-0.122c-1.97-2.391-2.465-5.459-2.782-8.449c1.322-4.921,2.196-9.997,0.89-14.982
			c-1.352-5.167-3.921-9.598-8.556-11.718c0.22-0.13,0.379-0.432,0.335-0.646c-0.522-2.475-4.119-2.369-6.688-2.533
			c0.144-0.047,0.284-0.102,0.417-0.177c0.191-0.107,0.576-0.483,0.34-0.724c-1.142-1.157-4.39-0.651-5.794-0.605
			c-1.48,0.049-2.919,0.232-4.376,0.488c-0.343,0.011-0.663,0.077-0.962,0.193c0.017-0.014,0.028-0.023,0.046-0.036
			c0.205-0.169,0.592-0.76,0.087-0.816c-6.431-0.708-13.861,3.361-18.306,7.704c-4.673,4.566-8.005,10.997-8.385,17.591
			c-1.175,0.403-2.148,1.087-3.01,2.29c-0.84,1.176-1.298,2.703-1.886,4.013c-1.099,2.444-2.664,4.541-4.454,6.516
			c-2.727,3.009-5.885,5.602-8.63,8.595c-0.929,1.016-3.544,3.908-2.42,5.497c1.247,1.762,4.238,1.284,6.045,1.063
			c4.077-0.498,8.079-1.717,11.993-2.918c6.983-2.145,13.748-5.012,20.456-7.915c2.272,1.918,5.202,2.523,8.201,2.336
			c2.044,0.38,4.292,0.146,6.436-0.424c2.174,2.774,1.237,5.909-0.124,8.786c-0.197,0.418,0.208,0.491,0.496,0.313
			c0.48-0.299,0.86-0.519,1.22-0.964c0.252-0.312,1.468-2.23,0.879-0.883c-0.458,1.042-1.214,3.091-0.868,4.249
			c0.12,0.402,0.663-0.135,0.745-0.278c0.25-0.439,0.519-1.065,0.825-1.66c-0.943,3.226-1.067,6.408-0.048,9.776
			c1.373,4.542,4.123,8.259,6.946,11.972c5.959,7.843,15.194,13.815,24.485,16.962c0.141,0.09,0.279,0.182,0.422,0.267
			c5.166,3.07,11.722,3.965,17.627,4.232c5.977,0.271,11.635,0.334,17.58-0.484c3.007-0.414,6.141-1.033,9.008-2.045
			c2.101-0.741,4.851-1.348,6.611-2.727c0.076-0.061,0.138-0.131,0.186-0.204c0.509-0.01,1.017-0.031,1.521-0.074
			c2.491-0.214,5.698-0.75,7.853-2.101c0.979-0.612,2.081-1.323,1.499-2.373c1.743-0.31,3.476-0.7,5.188-1.14
			C319.371,268.875,327.199,266.598,326.48,263.17z"/>
		<path style="fill:#ED856A;" d="M167.469,235.953c-0.873,0.106-1.739,0.075-2.612,0.001c-3.894-0.326-0.746-4.457,0.719-6.056
			c2.056-2.242,4.379-4.256,6.54-6.395c2.003-1.983,3.755-4.087,5.19-6.515c1.553-2.629,2.216-5.582,4.588-7.207
			c1.172-0.585,2.424-0.832,3.4,0.216c0.802,0.862,1.188,1,2.285,1.126c0.545,0.062,1.365-0.376,1.789-0.655
			c2.57-1.694,5.184-3.357,7.978-0.98c1.237,1.052,1.829,3.259,2.616,4.65c0.699,1.236,1.616,2.214,2.758,3.036
			c1.052,0.758,2.383,1.18,3.569,1.673c3.665,1.527-1.882,4.713-3.247,5.497C191.382,228.625,179.93,234.434,167.469,235.953z"/>
		<path style="fill:#CA6F57;" d="M178.786,215.707c1.407-2.266,3.055-5.506,5.474-6.345c-0.753-0.203-1.576,0.025-2.365,0.42
			c-2.372,1.625-3.035,4.578-4.588,7.207c-1.323,2.238-2.925,4.194-4.734,6.04C174.928,220.821,177.089,218.442,178.786,215.707z"/>
		<path style="opacity:0.4;fill:#CA6F57;" d="M206.29,218.848c-1.186-0.493-2.517-0.915-3.569-1.673
			c-1.143-0.822-2.06-1.8-2.758-3.036c-0.787-1.392-1.379-3.599-2.616-4.65c-2.793-2.377-5.408-0.714-7.978,0.98
			c-0.424,0.279-1.245,0.717-1.789,0.655c-0.457-0.052-0.786-0.11-1.077-0.217c0.49,0.815,1.099,1.507,2.229,1.162
			c1.649-0.501,2.846-2.136,4.712-1.815c1.409,0.242,2.372,1.719,2.972,2.888c0.89,1.727,1.46,3.616,2.442,5.295
			c0.069,0.117,0.011,0.268-0.079,0.352c-5.21,4.793-12.057,7.625-18.596,10.103c-5.637,2.134-11.064,4.391-17.031,4.672
			c-0.407,1.205-0.161,2.235,1.705,2.392c0.872,0.074,1.738,0.105,2.612-0.001c12.461-1.52,23.913-7.328,35.574-11.608
			C204.408,223.561,209.955,220.375,206.29,218.848z"/>
		<path style="fill:#FFD76B;" d="M324.207,265.526c-0.633,0.442-1.302,0.819-2.007,1.132c-1.551,0.75-3.118,1.325-4.774,1.792
			c-2.179,0.614-4.375,1.08-6.583,1.383c-8.283,0.859-10.081,0.203-10.989,0.087c-0.786,0.181-1.56,0.393-2.315,0.645
			c4.149,0.941,8.368,0.899,12.545,0.313c1.107,0.593-1.36,1.882-2.344,2.128c-3.223,0.805-6.014,1.053-8.895,0.754
			c-0.516,0.027-1.03,0.05-1.542,0.064c-0.989,0.024-1.982-0.018-2.969-0.105c-0.424-0.037-0.848-0.107-1.268-0.143
			c2.085,0.955,4.341,1.426,6.62,1.528c-1.772,0.953-4.088,1.489-5.853,2.113c-2.63,0.928-5.514,1.263-8.243,1.776
			c-5.735,1.08-11.532,0.852-17.313,0.457c-5.716-0.393-11.506-1.122-16.684-3.73c-2.525-1.272-4.573-3.065-6.767-4.806
			c-1.918-1.52-3.917-2.855-5.395-4.829c-0.098-0.131-0.404,0.15-0.322,0.277c1.315,2.049,3.168,3.68,5.038,5.246
			c0.95,0.797,1.847,1.61,2.77,2.39c-7.078-3.265-13.462-7.752-18.865-13.473c-6.171-6.537-11.682-15.953-8.318-25.025
			c0.154-0.417-0.189-0.549-0.513-0.324c-0.787,0.544-1.307,1.516-1.761,2.462c0.149-1.276,0.883-2.822,1.156-3.794
			c0.08-0.286-0.242-0.248-0.393-0.15c-0.617,0.402-1.007,0.9-1.504,1.497c-0.078,0.093-0.146,0.178-0.208,0.253
			c0.05-0.082,0.097-0.168,0.137-0.253c0.415-0.871,0.424-0.902,0.693-1.816c0.55-1.863,0.071-4.348-1.251-5.837
			c1.165-0.368,2.283-0.827,3.303-1.333c0.194-0.245,0.362-0.509,0.515-0.78c-1.622,0.884-3.502,1.208-5.352,1.301
			c-0.821,0.204-1.645,0.381-2.482,0.508c-0.123,0.001-0.246,0.009-0.369,0.006c-0.986-0.021-1.993-0.048-2.978-0.169
			c-2.398-0.012-4.799-0.538-7.163-1.629c0.387-0.167,0.775-0.336,1.162-0.503c0.031,0.085,0.125,0.122,0.32,0.047
			c1.638-0.643,6.601-2.956,5.602-5.527c-0.524-1.351-3.12-2.204-4.239-2.844c-2.783-1.595-3.473-4.172-5.112-6.677
			c-2.713-4.146-6.587-2.013-10.061-0.178c-3.126,1.652-2.716-2.095-4.903-1.76c-0.475,0.073-0.921,0.236-1.348,0.452
			c1.058-5.837,3.279-11.936,7.652-16.13c4.27-4.094,10.72-8.171,17.011-7.972c-0.178,0.123-0.343,0.278-0.496,0.52
			c-0.09,0.146-0.215,0.568,0.113,0.538c1.866-0.18,3.665-0.725,5.552-0.889c1.211-0.104,4.277-0.492,5.863,0.032
			c-0.534,0.085-1.095,0.129-1.578,0.315c-0.206,0.079-0.641,0.626-0.271,0.77c1.597,0.616,6.424-0.143,7.979,1.721
			c-0.687-0.137-1.342-0.238-2.095,0.008c-0.138,0.046-0.643,0.548-0.289,0.622c6.491,1.372,9.222,6.826,11.016,12.646
			c1.731,5.617-0.217,11.1-1.486,16.583c0.043,0.695,0.105,1.389,0.181,2.079c0.241-0.808,0.485-1.619,0.72-2.438
			c0.214,3.81,1.207,7.347,4.677,9.779c3.42,2.396,7.585,0.534,10.289-1.957c-0.299,0.898-1.15,1.826-1.656,2.45
			c-0.29,0.354,0.058,0.577,0.386,0.377c0.781-0.477,1.571-0.913,2.342-1.402c-0.447,0.536-0.617,0.669-1.059,1.329
			c-0.172,0.257-0.069,0.632,0.289,0.44c0.505-0.269,0.953-0.443,1.387-0.564c-0.309,0.216-0.611,0.448-0.906,0.701
			c-0.277,0.234-0.23,0.742,0.169,0.441c0.789-0.595,1.63-1.056,2.509-1.407c0.262-0.014,0.531-0.026,0.821-0.039
			c0.158-0.007,0.375-0.206,0.453-0.384c5.752-1.562,12.826,0.968,18.118,2.723c6.892,2.286,13.652,5.653,19.4,10.098
			c5.493,4.245,10.312,9.427,15.284,14.25c3.758,3.646,11.178,4.085,16.164,2.817c0.814-0.081,1.599-0.238,2.478-0.493
			c0.104,0.272,0.208,0.543,0.313,0.814c-0.454,0.485-0.96,0.904-1.52,1.26c-1.117,0.802-2.433,1.386-3.621,2.08
			c-0.419,0.245-0.741,1.203,0.026,0.883c0.857-0.357,1.716-0.718,2.576-1.074c0.817-0.337,5.082-2.145,1.652,0.781
			c-1.569,1.339-4.086,2.837-6.338,3.484c-0.42,0.092-0.84,0.184-1.258,0.275c-0.45,0.098-0.964,1.078-0.229,0.98
			c0.332-0.046,0.708-0.122,1.115-0.228c2.71-0.554,5.415-0.983,8.171-1.327C325.516,264.568,325.289,265.097,324.207,265.526z"/>
		<path style="fill:#F9B845;" d="M212.143,208.842c-0.835,0.09-1.757,0.267-2.417,0.833c-0.403,0.347-0.72,0.761-0.78,1.309
			c-0.018,0.168-0.143,1.732,0.701,0.932c0.121-0.114,0.256-0.089,0.353-0.005c2.159-0.998,4.55-1.179,6.774-1.981
			C215.42,209.106,213.7,208.672,212.143,208.842z"/>
		<path style="opacity:0.5;fill:#F9B845;" d="M324.886,263.944c-2.756,0.344-5.461,0.773-8.171,1.327
			c-0.407,0.105-0.783,0.182-1.115,0.228c-0.735,0.098-0.221-0.883,0.229-0.98c0.417-0.092,0.838-0.184,1.258-0.275
			c2.252-0.647,4.77-2.146,6.338-3.484c3.43-2.926-0.835-1.118-1.652-0.781c-0.86,0.356-1.718,0.717-2.576,1.074
			c-0.767,0.32-0.446-0.638-0.026-0.883c0.459-0.269,0.939-0.523,1.418-0.776c-1.682,0.404-3.423,0.553-5.01,0.492
			c-5.925-0.226-11.597-3.192-15.738-7.329c-5.322-5.316-9.27-11.879-15.179-16.641c-0.284-0.229-0.574-0.452-0.865-0.677
			c-4.155-2.426-8.608-4.396-13.125-5.895c-5.292-1.755-12.366-4.284-18.118-2.723c-0.078,0.178-0.294,0.377-0.453,0.384
			c-0.29,0.013-0.56,0.025-0.821,0.039c-0.879,0.352-1.72,0.813-2.509,1.407c-0.4,0.301-0.446-0.207-0.169-0.441
			c0.295-0.253,0.598-0.485,0.906-0.701c-0.434,0.121-0.882,0.296-1.387,0.564c-0.359,0.191-0.461-0.184-0.289-0.44
			c0.442-0.66,0.612-0.793,1.059-1.329c-0.771,0.489-1.561,0.925-2.342,1.402c-0.328,0.2-0.675-0.022-0.386-0.377
			c0.506-0.624,1.356-1.552,1.656-2.45c-2.704,2.491-6.869,4.354-10.289,1.957c-3.47-2.433-4.462-5.97-4.677-9.779
			c-0.235,0.818-0.479,1.63-0.72,2.438c-0.077-0.69-0.138-1.384-0.181-2.079c1.27-5.483,3.217-10.966,1.486-16.583
			c-1.794-5.819-4.525-11.273-11.016-12.646c-0.354-0.074,0.151-0.576,0.289-0.622c0.753-0.246,1.408-0.145,2.095-0.008
			c-1.555-1.863-6.382-1.104-7.979-1.721c-0.37-0.144,0.065-0.69,0.271-0.77c0.483-0.187,1.044-0.23,1.578-0.315
			c-1.586-0.524-4.652-0.137-5.863-0.032c-1.887,0.164-3.686,0.709-5.552,0.889c-0.328,0.03-0.203-0.393-0.113-0.538
			c0.153-0.242,0.317-0.397,0.496-0.52c-2.253-0.073-4.526,0.413-6.714,1.242c0.96-0.254,1.934-0.462,2.927-0.594
			c0.305-0.041,0.444,0.312,0.238,0.517c-1.037,1.029-2.221,1.895-3.283,2.893c4.309-1.529,8.706-2.563,13.222-1.066
			c0.225,0.074,0.267,0.463,0.02,0.542c-1.281,0.403-2.591,0.715-3.785,1.308c3.442-0.102,6.553,0.08,9.682,1.936
			c2.805,1.664,5.299,3.965,6.148,7.213c0.061,0.232-0.199,0.388-0.394,0.326c-0.809-0.25-1.606-0.53-2.401-0.819
			c2.697,2.809,2.272,7.596,1.166,11.145c-1.799,5.781-5.805,9.873-11.403,12.181c-0.198,0.082-0.447-0.064-0.417-0.295
			c0.208-1.594,0.873-3.134,0.853-4.742c-1.223,1.212-2.376,2.097-4.295,1.615c-2.27-0.57-4.405-2.053-6.069-3.671
			c-1.539-1.495-2.691-3.347-4.256-4.816c-0.148-0.139-0.306-0.279-0.468-0.418c0.304,0.302,0.599,0.661,0.879,1.09
			c1.64,2.505,2.329,5.082,5.112,6.677c1.12,0.64,3.715,1.493,4.239,2.844c0.999,2.571-3.963,4.885-5.602,5.527
			c-0.195,0.075-0.289,0.038-0.32-0.047c-0.387,0.167-0.775,0.336-1.162,0.503c2.365,1.091,4.765,1.617,7.163,1.629
			c0.985,0.121,1.992,0.148,2.978,0.169c0.123,0.003,0.246-0.005,0.369-0.006c0.837-0.127,1.661-0.304,2.482-0.508
			c1.85-0.093,3.73-0.417,5.352-1.301c-0.153,0.271-0.321,0.535-0.515,0.78c-1.02,0.506-2.138,0.965-3.303,1.333
			c1.322,1.489,1.801,3.974,1.251,5.837c-0.269,0.914-0.278,0.945-0.693,1.816c-0.04,0.085-0.087,0.171-0.137,0.253
			c0.062-0.075,0.13-0.16,0.208-0.253c0.497-0.597,0.887-1.095,1.504-1.497c0.151-0.098,0.473-0.136,0.393,0.15
			c-0.273,0.972-1.007,2.518-1.156,3.794c0.454-0.946,0.974-1.918,1.761-2.462c0.323-0.225,0.667-0.093,0.513,0.324
			c-0.044,0.115-0.079,0.231-0.119,0.348c0.285-0.172,0.59-0.31,0.914-0.388c1.029-0.248,1.851-0.088,2.59,0.381
			c-0.551-1.025-1.157-2.134-1.029-3.164c0.132-1.061,1.222-1.197,2.085-0.851c2.493,1.002,4.442,3.39,6.153,5.493
			c-0.239-1.717-0.911-3.343-1.213-5.054c-0.052-0.298,0.324-0.455,0.517-0.238c1.395,1.58,2.369,3.404,3.066,5.358
			c0.059-1.439,0.371-2.952,1.879-2.161c2.184,1.145,3.056,4.706,3.41,6.868c0.655,4.003,0.228,8.245,1.329,12.163
			c0.648,2.3,1.786,4.31,3.235,6.202c0.871,1.136,2.058,2.217,2.334,3.674c0.041,0.216-0.187,0.409-0.394,0.325
			c-4.043-1.653-7.622-4.05-10.793-6.991c1.423,2.01,3.08,3.863,4.119,6.121c0.09,0.197-0.07,0.448-0.295,0.417
			c-2.781-0.373-4.726-2.311-6.67-4.165c1.239,2.02,2.948,3.723,4.272,5.698c0.149,0.224-0.037,0.593-0.332,0.463
			c-0.651-0.286-1.291-0.598-1.921-0.929c4.257,3.603,8.969,6.586,14.045,8.927c-0.923-0.779-1.82-1.593-2.77-2.39
			c-1.87-1.566-3.723-3.197-5.038-5.246c-0.081-0.128,0.225-0.408,0.322-0.277c1.478,1.974,3.477,3.31,5.395,4.829
			c2.194,1.74,4.242,3.533,6.767,4.806c5.178,2.607,10.968,3.337,16.684,3.73c5.781,0.395,11.578,0.623,17.313-0.457
			c2.729-0.514,5.613-0.849,8.243-1.776c1.765-0.624,4.081-1.16,5.853-2.113c-2.279-0.103-4.535-0.573-6.62-1.528
			c0.42,0.036,0.844,0.106,1.268,0.143c0.986,0.088,1.98,0.13,2.969,0.105c0.513-0.014,1.027-0.036,1.542-0.064
			c2.881,0.299,5.673,0.051,8.895-0.754c0.983-0.246,3.451-1.535,2.344-2.128c-4.177,0.587-8.396,0.629-12.545-0.313
			c0.756-0.252,1.53-0.464,2.315-0.645c0.908,0.116,2.706,0.772,10.989-0.087c2.208-0.303,4.405-0.769,6.583-1.383
			c1.656-0.467,3.223-1.042,4.774-1.792c0.705-0.313,1.375-0.69,2.007-1.132C325.289,265.097,325.516,264.568,324.886,263.944z
			 M293.131,262.237c-3.052,0.861-6.649,0.481-9.77,0.2c-4.461-0.404-8.361-2.142-11.992-4.488c1.561,1.395,2.979,2.913,3.271,4.962
			c0.034,0.238-0.179,0.381-0.394,0.325c-4.458-1.169-8.613-2.701-12.566-5.092c-1.898-1.147-3.837-2.322-5.483-3.822
			c-0.923-0.842-1.745-1.778-2.616-2.669c1.388,2.319,3.056,4.486,3.721,7.153c0.063,0.248-0.266,0.447-0.46,0.289
			c-2.494-2.018-5.145-3.949-7.229-6.414c-1.659-1.96-3.643-4.916-3.104-7.655c0.799-4.063,6.317-2.809,9.627-2.844
			c-1.759-0.952-3.764-1.345-5.591-2.167c-0.261-0.118-0.244-0.51,0.053-0.565c1.613-0.297,3.265-0.528,4.909-0.491
			c0.521,0.012,1.039,0.058,1.557,0.111c-0.728-0.163-1.462-0.314-2.207-0.429c-1.69-0.259-3.411-0.566-4.784-1.654
			c-0.122-0.098-0.17-0.28-0.067-0.41c1.228-1.58,3.416-1.884,5.295-1.914c2.542-0.04,5.053,0.358,7.554,0.77
			c1.805,0.298,3.572,0.772,5.273,1.407c-0.281-0.433-0.513-0.886-0.636-1.379c-0.427-1.726,1.889-1.302,2.844-1.034
			c3.383,0.949,6.299,2.971,8.845,5.346c2.584,2.41,5.097,5.031,7.314,7.785c1.295,1.61,6.44,8.037,1.208,8.027
			c-0.775-0.001-1.552-0.097-2.324-0.247c1.636,1.007,3.338,1.895,4.998,2.702C291.551,258.611,296.656,261.24,293.131,262.237z"/>
		<path style="fill:#5E2C00;" d="M205.129,220.804c-1.455-0.571-2.565-0.042-3.862,0.577c-3.189,1.523-6.266,3.291-9.462,4.816
			c-6.639,3.171-13.714,6.533-20.964,7.92c-0.099,0.019-0.246,0.281-0.092,0.264c6.251-0.744,11.702-3.398,17.502-5.645
			c3.092-1.199,6.113-2.656,9.032-4.219c2.239-1.197,4.714-3.191,7.354-2.865C204.961,221.693,205.563,220.975,205.129,220.804z"/>
		<path style="fill:#5E2C00;" d="M291.862,257.629c-0.212-0.115-0.649,0.38-0.435,0.523c0.583,0.394,1.171,0.779,1.764,1.155
			c1.234,0.616,1.143,1.499-0.273,2.648c-1.749,0.147-3.438,0.246-5.196,0.228c-3.471-0.04-6.838-0.803-10.02-2.146
			c-0.324-0.136-0.869,0.508-0.506,0.724c1.313,0.775,2.698,1.422,3.935,2.325c1.962,1.431-0.896,1.034-1.872,0.93
			c-4.459-0.48-8.097-1.548-11.968-3.79c-0.208-0.121-0.644,0.363-0.435,0.521c1.06,0.802,2.06,1.644,3.039,2.541
			c0.548,0.504,2.045,2.574,2.845,2.529c-1.671,0.094-3.745-1.046-5.257-1.656c-5.753-2.319-10.152-7.336-13.909-12.118
			c-0.113-0.143-0.446,0.167-0.357,0.308c2.351,3.655,5.097,7.116,8.405,9.954c0.03,0.026,0.064,0.047,0.094,0.073
			c0.132,1.177-2.07-0.113-2.239-0.198c-1.051-0.534-2.045-1.317-2.986-2.029c-1.762-1.335-3.376-2.857-4.961-4.393
			c-1.535-1.492-2.758-3.202-3.826-5.054c-0.449-0.776-0.807-1.613-1.201-2.418c-0.498-1.018-2.112-6.307,1.692-4.72
			c0.18,0.074,0.491-0.297,0.282-0.406c-1.715-0.89-2.857-0.327-3.453,1.403c-0.987,2.868,1.849,6.963,3.331,9.165
			c1.353,2.013,11.862,13.328,14.365,9.595c0.025-0.036,0.051-0.086,0.074-0.137c2.101,1.431,4.633,2.362,6.995,3.156
			c0.946,0.319,2.96,1.129,3.64-0.097c0.476-0.853-0.612-2.062-2.006-3.181c1.745,0.702,3.55,1.208,5.587,1.493
			c1.648,0.232,4.489,1.077,5.952-0.075c0.17-0.135,0.321-0.335,0.266-0.561c-0.129-0.532-0.543-1.015-1.095-1.454
			c3.68,0.896,7.471,1.022,11.348,0.482c0.905-0.126,1.829-0.755,2.045-1.684C295.954,259.436,293.038,258.27,291.862,257.629z"/>
		<g>
			<g>
				<path style="fill:#5E2C00;" d="M214.617,205.616c-0.237,2.509-1.952,4.399-3.836,4.222c-1.878-0.179-3.21-2.358-2.972-4.867
					c0.238-2.513,1.956-4.404,3.835-4.228C213.526,200.922,214.855,203.104,214.617,205.616z"/>
			</g>
			<g>
				<path style="fill:#FFFFFF;" d="M211.373,203.52c-0.073,0.765-0.6,1.335-1.167,1.282c-0.568-0.054-0.979-0.714-0.907-1.477
					c0.073-0.765,0.601-1.341,1.168-1.287C211.035,202.093,211.445,202.757,211.373,203.52z"/>
			</g>
		</g>
		<path style="fill:#5E2C00;" d="M191.727,212.825c-0.616-0.012-1.181,0.526-1.644,0.885c-0.336,0.259-0.592,0.591-0.856,0.921
			c-0.316,0.394-0.654,0.765-0.87,1.227c-0.064,0.137-0.115,0.445,0.103,0.491c0.684,0.151,1.361-0.624,1.831-1.012
			c0.432-0.358,1.072-1.201,1.076-1.802c0.042-0.016,0.084-0.028,0.122-0.034C191.744,213.469,192.145,212.832,191.727,212.825z"/>
	</g>
	<g>
		<g>
			<path style="fill:#5E2C00;" d="M96.64,305.972c-0.312-2.573-1.963-4.685-2.599-7.175c0-0.008-0.001-0.017,0-0.025
				c0.307-4.292,1.377-8.262,1.079-12.525c0.075-0.467,0.029-0.84-0.109-1.13c-0.005-0.039-0.008-0.077-0.013-0.115
				c-0.014-0.103-0.068-0.133-0.135-0.125c-0.647-0.825-2.235-0.754-3.499-0.369c-0.918,0.28-1.879,0.666-2.548,1.383
				c-0.207,0.223-0.291,0.46-0.306,0.707c-0.104,0.117-0.182,0.268-0.151,0.367c0.853,2.795,1.255,5.603,1.352,8.514
				c0.045,1.387-0.264,2.795-0.622,4.141c-2.826,1.875-6.357,1.603-9.607,1.789c-0.997,0.058-2.531-0.008-3.332,0.705
				c-0.748,0.669-0.423,1.35,0.521,1.475c0.023,0.398,0.033,0.745-0.101,1.148c-0.066,0.199-0.156,0.353-0.262,0.49
				c-0.923,0.279-1.819,0.744-1.664,1.556c0.103,0.536,0.922,0.68,1.787,0.684c0.824,0.195,1.448,0.505,1.944,1.219
				c0.207,0.301,0.362,0.654,0.472,1.002c0.016,0.048,0.015,0.1,0.012,0.15c-0.175,0.13-0.341,0.267-0.479,0.414
				c-0.147,0.158-0.424,0.679-0.053,0.769c1.564,0.378,3.225-0.298,4.736-0.789c1.743-0.267,3.484-0.605,5.117-1.224
				c1.354-0.512,2.731-0.909,4.086-1.406c1.29-0.472,2.176-0.434,3.492-0.456C96.459,307.132,96.713,306.581,96.64,305.972z"/>
			<path style="fill:#CA6F57;" d="M79.026,308.311c-0.279-0.435-0.618-0.733-1.007-0.943c0.187-0.022,0.342-0.039,0.438-0.047
				c3.084-0.245,6.13-0.56,9.16-1.138c-0.66,0.313-1.476,0.604-1.743,0.743c-1.163,0.607-2.31,1.036-3.556,1.436
				c-0.834,0.267-1.946,0.6-2.857,1.096C79.443,309.074,79.27,308.694,79.026,308.311z"/>
			<path style="fill:#CA6F57;" d="M93.664,306.44c-0.824,0.211-1.668,0.491-2.507,0.8c-0.297,0.112-0.595,0.225-0.893,0.336
				c-0.714,0.276-1.422,0.563-2.103,0.835c-0.11,0.044-0.224,0.078-0.335,0.119c0.44-0.18,0.882-0.365,1.326-0.555
				c-0.893,0.311-1.794,0.595-2.714,0.815c-2.227,0.529-4.681,1.608-6.997,1.505c-0.175-0.008-0.274-0.274-0.117-0.377
				c1.319-0.851,3.151-1.145,4.622-1.655c1.462-0.507,2.945-0.972,4.288-1.74c0.331-0.46,0.574-0.997,0.766-1.517
				c-3.967,0.818-8.304,1.496-12.365,1.388c-0.413-0.011-0.702-0.026-0.691-0.08c0.015-0.011,0.029-0.025,0.044-0.038
				c0.105-0.056,0.406-0.139,0.988-0.264c1.243-0.27,2.475-0.574,3.708-0.889c1.153-0.293,2.306-0.592,3.457-0.889
				c0.618-0.266,1.203-0.599,1.789-0.934c-0.341-0.082-0.681-0.168-1.021-0.255c-1.708-0.134-3.38-0.075-5.132-0.143
				c-0.254-0.001-0.507,0.006-0.76,0.025c-0.063,0.002-2.321-0.371-2.496-0.282c0.581-0.296,1.411-0.301,2.048-0.355
				c3.599-0.308,7.323,0.128,10.336-2.015c-0.025,0.085-0.048,0.173-0.071,0.258c-0.096,0.347-0.096,0.629,0.022,0.857
				c0.434-0.343,0.748-0.794,0.988-1.29c0.096-1.061,0.48-2.729,0.494-2.793c0.248-1.116,0.248-2.258,0.173-3.392
				c-0.159-2.466-0.59-4.751-1.497-7.062c0.038-0.366,0.136-0.707,0.371-0.877c0.476-0.343,1.022-0.567,1.569-0.757
				c0.718-0.251,1.514-0.436,2.275-0.427c0.761,0.008,1.067,0.393,1.24,0.893c0.085,3.361-0.426,6.449-0.864,9.779
				c-0.123,0.922-0.23,1.836-0.322,2.752c0.087,0.827,0.287,1.638,0.661,2.405c0.462,0.947,0.906,1.885,1.191,2.889
				c0.32,0.795,0.561,1.591,0.779,2.434C96.135,306.794,93.999,306.355,93.664,306.44z"/>
			<path style="fill:#CA6F57;" d="M95.916,305.945c-0.218-0.843-0.458-1.639-0.779-2.434c-0.285-1.004-0.729-1.941-1.191-2.889
				c-0.375-0.768-0.574-1.578-0.661-2.405c0.092-0.916,0.199-1.83,0.322-2.752c0.438-3.33,0.949-6.418,0.864-9.779
				c-0.173-0.5-0.479-0.885-1.24-0.893c-0.762-0.009-1.557,0.176-2.275,0.427c-0.547,0.189-1.094,0.414-1.569,0.757
				c-0.235,0.17-0.332,0.511-0.371,0.877c0.28,0.717,0.512,1.432,0.707,2.147c1.003,0.035,1.974,0.188,2.534,1.041
				c0.501,0.766,0.364,2.074,0.265,2.93c-0.161,1.385-0.513,2.74-0.662,4.125c-0.143,1.326-0.096,2.65,0.49,3.874
				c0.456,0.95,1.433,1.957,1.583,3.007c0.141,0.997-0.241,1.853-0.822,2.614c0.185-0.053,0.369-0.105,0.553-0.152
				C93.999,306.355,96.135,306.794,95.916,305.945z"/>
			<path style="fill:#CA6F57;" d="M77.201,303.627c1.093,0.052,3.39,0.08,5.371,0.143c-1.539,0.367-3.076,0.746-4.624,1.082
				c-0.204,0.045-0.559,0.107-0.962,0.197c0.022-0.049,0.044-0.098,0.064-0.149C77.224,304.438,77.247,304.051,77.201,303.627z"/>
		</g>
		<g>
			<path style="fill:#5E2C00;" d="M110.535,311.46c-0.311-2.573-1.962-4.685-2.598-7.175c0-0.008-0.001-0.017,0-0.025
				c0.307-4.291,1.378-8.261,1.08-12.523c0.074-0.469,0.028-0.841-0.111-1.13c-0.004-0.039-0.006-0.078-0.012-0.117
				c-0.014-0.103-0.068-0.133-0.135-0.123c-0.647-0.827-2.235-0.756-3.499-0.37c-0.919,0.279-1.88,0.666-2.548,1.382
				c-0.207,0.223-0.291,0.461-0.306,0.709c-0.105,0.115-0.182,0.266-0.151,0.365c0.852,2.795,1.256,5.604,1.351,8.514
				c0.045,1.387-0.263,2.795-0.622,4.141c-2.826,1.875-6.357,1.603-9.607,1.789c-0.997,0.058-2.532-0.008-3.332,0.705
				c-0.749,0.669-0.423,1.353,0.522,1.476c0.022,0.398,0.032,0.745-0.102,1.148c-0.065,0.199-0.156,0.352-0.262,0.491
				c-0.923,0.278-1.819,0.744-1.664,1.555c0.103,0.537,0.923,0.68,1.787,0.685c0.824,0.193,1.447,0.503,1.943,1.217
				c0.209,0.301,0.363,0.653,0.474,1.002c0.015,0.048,0.014,0.1,0.01,0.151c-0.175,0.129-0.34,0.265-0.478,0.413
				c-0.146,0.158-0.424,0.679-0.053,0.769c1.565,0.378,3.226-0.298,4.737-0.789c1.742-0.266,3.483-0.604,5.116-1.224
				c1.353-0.512,2.732-0.908,4.086-1.406c1.289-0.471,2.176-0.434,3.492-0.456C110.354,312.62,110.608,312.07,110.535,311.46z"/>
			<path style="fill:#CA6F57;" d="M92.921,313.801c-0.281-0.434-0.618-0.734-1.007-0.944c0.187-0.022,0.342-0.039,0.438-0.047
				c3.083-0.244,6.13-0.56,9.16-1.138c-0.66,0.313-1.476,0.604-1.742,0.743c-1.164,0.607-2.311,1.036-3.557,1.435
				c-0.834,0.267-1.946,0.603-2.856,1.098C93.34,314.563,93.166,314.183,92.921,313.801z"/>
			<path style="fill:#CA6F57;" d="M107.559,311.93c-0.823,0.21-1.667,0.491-2.507,0.799c-0.296,0.112-0.594,0.226-0.892,0.336
				c-0.715,0.276-1.421,0.563-2.103,0.836c-0.11,0.043-0.224,0.077-0.335,0.119c0.44-0.178,0.882-0.364,1.327-0.556
				c-0.894,0.311-1.795,0.596-2.716,0.814c-2.226,0.529-4.68,1.609-6.997,1.505c-0.174-0.007-0.274-0.275-0.115-0.376
				c1.319-0.852,3.15-1.146,4.622-1.656c1.462-0.506,2.945-0.972,4.286-1.74c0.331-0.46,0.575-0.996,0.767-1.516
				c-3.967,0.818-8.304,1.496-12.366,1.389c-0.411-0.012-0.7-0.027-0.69-0.081c0.015-0.012,0.029-0.026,0.044-0.039
				c0.105-0.056,0.406-0.138,0.988-0.264c1.244-0.27,2.476-0.574,3.708-0.888c1.153-0.293,2.305-0.592,3.458-0.889
				c0.617-0.266,1.202-0.6,1.788-0.934c-0.341-0.083-0.68-0.169-1.02-0.255c-1.709-0.133-3.381-0.076-5.134-0.142
				c-0.252-0.004-0.506,0.004-0.759,0.023c-0.063,0.002-2.321-0.372-2.496-0.282c0.581-0.297,1.41-0.301,2.048-0.354
				c3.599-0.307,7.323,0.128,10.336-2.016c-0.024,0.086-0.047,0.173-0.071,0.26c-0.097,0.345-0.097,0.628,0.021,0.854
				c0.435-0.342,0.75-0.794,0.989-1.29c0.097-1.061,0.48-2.73,0.494-2.793c0.247-1.115,0.247-2.258,0.174-3.392
				c-0.16-2.466-0.591-4.751-1.498-7.061c0.038-0.367,0.136-0.707,0.371-0.878c0.475-0.342,1.021-0.567,1.569-0.757
				c0.718-0.25,1.514-0.434,2.275-0.427c0.76,0.009,1.068,0.393,1.24,0.893c0.085,3.361-0.425,6.449-0.865,9.78
				c-0.121,0.921-0.229,1.835-0.32,2.752c0.086,0.826,0.286,1.638,0.661,2.404c0.462,0.947,0.905,1.885,1.191,2.89
				c0.32,0.795,0.561,1.591,0.779,2.434C110.032,312.282,107.896,311.845,107.559,311.93z"/>
			<path style="fill:#CA6F57;" d="M109.812,311.435c-0.218-0.843-0.458-1.639-0.779-2.434c-0.286-1.005-0.729-1.942-1.191-2.89
				c-0.375-0.767-0.574-1.578-0.661-2.404c0.091-0.917,0.199-1.831,0.32-2.752c0.439-3.331,0.95-6.419,0.865-9.78
				c-0.171-0.5-0.48-0.884-1.24-0.893c-0.762-0.008-1.557,0.177-2.275,0.427c-0.547,0.19-1.094,0.415-1.569,0.757
				c-0.235,0.171-0.333,0.511-0.371,0.878c0.281,0.717,0.512,1.431,0.707,2.148c1.003,0.033,1.974,0.186,2.534,1.04
				c0.501,0.765,0.364,2.073,0.264,2.929c-0.16,1.384-0.512,2.742-0.661,4.125c-0.144,1.327-0.096,2.65,0.491,3.874
				c0.454,0.951,1.432,1.957,1.582,3.007c0.142,0.997-0.24,1.853-0.822,2.614c0.185-0.053,0.369-0.103,0.552-0.151
				C107.896,311.845,110.032,312.282,109.812,311.435z"/>
			<path style="fill:#CA6F57;" d="M91.096,309.115c1.094,0.053,3.39,0.08,5.372,0.143c-1.539,0.367-3.076,0.747-4.625,1.082
				c-0.203,0.045-0.558,0.105-0.96,0.197c0.021-0.05,0.044-0.098,0.063-0.15C91.121,309.927,91.143,309.539,91.096,309.115z"/>
		</g>
		<path style="fill:#5E2C00;" d="M142.814,279.486c-0.02-0.049-0.054-0.082-0.103-0.101c-0.892-0.237-1.917,0.078-2.818,0.18
			c-0.312,0.035-0.621,0.081-0.932,0.13c1.798-0.992,3.4-2.381,3.505-3.884c0.006-0.074-0.046-0.152-0.116-0.176
			c-0.26-0.088-0.579-0.08-0.929-0.015c0.417-0.393,0.728-0.824,0.838-1.305c0.268-1.168-1.556-0.675-2.882-0.27
			c-2.595,0.21-4.931,0.238-7.541-0.376c-3.041-0.718-4.989-2.968-7.116-5.119c-3.491-3.531-7.17-7.048-11.45-9.608
			c-4.692-2.806-9.729-4.71-14.976-6.189c-3.314-0.934-6.981-1.457-10.054-0.042c-0.592,0.01-1.145,0.123-1.749,0.351
			c0.491-0.186,0.844-0.7,0.938-1.218c0.034-0.193-0.122-0.245-0.276-0.176c-0.524,0.231-0.924,0.622-1.451,0.882
			c-0.036,0.014-0.067,0.036-0.104,0.053c0.394-0.553,0.769-1.232,0.759-1.843c-0.004-0.261-0.333-0.102-0.43-0.007
			c-2.746,2.708-6.179,2.953-8.685-0.09c-1.43-1.734-1.79-3.962-2.02-6.132c0.959-3.572,1.594-7.258,0.646-10.875
			c-0.981-3.751-2.846-6.967-6.21-8.507c0.159-0.094,0.275-0.313,0.243-0.469c-0.379-1.797-2.99-1.719-4.855-1.839
			c0.104-0.033,0.206-0.073,0.303-0.128c0.139-0.078,0.418-0.351,0.247-0.525c-0.829-0.84-3.188-0.474-4.206-0.439
			c-1.075,0.035-2.119,0.168-3.177,0.354c-0.249,0.01-0.481,0.057-0.698,0.141c0.012-0.01,0.021-0.016,0.033-0.026
			c0.149-0.122,0.43-0.551,0.063-0.592c-4.668-0.514-10.062,2.44-13.287,5.593c-3.392,3.314-5.812,7.983-6.087,12.769
			c-0.854,0.293-1.559,0.789-2.185,1.663c-0.61,0.854-0.942,1.962-1.369,2.913c-0.797,1.772-1.933,3.296-3.233,4.728
			c-1.979,2.185-4.272,4.067-6.265,6.239c-0.674,0.737-2.573,2.837-1.757,3.991c0.906,1.278,3.077,0.931,4.389,0.77
			c2.959-0.36,5.864-1.245,8.706-2.117c5.069-1.557,9.979-3.638,14.849-5.746c1.649,1.393,3.775,1.831,5.953,1.696
			c1.483,0.275,3.115,0.105,4.671-0.308c1.578,2.015,0.898,4.29-0.09,6.377c-0.143,0.304,0.151,0.357,0.36,0.227
			c0.349-0.217,0.625-0.377,0.886-0.7c0.183-0.226,1.066-1.617,0.638-0.641c-0.332,0.756-0.88,2.244-0.629,3.084
			c0.087,0.293,0.481-0.097,0.54-0.202c0.182-0.318,0.378-0.772,0.6-1.203c-0.685,2.34-0.775,4.65-0.035,7.095
			c0.998,3.297,2.993,5.996,5.042,8.69c4.326,5.693,11.029,10.029,17.774,12.313c0.102,0.064,0.202,0.132,0.306,0.193
			c3.751,2.228,8.508,2.878,12.795,3.071c4.339,0.197,8.446,0.243,12.761-0.352c2.183-0.3,4.457-0.749,6.538-1.484
			c1.526-0.538,3.522-0.978,4.8-1.978c0.055-0.044,0.1-0.095,0.136-0.148c0.368-0.007,0.737-0.022,1.104-0.053
			c1.808-0.156,4.136-0.546,5.701-1.525c0.71-0.445,1.51-0.961,1.087-1.724c1.266-0.225,2.522-0.508,3.766-0.826
			C137.653,283.627,143.335,281.974,142.814,279.486z"/>
		<path style="fill:#ED856A;" d="M27.389,259.729c-0.634,0.077-1.263,0.056-1.896,0.001c-2.827-0.237-0.541-3.234,0.522-4.397
			c1.492-1.627,3.179-3.09,4.747-4.642c1.454-1.438,2.725-2.967,3.768-4.729c1.127-1.908,1.608-4.052,3.331-5.231
			c0.851-0.426,1.759-0.604,2.468,0.156c0.583,0.626,0.862,0.726,1.658,0.817c0.396,0.045,0.992-0.271,1.3-0.476
			c1.865-1.23,3.762-2.438,5.792-0.711c0.897,0.763,1.326,2.365,1.898,3.376c0.506,0.896,1.172,1.606,2.002,2.203
			c0.764,0.55,1.729,0.856,2.591,1.214c2.661,1.108-1.366,3.421-2.357,3.99C44.747,254.41,36.434,258.627,27.389,259.729z"/>
		<path style="fill:#CA6F57;" d="M35.603,245.034c1.021-1.646,2.218-3.998,3.974-4.605c-0.547-0.148-1.145,0.017-1.717,0.304
			c-1.722,1.18-2.203,3.323-3.331,5.231c-0.96,1.625-2.124,3.045-3.437,4.384C32.802,248.745,34.371,247.018,35.603,245.034z"/>
		<path style="opacity:0.4;fill:#CA6F57;" d="M55.568,247.313c-0.861-0.357-1.827-0.664-2.591-1.214
			c-0.829-0.597-1.495-1.307-2.002-2.203c-0.572-1.011-1.001-2.613-1.898-3.376c-2.029-1.727-3.926-0.52-5.792,0.711
			c-0.308,0.204-0.904,0.521-1.3,0.476c-0.331-0.037-0.57-0.079-0.782-0.156c0.356,0.591,0.798,1.093,1.618,0.843
			c1.197-0.363,2.066-1.551,3.42-1.318c1.024,0.176,1.722,1.248,2.158,2.097c0.645,1.254,1.059,2.625,1.772,3.844
			c0.05,0.085,0.009,0.194-0.057,0.255c-3.782,3.479-8.752,5.536-13.499,7.334c-4.092,1.549-8.031,3.187-12.363,3.391
			c-0.295,0.875-0.117,1.623,1.238,1.736c0.633,0.055,1.262,0.076,1.896-0.001c9.045-1.103,17.358-5.319,25.822-8.427
			C54.202,250.733,58.229,248.421,55.568,247.313z"/>
		<path style="fill:#FFD76B;" d="M141.163,281.196c-0.46,0.32-0.945,0.596-1.457,0.821c-1.125,0.545-2.264,0.962-3.465,1.301
			c-1.582,0.446-3.176,0.784-4.779,1.004c-6.014,0.624-7.318,0.148-7.978,0.063c-0.569,0.132-1.131,0.286-1.68,0.469
			c3.012,0.684,6.074,0.653,9.106,0.227c0.804,0.431-0.988,1.366-1.702,1.544c-2.339,0.586-4.365,0.766-6.457,0.548
			c-0.374,0.02-0.747,0.037-1.12,0.047c-0.718,0.018-1.439-0.014-2.155-0.077c-0.308-0.026-0.615-0.077-0.921-0.104
			c1.514,0.693,3.151,1.035,4.807,1.11c-1.288,0.691-2.969,1.081-4.25,1.533c-1.91,0.674-4.002,0.918-5.984,1.29
			c-4.163,0.784-8.37,0.618-12.567,0.331c-4.149-0.284-8.352-0.814-12.111-2.707c-1.832-0.923-3.319-2.225-4.912-3.487
			c-1.393-1.103-2.843-2.073-3.917-3.506c-0.07-0.095-0.292,0.108-0.234,0.201c0.955,1.487,2.3,2.671,3.657,3.809
			c0.69,0.577,1.341,1.169,2.011,1.734c-5.138-2.37-9.773-5.628-13.695-9.78c-4.479-4.744-8.479-11.58-6.038-18.165
			c0.113-0.304-0.138-0.399-0.373-0.236c-0.571,0.396-0.948,1.101-1.278,1.788c0.109-0.927,0.641-2.049,0.839-2.754
			c0.058-0.208-0.176-0.182-0.285-0.11c-0.448,0.293-0.73,0.655-1.091,1.088c-0.056,0.067-0.106,0.128-0.151,0.184
			c0.037-0.06,0.071-0.122,0.1-0.184c0.3-0.633,0.308-0.655,0.503-1.319c0.399-1.353,0.052-3.155-0.908-4.236
			c0.845-0.268,1.657-0.601,2.398-0.969c0.141-0.178,0.263-0.369,0.374-0.566c-1.178,0.643-2.542,0.878-3.885,0.944
			c-0.597,0.149-1.195,0.278-1.803,0.37c-0.088,0.001-0.178,0.006-0.268,0.004c-0.715-0.017-1.447-0.035-2.161-0.123
			c-1.741-0.009-3.484-0.391-5.201-1.183c0.281-0.121,0.563-0.243,0.843-0.364c0.022,0.062,0.091,0.089,0.232,0.033
			c1.189-0.467,4.792-2.146,4.066-4.012c-0.38-0.98-2.264-1.601-3.077-2.064c-2.021-1.157-2.521-3.028-3.711-4.848
			c-1.969-3.008-4.782-1.46-7.303-0.129c-2.269,1.199-1.971-1.52-3.559-1.276c-0.345,0.053-0.668,0.171-0.979,0.328
			c0.769-4.236,2.38-8.664,5.555-11.709c3.1-2.973,7.781-5.932,12.348-5.786c-0.128,0.089-0.249,0.201-0.36,0.378
			c-0.065,0.105-0.155,0.413,0.083,0.39c1.354-0.131,2.661-0.525,4.031-0.643c0.879-0.077,3.104-0.358,4.256,0.022
			c-0.388,0.063-0.796,0.094-1.146,0.229c-0.149,0.057-0.465,0.454-0.196,0.559c1.16,0.447,4.664-0.105,5.792,1.248
			c-0.499-0.099-0.975-0.172-1.521,0.006c-0.1,0.033-0.466,0.399-0.209,0.452c4.712,0.995,6.694,4.955,7.996,9.179
			c1.257,4.078-0.157,8.058-1.079,12.037c0.031,0.505,0.076,1.008,0.131,1.51c0.175-0.586,0.352-1.176,0.523-1.77
			c0.155,2.767,0.877,5.333,3.395,7.099c2.482,1.739,5.505,0.389,7.468-1.421c-0.217,0.652-0.835,1.326-1.202,1.779
			c-0.21,0.258,0.043,0.419,0.281,0.272c0.567-0.347,1.14-0.662,1.699-1.017c-0.324,0.389-0.448,0.484-0.769,0.964
			c-0.124,0.186-0.049,0.46,0.211,0.32c0.366-0.195,0.692-0.322,1.006-0.409c-0.225,0.156-0.443,0.325-0.659,0.508
			c-0.2,0.17-0.167,0.54,0.124,0.321c0.572-0.433,1.183-0.767,1.822-1.021c0.189-0.011,0.385-0.02,0.596-0.029
			c0.115-0.004,0.272-0.148,0.329-0.278c4.175-1.133,9.31,0.703,13.151,1.977c5.004,1.66,9.911,4.104,14.083,7.33
			c3.987,3.081,7.485,6.843,11.095,10.344c2.727,2.646,8.113,2.966,11.733,2.046c0.591-0.059,1.16-0.174,1.799-0.358
			c0.076,0.197,0.151,0.395,0.227,0.59c-0.33,0.352-0.697,0.657-1.104,0.914c-0.811,0.583-1.766,1.007-2.627,1.512
			c-0.305,0.177-0.538,0.872,0.018,0.64c0.623-0.26,1.246-0.521,1.869-0.779c0.594-0.244,3.689-1.558,1.2,0.566
			c-1.139,0.972-2.966,2.06-4.602,2.53c-0.304,0.066-0.609,0.133-0.913,0.199c-0.326,0.071-0.699,0.783-0.165,0.711
			c0.241-0.032,0.514-0.087,0.809-0.165c1.967-0.401,3.931-0.713,5.932-0.962C142.113,280.501,141.949,280.885,141.163,281.196z"/>
		<path style="fill:#F9B845;" d="M59.817,240.05c-0.606,0.064-1.276,0.193-1.754,0.604c-0.293,0.252-0.522,0.554-0.567,0.951
			c-0.014,0.121-0.104,1.257,0.508,0.676c0.087-0.083,0.186-0.063,0.256-0.003c1.568-0.725,3.302-0.856,4.917-1.438
			C62.196,240.241,60.946,239.926,59.817,240.05z"/>
		<path style="opacity:0.5;fill:#F9B845;" d="M141.656,280.049c-2.001,0.249-3.964,0.561-5.932,0.962
			c-0.295,0.078-0.568,0.133-0.809,0.165c-0.533,0.072-0.16-0.64,0.165-0.711c0.304-0.066,0.609-0.133,0.913-0.199
			c1.636-0.471,3.463-1.559,4.602-2.53c2.489-2.124-0.607-0.81-1.2-0.566c-0.624,0.259-1.247,0.519-1.869,0.779
			c-0.557,0.232-0.324-0.463-0.018-0.64c0.333-0.196,0.681-0.38,1.028-0.564c-1.221,0.294-2.484,0.402-3.636,0.357
			c-4.302-0.164-8.418-2.318-11.424-5.319c-3.864-3.86-6.73-8.624-11.019-12.08c-0.206-0.167-0.416-0.328-0.627-0.491
			c-3.016-1.762-6.249-3.191-9.528-4.279c-3.841-1.273-8.976-3.109-13.151-1.977c-0.057,0.13-0.214,0.274-0.329,0.278
			c-0.211,0.01-0.406,0.019-0.596,0.029c-0.639,0.255-1.25,0.589-1.822,1.021c-0.291,0.219-0.324-0.151-0.124-0.321
			c0.215-0.183,0.434-0.352,0.659-0.508c-0.315,0.087-0.641,0.214-1.006,0.409c-0.26,0.14-0.335-0.134-0.211-0.32
			c0.321-0.479,0.445-0.575,0.769-0.964c-0.559,0.354-1.132,0.67-1.699,1.017c-0.238,0.146-0.491-0.015-0.281-0.272
			c0.368-0.453,0.985-1.127,1.202-1.779c-1.963,1.809-4.986,3.16-7.468,1.421c-2.519-1.766-3.24-4.332-3.395-7.099
			c-0.171,0.594-0.348,1.184-0.523,1.77c-0.056-0.502-0.1-1.005-0.131-1.51c0.921-3.98,2.336-7.959,1.079-12.037
			c-1.301-4.224-3.284-8.184-7.996-9.179c-0.257-0.054,0.11-0.419,0.209-0.452c0.546-0.178,1.022-0.104,1.521-0.006
			c-1.128-1.353-4.632-0.801-5.792-1.248c-0.269-0.105,0.047-0.502,0.196-0.559c0.35-0.136,0.758-0.167,1.146-0.229
			c-1.152-0.381-3.377-0.1-4.256-0.022c-1.37,0.118-2.676,0.513-4.031,0.643c-0.238,0.023-0.148-0.284-0.083-0.39
			c0.111-0.177,0.231-0.289,0.36-0.378c-1.636-0.054-3.285,0.3-4.874,0.901c0.697-0.184,1.404-0.335,2.125-0.431
			c0.222-0.029,0.323,0.227,0.173,0.375c-0.753,0.747-1.612,1.375-2.383,2.099c3.127-1.11,6.319-1.859,9.598-0.773
			c0.163,0.054,0.193,0.336,0.014,0.392c-0.93,0.294-1.881,0.52-2.748,0.95c2.499-0.073,4.756,0.058,7.028,1.405
			c2.037,1.209,3.847,2.879,4.463,5.236c0.044,0.169-0.144,0.281-0.286,0.236c-0.587-0.182-1.166-0.384-1.743-0.595
			c1.958,2.039,1.649,5.514,0.847,8.091c-1.307,4.196-4.214,7.167-8.278,8.842c-0.143,0.059-0.324-0.046-0.302-0.215
			c0.152-1.156,0.634-2.273,0.619-3.441c-0.888,0.879-1.724,1.522-3.118,1.172c-1.648-0.413-3.197-1.489-4.405-2.664
			c-1.117-1.086-1.954-2.43-3.089-3.496c-0.108-0.101-0.223-0.202-0.34-0.304c0.221,0.22,0.435,0.48,0.638,0.791
			c1.19,1.819,1.691,3.691,3.711,4.848c0.813,0.464,2.697,1.085,3.077,2.064c0.726,1.865-2.878,3.545-4.066,4.012
			c-0.141,0.056-0.209,0.028-0.232-0.033c-0.281,0.121-0.562,0.243-0.843,0.364c1.716,0.792,3.459,1.174,5.201,1.183
			c0.714,0.088,1.445,0.107,2.161,0.123c0.09,0.002,0.18-0.003,0.268-0.004c0.608-0.092,1.205-0.221,1.803-0.37
			c1.342-0.066,2.707-0.302,3.885-0.944c-0.112,0.197-0.233,0.389-0.374,0.566c-0.741,0.368-1.552,0.701-2.398,0.969
			c0.96,1.081,1.307,2.884,0.908,4.236c-0.195,0.664-0.203,0.686-0.503,1.319c-0.029,0.062-0.063,0.124-0.1,0.184
			c0.045-0.056,0.096-0.116,0.151-0.184c0.361-0.433,0.643-0.795,1.091-1.088c0.109-0.071,0.343-0.098,0.285,0.11
			c-0.199,0.705-0.73,1.827-0.839,2.754c0.33-0.688,0.706-1.393,1.278-1.788c0.235-0.163,0.485-0.067,0.373,0.236
			c-0.031,0.083-0.057,0.168-0.086,0.252c0.207-0.125,0.427-0.224,0.663-0.281c0.747-0.181,1.343-0.063,1.88,0.276
			c-0.401-0.744-0.84-1.549-0.748-2.297c0.096-0.77,0.888-0.869,1.514-0.618c1.811,0.728,3.225,2.461,4.466,3.988
			c-0.173-1.247-0.661-2.427-0.879-3.668c-0.039-0.216,0.235-0.331,0.374-0.174c1.012,1.146,1.72,2.471,2.226,3.89
			c0.042-1.045,0.268-2.143,1.364-1.568c1.585,0.831,2.219,3.416,2.475,4.985c0.476,2.906,0.165,5.985,0.965,8.829
			c0.47,1.669,1.296,3.128,2.349,4.503c0.631,0.824,1.493,1.608,1.693,2.665c0.029,0.158-0.135,0.298-0.286,0.237
			c-2.935-1.201-5.533-2.94-7.834-5.075c1.033,1.459,2.235,2.804,2.989,4.443c0.066,0.143-0.05,0.325-0.214,0.302
			c-2.019-0.271-3.43-1.676-4.842-3.023c0.9,1.467,2.14,2.704,3.102,4.138c0.108,0.162-0.026,0.43-0.241,0.336
			c-0.473-0.209-0.937-0.435-1.394-0.675c3.09,2.616,6.509,4.78,10.195,6.48c-0.67-0.565-1.321-1.157-2.011-1.734
			c-1.357-1.138-2.703-2.321-3.657-3.809c-0.059-0.093,0.164-0.296,0.234-0.201c1.074,1.433,2.524,2.402,3.917,3.506
			c1.592,1.263,3.08,2.564,4.912,3.487c3.759,1.893,7.962,2.423,12.111,2.707c4.197,0.287,8.405,0.453,12.567-0.331
			c1.981-0.372,4.074-0.616,5.984-1.29c1.281-0.452,2.962-0.842,4.25-1.533c-1.655-0.075-3.293-0.417-4.807-1.11
			c0.306,0.027,0.613,0.078,0.921,0.104c0.716,0.063,1.437,0.095,2.155,0.077c0.373-0.01,0.746-0.026,1.12-0.047
			c2.092,0.218,4.118,0.038,6.457-0.548c0.714-0.178,2.506-1.113,1.702-1.544c-3.032,0.427-6.094,0.457-9.106-0.227
			c0.549-0.183,1.11-0.337,1.68-0.469c0.66,0.086,1.964,0.561,7.978-0.063c1.603-0.22,3.197-0.558,4.779-1.004
			c1.201-0.339,2.34-0.756,3.465-1.301c0.512-0.226,0.998-0.501,1.457-0.821C141.949,280.885,142.113,280.501,141.656,280.049z
			 M118.605,278.81c-2.216,0.624-4.826,0.349-7.092,0.144c-3.238-0.292-6.069-1.553-8.704-3.257
			c1.133,1.013,2.162,2.115,2.374,3.603c0.025,0.172-0.13,0.276-0.286,0.235c-3.236-0.848-6.251-1.961-9.121-3.695
			c-1.379-0.834-2.786-1.686-3.98-2.775c-0.67-0.611-1.267-1.291-1.898-1.938c1.008,1.684,2.219,3.257,2.701,5.193
			c0.045,0.179-0.193,0.325-0.334,0.209c-1.81-1.464-3.734-2.866-5.247-4.655c-1.204-1.424-2.645-3.568-2.254-5.558
			c0.581-2.949,4.587-2.039,6.989-2.064c-1.277-0.691-2.732-0.977-4.058-1.574c-0.189-0.085-0.177-0.369,0.038-0.409
			c1.171-0.216,2.37-0.384,3.564-0.357c0.377,0.009,0.753,0.043,1.129,0.081c-0.528-0.118-1.061-0.228-1.602-0.311
			c-1.227-0.188-2.476-0.41-3.473-1.201c-0.089-0.07-0.124-0.202-0.048-0.297c0.89-1.147,2.479-1.368,3.843-1.389
			c1.845-0.029,3.668,0.26,5.483,0.558c1.311,0.217,2.594,0.561,3.829,1.022c-0.205-0.314-0.373-0.644-0.461-1.002
			c-0.311-1.253,1.371-0.944,2.064-0.751c2.455,0.689,4.572,2.156,6.42,3.881c1.876,1.75,3.7,3.652,5.309,5.65
			c0.94,1.169,4.676,5.836,0.877,5.828c-0.563-0.002-1.126-0.07-1.686-0.18c1.187,0.73,2.423,1.375,3.628,1.962
			C117.459,276.176,121.165,278.086,118.605,278.81z"/>
		<path style="fill:#5E2C00;" d="M54.725,248.733c-1.056-0.415-1.862-0.031-2.803,0.418c-2.315,1.105-4.549,2.389-6.869,3.497
			c-4.82,2.302-9.955,4.741-15.218,5.748c-0.071,0.014-0.178,0.205-0.066,0.191c4.537-0.54,8.494-2.467,12.705-4.099
			c2.245-0.869,4.437-1.928,6.557-3.061c1.625-0.868,3.421-2.315,5.338-2.08C54.604,249.378,55.04,248.857,54.725,248.733z"/>
		<path style="fill:#5E2C00;" d="M117.684,275.464c-0.152-0.083-0.47,0.275-0.314,0.38c0.422,0.285,0.85,0.565,1.28,0.838
			c0.896,0.447,0.83,1.089-0.198,1.923c-1.27,0.108-2.495,0.179-3.771,0.165c-2.52-0.028-4.965-0.582-7.274-1.557
			c-0.235-0.099-0.631,0.369-0.367,0.525c0.953,0.563,1.958,1.032,2.856,1.688c1.423,1.039-0.651,0.752-1.358,0.675
			c-3.237-0.349-5.878-1.122-8.688-2.751c-0.15-0.087-0.467,0.265-0.315,0.379c0.77,0.582,1.496,1.192,2.206,1.844
			c0.398,0.365,1.484,1.869,2.065,1.837c-1.213,0.068-2.717-0.76-3.816-1.202c-4.175-1.685-7.369-5.326-10.096-8.798
			c-0.082-0.103-0.324,0.123-0.259,0.224c1.706,2.653,3.699,5.166,6.102,7.226c0.021,0.02,0.046,0.034,0.068,0.055
			c0.096,0.853-1.502-0.084-1.625-0.146c-0.763-0.387-1.484-0.955-2.168-1.473c-1.279-0.968-2.45-2.073-3.6-3.189
			c-1.115-1.084-2.003-2.325-2.778-3.669c-0.326-0.564-0.585-1.172-0.871-1.755c-0.361-0.739-1.534-4.577,1.228-3.427
			c0.131,0.055,0.357-0.215,0.206-0.294c-1.245-0.647-2.075-0.237-2.506,1.018c-0.717,2.082,1.342,5.055,2.417,6.653
			c0.982,1.46,8.61,9.675,10.427,6.965c0.018-0.026,0.037-0.063,0.053-0.1c1.526,1.038,3.364,1.715,5.078,2.291
			c0.687,0.232,2.148,0.82,2.642-0.07c0.345-0.619-0.443-1.496-1.456-2.309c1.267,0.511,2.577,0.877,4.055,1.085
			c1.196,0.168,3.259,0.781,4.32-0.056c0.124-0.098,0.233-0.242,0.192-0.407c-0.093-0.385-0.394-0.736-0.794-1.055
			c2.671,0.65,5.423,0.742,8.237,0.351c0.657-0.092,1.328-0.548,1.485-1.224C120.654,276.775,118.538,275.928,117.684,275.464z"/>
		<g>
			<g>
				<path style="fill:#5E2C00;" d="M61.613,237.708c-0.172,1.821-1.417,3.194-2.784,3.065c-1.364-0.131-2.331-1.713-2.158-3.533
					c0.172-1.825,1.42-3.197,2.783-3.069C60.82,234.301,61.786,235.885,61.613,237.708z"/>
			</g>
			<g>
				<path style="fill:#FFFFFF;" d="M59.257,236.186c-0.052,0.555-0.435,0.969-0.847,0.93c-0.412-0.038-0.709-0.517-0.658-1.072
					c0.053-0.554,0.436-0.972,0.848-0.933C59.013,235.15,59.311,235.632,59.257,236.186z"/>
			</g>
		</g>
		<path style="fill:#5E2C00;" d="M44.998,242.94c-0.447-0.008-0.858,0.383-1.193,0.643c-0.245,0.189-0.43,0.43-0.622,0.668
			c-0.23,0.286-0.475,0.556-0.631,0.891c-0.047,0.1-0.083,0.324,0.074,0.357c0.498,0.109,0.988-0.454,1.329-0.734
			c0.314-0.262,0.779-0.872,0.782-1.308c0.031-0.013,0.062-0.021,0.089-0.025C45.009,243.408,45.3,242.946,44.998,242.94z"/>
	</g>
</g>
</svg>
