<?xml version="1.0" encoding="utf-8"?>
<!-- Generator: Adobe Illustrator 27.5.0, SVG Export Plug-In . SVG Version: 6.00 Build 0)  -->
<svg version="1.1" id="Layer_1" xmlns="http://www.w3.org/2000/svg" xmlns:xlink="http://www.w3.org/1999/xlink" x="0px" y="0px"
	 viewBox="0 0 4000 4000" style="enable-background:new 0 0 4000 4000;" xml:space="preserve">
<g>
	<g>
		<rect style="fill:#FFD7D7;" width="4000" height="4000"/>
	</g>
	<g>
		<g>
			<g>
				<path style="fill:#FFCCCC;" d="M2847.536,2387.887c24.693-56.795,151.545-128.083,235.41-65.026
					c72.983,54.874,56.795,175.323,23.047,177.792c-33.748,2.469-15.365-69.141-55.423-104.81
					c-36.555-32.549-105.907-1.098-138.832,104.863L2847.536,2387.887z"/>
			</g>
			<g style="opacity:0.8;">
				<path style="fill:#FFFFFF;" d="M3082.947,2322.861c-83.866-63.057-210.718,8.231-235.41,65.026l16.354,28.739
					c57.958-91.14,163.773-110.936,217.828-55.839c39.251,40.007,35.712,102.27,29.277,138.518
					C3141.146,2485.997,3152.208,2374.937,3082.947,2322.861z"/>
			</g>
			<g>
				<path style="fill:#EDA4A4;" d="M3120.281,2491.513c-8.84-14.204-14.678-43.596-31.447-92.045
					c-26.438-76.381-137.472-82.309-215.86,33.12l38.764,68.118c32.925-105.96,102.277-137.411,138.832-104.863
					c40.058,35.668,21.675,107.279,55.423,104.81C3111.28,2500.267,3116.132,2496.983,3120.281,2491.513z"/>
			</g>
			<g>
				<path style="fill:#3F0021;" d="M3103.934,2520.71c-31.499,0-38.398-32.881-43.018-54.897
					c-4.111-19.6-8.774-41.816-23.633-55.049c-9.834-8.76-21.523-7.915-29.58-5.674c-23.985,6.665-56.782,36.841-76.885,101.543
					l-38.164-11.855c21.128-67.983,60.137-115.903,104.351-128.189c24.59-6.831,48.955-1.606,66.851,14.331
					c24.692,21.987,31.328,53.599,36.172,76.685c1.357,6.475,3.242,15.454,5.161,20.723c3.525-5.42,8.565-18.018,9.287-38.647
					c0.542-15.571-0.991-68.862-43.535-100.845c-34.654-26.06-75.196-22.749-103.101-15.386
					c-49.849,13.154-90.996,47.143-101.978,72.407l-36.65-15.933c17.422-40.073,71.436-80.073,128.433-95.112
					c51.533-13.594,100.288-5.752,137.309,22.08c55.303,41.577,69.067,118.691,53.945,170.142
					c-7.734,26.313-22.842,42.188-41.45,43.545C3106.243,2520.666,3105.072,2520.71,3103.934,2520.71z"/>
			</g>
		</g>
		<g>
			<g>
				<path style="fill:#FFCCCC;" d="M1738.861,3093.085c121.038,112.912,474.057,193.854,782.864,165.967v-933.903
					c0,0-1032.191,257.622-1053.617,496.88S1738.861,3093.085,1738.861,3093.085z"/>
			</g>
			<g>
				<path style="fill:#EDA4A4;" d="M2059.742,2998.169c-50.882,68.389-221.27,80.462-268.447,36.275l-9.894,91.158
					c148.003,95.349,462.092,158.576,740.323,133.449V3112.75l-27.654-85.605c-8.396,54.376-50.568,55.057-28.122-27.246
					L2059.742,2998.169z"/>
			</g>
			<g>
				<path style="fill:#EDA4A4;" d="M2505.847,2329.205c-130.079,33.631-1017.884,271.108-1037.74,492.824
					c-2.894,32.312-0.028,60.809,7.025,85.986C1864.61,2964.658,2474.085,2783.435,2505.847,2329.205z"/>
			</g>
			<g>
				<path style="fill:#3F0021;" d="M2397.972,3288.415c-268.901,0.01-553.589-70.737-669.678-172.559
					c-21.66-3.252-83.521-14.814-144.204-47.461c-101.182-54.438-149.546-140.371-139.863-248.506
					c9.927-110.86,190.02-228.149,550.571-358.569c258.887-93.647,518.53-158.789,521.123-159.434l29.78-7.437v986.509
					l-21.816,1.973C2482.811,3286.637,2440.57,3288.415,2397.972,3288.415z M2497.752,2356.105
					c-75.215,19.776-281.396,76.045-486.958,150.42c-440.942,159.541-514.312,267.495-518.804,317.642
					c-7.949,88.77,30.679,156.729,114.819,201.997c65.493,35.234,133.96,43.013,134.644,43.086l7.93,0.864l5.835,5.439
					c55.557,51.831,168.462,99.175,309.751,129.888c140.947,30.64,293.721,41.689,432.783,31.514V2356.105z"/>
			</g>
		</g>
		<g>
			<g>
				<path style="fill:#FFCCCC;" d="M1374.242,2796.522c23.126,331.253,158.145,529.529,158.145,529.529h317.309
					c0,0-45.913-215.281-61.217-308.127l-176.51-308.977L1374.242,2796.522z"/>
			</g>
			<g>
				<path style="fill:#FFCCCC;" d="M1374.242,2796.522c23.126,331.253,158.145,529.529,158.145,529.529h317.309
					c0,0-45.913-215.281-61.217-308.127l-176.51-308.977L1374.242,2796.522z"/>
			</g>
			<g>
				<path style="fill:#EDA4A4;" d="M1773.093,3326.051h76.602c0,0-45.913-215.281-61.217-308.127
					C1765.38,3092.786,1767.694,3229.788,1773.093,3326.051z"/>
			</g>
			<g>
				<path style="fill:#EDA4A4;" d="M1374.242,2796.521c2.247,32.181,5.56,63.089,9.693,92.7
					c98.146,26.955,219.011,35.22,344.718,23.979l-116.685-204.254L1374.242,2796.521z"/>
			</g>
			<g>
				<path style="fill:#FFA4A4;" d="M1827.468,3219.686C1827.468,3219.686,1827.468,3219.686,1827.468,3219.686
					c-47.833-10.787-210.396-36.815-354.151-7.105c31.983,73.673,59.069,113.47,59.069,113.47h292.354
					c8.496-7.776,15.154-16.268,19.579-25.403C1840.235,3281.257,1834.19,3252.381,1827.468,3219.686z"/>
			</g>
			<g style="opacity:0.8;">
				<path style="fill:#FFFFFF;" d="M1426.801,2777.16l-52.559,19.362c23.126,331.253,158.144,529.529,158.144,529.529h59.008
					C1533.848,3200.892,1448.169,2985.999,1426.801,2777.16z"/>
			</g>
			<g>
				<path style="fill:#E56A6A;" d="M1773.093,3326.051h51.647c8.496-7.776,15.154-16.268,19.579-25.403
					c-4.084-19.391-10.129-48.266-16.851-80.961c0,0,0,0,0,0c-12.385-2.793-32.511-6.606-57.963-10.211
					C1769.569,3250.43,1771.124,3290.945,1773.093,3326.051z"/>
			</g>
			<g>
				<path style="fill:#3F0021;" d="M1823.074,3239.177c-62.813-14.165-215.884-33.862-345.718-7.031l-8.086-39.131
					c136.514-28.213,296.87-7.637,362.593,7.178L1823.074,3239.177z"/>
			</g>
			<g>
				<path style="fill:#3F0021;" d="M1398.159,2794.851c1.469,16.327,4.073,43.782,5.517,59.673
					c3.358,23.094,6.762,53.448,11.309,76.175c20.534,117.366,56.948,233.297,112.321,338.894
					c7.579,14.435,16.164,29.51,24.898,42.964l-19.817-10.481h317.305c0.01-0.004-23.45,28.977-23.447,28.977
					c-14.744-77.46-24.908-155.673-32.476-234.17c-2.48-26.216-4.421-52.554-5.29-78.958
					c30.673,100.328,60.627,201.107,84.666,303.125c0,0,6.692,28.977,6.692,28.977c-0.001,0.001-30.143,0-30.144,0h-317.305h-12.905
					c-29.257-43.394-52.285-90.598-72.613-138.64c-41.238-98.039-69.357-202.274-84.819-307.432
					c-0.468-4.511-5.526-39.582-6.013-43.945c-1.626-16.624-4.128-45.109-5.716-61.82
					C1350.322,2798.191,1398.159,2794.851,1398.159,2794.851L1398.159,2794.851z"/>
			</g>
			<g>
				<polygon style="fill:#3F0021;" points="1632.034,3244.087 1681.609,3318.604 1636.028,3333.499 1632.034,3244.087 				"/>
			</g>
		</g>
		<g>
			<g>
				<path style="fill:#FFCCCC;" d="M2062.935,2981.194l-64.873,344.857h287.296c0,0,132.637-202.017,187.733-344.857H2062.935z"/>
			</g>
			<g>
				<polygon style="fill:#EDA4A4;" points="2062.935,2981.194 1998.062,3326.051 2285.358,3326.051 2087.083,3285.069 				"/>
			</g>
			<g>
				<path style="fill:#FFA4A4;" d="M2016.611,3227.45L2016.611,3227.45l-18.548,98.601h287.296c0,0,23.056-35.119,53.927-86.408l0,0
					C2203.395,3185.591,2016.611,3227.45,2016.611,3227.45z"/>
			</g>
			<g>
				<path style="fill:#E56A6A;" d="M2081.688,3217.193c-39.323,4.489-65.077,10.257-65.077,10.257v0l-18.548,98.601h287.296
					l-198.275-40.981L2081.688,3217.193z"/>
			</g>
			<g style="opacity:0.8;">
				<path style="fill:#FFFFFF;" d="M2473.091,2981.194l-259.841,344.857h72.108
					C2285.358,3326.051,2417.995,3124.034,2473.091,2981.194z"/>
			</g>
			<g>
				<path style="fill:#3F0021;" d="M2331.903,3258.21c-128.667-51.167-309.111-11.66-310.923-11.265l-8.74-38.994
					c7.876-1.767,194.424-42.563,334.429,13.13L2331.903,3258.21z"/>
			</g>
			<g>
				<path style="fill:#3F0021;" d="M2062.935,2981.194c-7.886,87.666-17.962,175.059-28.928,262.354
					c-3.921,29.016-7.795,58.044-12.38,86.936c0.002,0-23.572-28.412-23.562-28.408h287.292c0.001-0.001-20.05,10.818-20.039,10.815
					c70.562-108.059,144.929-219.137,207.773-331.697c-17.914,72.218-49.129,140.725-82.119,207.166
					c-26.256,51.567-54.14,102.103-85.572,150.85l-7.058,10.818c-26.355,0.018-308.712-0.013-330.032,0
					C1995.102,3225.97,2028.129,3103.234,2062.935,2981.194L2062.935,2981.194z"/>
			</g>
			<g>
				<polygon style="fill:#3F0021;" points="2168.674,3253.611 2166.189,3333.911 2120.886,3318.191 2168.674,3253.611 				"/>
			</g>
		</g>
		<g>
			<g>
				<path style="fill:#FFCCCC;" d="M2495.027,3071.489c-13.774,61.217-12.243,254.562-12.243,254.562h321.39
					c0,0,150.833-252.011,163.756-615.233c13.649-383.615-240.788-550.955-504.702-618.974l12.924,104.75L2495.027,3071.489z"/>
			</g>
			<g>
				<path style="fill:#FFCCCC;" d="M2495.027,3071.489c-13.774,61.217-12.243,254.562-12.243,254.562h321.39
					c0,0,150.833-252.011,163.756-615.233c13.649-383.615-240.788-550.955-504.702-618.974l12.924,104.75L2495.027,3071.489z"/>
			</g>
			<g>
				<path style="fill:#EDA4A4;" d="M2494.07,3027.146l0.956,44.344c-13.774,61.217-12.243,254.562-12.243,254.562h321.39
					c0,0,3.215-5.38,8.719-15.632l-239.814-38.443l-19.955-69.478L2494.07,3027.146z"/>
			</g>
			<g>
				<path style="fill:#FFA4A4;" d="M2484.067,3209.251c0,0.001-0.001,0.002-0.001,0.002c-1.722,61.081-1.282,116.797-1.282,116.797
					h321.39c0,0,22.879-38.234,51.578-106.365C2712.967,3178.619,2484.067,3209.251,2484.067,3209.251z"/>
			</g>
			<g>
				<path style="fill:#FFA4A4;" d="M2484.067,3209.251c0,0.001-0.001,0.002-0.001,0.002c-1.722,61.081-1.282,116.797-1.282,116.797
					h321.39c0,0,22.879-38.234,51.578-106.365C2712.967,3178.619,2484.067,3209.251,2484.067,3209.251z"/>
			</g>
			<g>
				<path style="fill:#E56A6A;" d="M2573.079,3271.976l-19.955-69.478c-41.694,3.094-69.057,6.754-69.057,6.754
					c0,0.001-0.001,0.002-0.001,0.002c-1.722,61.081-1.282,116.797-1.282,116.797h321.39c0,0,3.205-5.357,8.717-15.625
					c0.001-0.002,0.001-0.006,0.002-0.007L2573.079,3271.976z"/>
			</g>
			<g style="opacity:0.8;">
				<path style="fill:#FFFFFF;" d="M2804.174,3326.051c0,0,150.832-252.011,163.756-615.233
					c13.649-383.615-240.788-550.955-504.702-618.974l11.748,95.223c130.871,35.453,369.387,134.66,418.132,419.001
					c40.812,238.067-61.217,564.559-132.147,719.983H2804.174z"/>
			</g>
			<g>
				<path style="fill:#3F0021;" d="M2850.228,3238.888c-137.051-39.424-361.265-10.136-363.516-9.834l-5.298-39.609
					c9.521-1.27,234.722-30.708,379.858,11.035L2850.228,3238.888z"/>
			</g>
			<g>
				<path style="fill:#3F0021;" d="M2495.027,3071.489c-0.413,82.122,10.219,172.312,11.732,254.37
					c0.001,0-23.976-23.784-23.976-23.784h321.389l-20.571,11.663c15.006-26.313,28.548-54.429,40.847-82.3
					c80.329-184.48,124.021-387.103,119.028-588.557c-9.602-211.821-121.922-373.873-312.743-464.979
					c-55.089-26.901-113.597-47.335-173.49-62.841l11.968-46.436c62.49,16.182,124.001,37.595,182.588,66.196
					c235.451,112.965,351.437,319.673,339.976,578.8c-6.377,152.541-35.556,304.089-87.51,447.694
					c-24.071,64.976-50.872,128.909-86.32,188.711h-13.772h-321.389h-23.975c-0.629-50.841,3.421-101.694,9.622-152.053
					C2474.37,3155.413,2480.027,3112.046,2495.027,3071.489L2495.027,3071.489z"/>
			</g>
			<g>
				<polygon style="fill:#3F0021;" points="2669.243,3239.644 2672.981,3331.365 2626.221,3320.735 2669.243,3239.644 				"/>
			</g>
		</g>
		<g>
			<g>
				<path style="fill:#FFCCCC;" d="M1988.876,1379.984c51.103-193.986,244.574-218.559,345.456-232.246
					c67.679-9.183,110.314-44.227,132.637-29.588c20.746,13.604,6.615,50.196,19.385,111.211
					c18.365,87.745,248.95,416.957-110.134,516.738L1988.876,1379.984z"/>
			</g>
			<g style="opacity:0.8;">
				<path style="fill:#FFFFFF;" d="M2466.969,1118.149c-22.323-14.638-64.958,20.406-132.637,29.589
					c-100.883,13.687-294.353,38.261-345.456,232.246l51.378,48.562c47.259-149.248,113.487-199.186,286.491-235.916
					c119.799-25.434,132.416-65.298,152.368-46.178C2478.064,1133.149,2475.434,1123.701,2466.969,1118.149z"/>
			</g>
			<g>
				<path style="fill:#3F0021;" d="M2382.64,1769.198l-12.842-46.201c84.541-23.494,140.19-62.126,165.406-114.827
					c44.673-93.384-9.233-218.318-44.903-300.991c-13.188-30.564-23.604-54.705-27.412-72.905
					c-5.879-28.074-6.499-51.728-6.953-69.001c-0.249-9.524-0.586-22.312-2.217-26.729c-6.099-0.247-21.938,5.786-33.726,10.176
					c-21.826,8.127-48.994,18.24-82.441,22.778l-2.666,0.361c-103.32,14.004-276.25,37.439-322.827,214.233l-46.367-12.217
					c54.736-207.791,262.773-235.986,362.754-249.536l2.661-0.361c28.164-3.821,51.533-12.522,72.153-20.198
					c29.273-10.896,54.556-20.31,76.855-5.684c22.412,14.702,23.066,39.58,23.76,65.918c0.425,16.306,0.957,36.597,5.947,60.435
					c2.823,13.467,12.871,36.76,24.507,63.733c39.112,90.645,98.218,227.627,44.131,340.681
					C2547.005,1694.618,2481.121,1741.835,2382.64,1769.198z"/>
			</g>
			<g>
				<path style="fill:#EDA4A4;" d="M2298.622,1705.495l-136.256-225.681c-0.001-201.989,134.216-218.824,226.041-262.696
					c19.046,182.291,250.311,338.735-50.934,459.677"/>
			</g>
			<g>
				<path style="fill:#3F0021;" d="M2138.389,1479.814c6.438-112.436,51.293-192.423,160.36-231.193
					c29.874-11.488,60.262-19.806,89.657-31.505c-53.575,29.374-117.072,50.12-157.551,96.931
					c-40.344,45.329-48.414,107.035-44.511,165.766H2138.389L2138.389,1479.814z"/>
			</g>
		</g>
		<g>
			<g>
				<path style="fill:#FFCCCC;" d="M907.335,2091.503c-165.672,56.116-304.819-36.169-321.776-308.127
					c-8.842-141.82-41.369-174.918-36.449-197.936c6.18-28.908,61.026-16.176,142.218-46.593
					c103.899-38.925,263.234-93.866,384.825,56.531L907.335,2091.503z"/>
			</g>
			<g style="opacity:0.8;">
				<path style="fill:#FFFFFF;" d="M691.33,1538.848c-81.193,30.418-136.038,17.685-142.219,46.593
					c-1.499,7.011,0.487,14.979,4.21,26.649c21.606-12.929,72.208-13.494,166.916-38.892
					c123.194-33.037,237.48-48.034,336.328,79.75l19.589-57.569C954.564,1444.981,795.229,1499.923,691.33,1538.848z"/>
			</g>
			<g>
				<path style="fill:#3F0021;" d="M818.382,2131.242c-44.829,0-85.996-12.08-121.792-36.099
					c-78.936-52.964-125.606-160.256-134.961-310.276c-5.42-86.965-19.985-131.37-28.687-157.9
					c-6.055-18.46-10.43-31.799-7.28-46.536c6.89-32.217,38.53-37.439,72.026-42.966c23.086-3.811,51.816-8.552,85.229-21.072
					c96.626-36.201,276.465-103.579,411.885,63.911l-37.295,30.146c-104.883-129.734-239.668-93.396-357.764-49.15
					c-37.803,14.16-70.425,19.546-94.248,23.476c-12.246,2.021-27.183,4.487-32.852,7.136c0.552,3.916,3.354,12.456,5.864,20.11
					c9.414,28.713,25.176,76.77,30.982,169.861c8.389,134.553,47.749,229.104,113.818,273.435
					c47.432,31.826,108.403,36.489,176.338,13.477l15.381,45.42C881.463,2125.583,849.066,2131.242,818.382,2131.242z"/>
			</g>
			<g>
				<path style="fill:#EDA4A4;" d="M666.163,1629.994c175.829-27.548,260.853,18.365,306.426,132.587
					c0,0,49.981,268.273-65.273,252.571C598.143,2060.555,712.415,1704.134,666.163,1629.994z"/>
			</g>
			<g>
				<path style="fill:#3F0021;" d="M666.162,1629.993c139.693-31.5,262.38-20.323,328.696,123.705
					c0.001-0.001-44.538,17.767-44.538,17.767c-8.745-27.344-20.906-53.147-38.396-74.788
					C854.723,1624.38,751.328,1623.022,666.162,1629.993L666.162,1629.993z"/>
			</g>
		</g>
		<g>
			<g>
				<path style="fill:#FFCCCC;" d="M1720.459,2800.603c-480.895,79.583-825.752-43.532-769.976-418.998
					c-116.993-392.13-8.339-860.629,476.134-1009.404c518.306-159.165,940.024,122.434,1036.271,636.659
					c117.333,95.907,222.423,509.123-493.478,735.967C1898.153,2763.989,1813.645,2790.4,1720.459,2800.603z"/>
			</g>
			<g style="opacity:0.8;">
				<path style="fill:#FFFFFF;" d="M1426.617,1372.201c-484.472,148.775-593.127,617.274-476.134,1009.404l0,0l22.106-1.656
					c-11.223-161.59-82.691-715.972,500.725-900.135c599.485-189.235,928.369,321.851,974.95,535.849l10.897-25.59
					C2356.24,1487.822,1938.564,1214.988,1426.617,1372.201z"/>
			</g>
			<g>
				<path style="fill:#EDA4A4;" d="M2542.608,2162.765c-0.003,0.02-0.007,0.038-0.01,0.057
					c-79.352,472.38-1435.011,717.242-1591.17,369.948c49.148,256.448,359.8,335.555,769.03,267.832
					c93.187-10.203,177.695-36.614,248.951-55.776C2475.01,2584.62,2571.106,2331.463,2542.608,2162.765z"/>
			</g>
			<g>
				<path style="fill:#EDA4A4;" d="M1591.796,2164.047c23.867-186.476,130.703-193.278,199.938-45.698
					c68.846,146.751-116.715,131.496-116.715,131.496"/>
			</g>
			<g>
				<path style="fill:#3F0021;" d="M1720.459,2800.603c-221.355,67.93-614.655,71.233-750.539-151.708
					c-49.68-80.547-58-179.921-43.154-270.812c-0.001,0,0.742,10.376,0.742,10.376
					c-140.113-476.752,53.208-946.215,563.854-1058.333c499.593-120.45,905.176,179.174,995.091,674.324
					c0.002-0.003-8.391-14.156-8.391-14.156c58.291,50.228,83.88,120.511,91.874,193.105c7.16,70.952-9.682,143.359-42.367,206.25
					c-64.83,123.455-182.135,208.171-303.918,269.339c-80.354,40.896-165.855,70.622-254.241,85.837
					c20.039-10.276,40.291-19.519,60.586-28.455c35.018-16.559,84.587-39.361,119.619-56.836
					c182.569-88.333,391.292-245.716,371.355-471.436c-5.542-58.682-28.971-121.109-73.254-160.676
					c-0.001,0-6.693-5.676-6.693-5.676l-1.702-8.477c-70.172-393.301-364.452-685.53-777.744-660.136
					c-411.598,27.865-712.829,276.529-729.412,702.809c-4.115,107.347,10.67,215.518,41.295,318.804l1.399,4.722
					c-0.002,0.015-0.658,5.66-0.662,5.674c-11.401,83.324-5.162,172.89,41.271,244.88c4.137,6.129,8.486,12.742,12.923,18.574
					c3.516,4.198,10.898,13.493,14.456,17.483c2.995,2.916,12.666,13.11,15.857,16.355c26.252,24.447,56.629,44.873,88.904,60.563
					C1325.901,2828.121,1528.696,2805.094,1720.459,2800.603L1720.459,2800.603z"/>
			</g>
		</g>
		<g>
			<path style="fill:#FFA4A4;" d="M1737.124,2315.967c-39.791,7.142-111.891,68.699-161.205,28.228
				c-56.111-46.049-29.304-203.965,110.531-232.796c137.739-28.398,234.844,90.953,203.547,160.185
				C1861.939,2333.652,1774.287,2309.296,1737.124,2315.967z"/>
		</g>
		<g>
			<path style="fill:#FFA4A4;" d="M1737.124,2315.967c-39.791,7.142-111.891,68.699-161.205,28.228
				c-56.111-46.049-29.304-203.965,110.531-232.796c137.739-28.398,234.844,90.953,203.547,160.185
				C1861.939,2333.652,1774.287,2309.296,1737.124,2315.967z"/>
		</g>
		<g>
			<g>
				
					<ellipse transform="matrix(0.9466 -0.3224 0.3224 0.9466 -596.8188 869.6683)" style="fill:#F49292;" cx="2327.257" cy="2236.725" rx="133.658" ry="107.166"/>
			</g>
			<g>
				
					<ellipse transform="matrix(0.9466 -0.3224 0.3224 0.9466 -752.6072 520.5607)" style="fill:#F49292;" cx="1195.353" cy="2532.523" rx="133.658" ry="107.166"/>
			</g>
			<g>
				<g>
					<path style="fill:#3F0021;" d="M1619.714,2357.707c36.126,71.172,102.994,120.106,154.14,109.942
						c53.055-10.543,86.578-111.77,84.015-163.1C1748.285,2238.377,1664.714,2244.468,1619.714,2357.707z"/>
				</g>
				<g>
					<path style="fill:#FFA4A4;" d="M1752.239,2385.016c-31.496,7.448-58.161,23.847-77.22,45.197
						c31.931,28.395,68.2,43.524,98.835,37.437c29.349-5.832,52.703-39.422,67.296-76.956
						C1814.629,2380.264,1783.588,2377.603,1752.239,2385.016z"/>
				</g>
				<g>
					<path style="fill:#3F0021;" d="M1760.374,2488.917c-56.113,0-121.514-49.341-158.476-122.168l-4.082-8.042l3.33-8.379
						c21.46-54.004,52.71-88.237,92.876-101.758c47.451-15.967,104.419-3.247,174.175,38.872l9.097,5.493l0.532,10.615
						c2.857,57.182-32.969,170.361-100.073,183.696C1772.093,2488.371,1766.283,2488.917,1760.374,2488.917z M1641.8,2356.671
						c32.759,58.687,88.916,99.199,128.159,91.377c35.688-7.09,65.908-82.852,67.969-132.046
						c-53.887-30.781-97.974-40.723-131.162-29.556C1680.174,2295.397,1658.343,2319.001,1641.8,2356.671z"/>
				</g>
			</g>
			<g>
				<g>
					
						<ellipse transform="matrix(0.9466 -0.3224 0.3224 0.9466 -557.7349 759.6495)" style="fill:#3F0021;" cx="2014.646" cy="2063.723" rx="140.513" ry="159.949"/>
				</g>
				<g>
					
						<ellipse transform="matrix(0.9466 -0.3224 0.3224 0.9466 -549.9023 741.2643)" style="fill:#FFFFFF;" cx="1963.015" cy="2030.854" rx="50.812" ry="57.84"/>
				</g>
			</g>
			<g>
				<g>
					
						<ellipse transform="matrix(0.9466 -0.3224 0.3224 0.9466 -642.6408 560.2779)" style="fill:#3F0021;" cx="1370.245" cy="2220.371" rx="140.513" ry="159.949"/>
				</g>
				<g>
					
						<ellipse transform="matrix(0.9466 -0.3224 0.3224 0.9466 -622.98 563.9282)" style="fill:#FFFFFF;" cx="1391.083" cy="2162.822" rx="50.812" ry="57.84"/>
				</g>
			</g>
			<g>
				<g>
					<path style="fill:#FFA4A4;" d="M1737.124,2315.967c-39.791,7.142-111.891,68.699-161.205,28.228
						c-56.111-46.049-29.304-203.965,110.531-232.796c137.739-28.398,234.844,90.953,203.547,160.185
						C1861.939,2333.652,1774.287,2309.296,1737.124,2315.967z"/>
				</g>
				<g style="opacity:0.8;">
					<path style="fill:#FFFFFF;" d="M1697.333,2154.442c95.376-19.664,171.229,31.518,198.5,87.844
						c-0.682-68.631-89.656-155.571-209.383-130.886c-123.368,25.435-158.716,151.299-126.811,212.222
						C1556.327,2259.385,1598.653,2174.787,1697.333,2154.442z"/>
				</g>
				<g>
					<path style="fill:#E56A6A;" d="M1879.481,2189.115c1.748,13.833,0.242,27.201-5.129,39.082
						c-28.058,62.068-115.71,37.712-152.873,44.383c-39.792,7.142-111.891,68.699-161.205,28.228
						c-4.053-3.326-7.62-7.295-10.796-11.697c2.755,23.155,11.707,42.993,26.44,55.084c49.314,40.472,121.415-21.086,161.206-28.228
						c37.162-6.67,124.814,17.685,152.873-44.382C1900.931,2247.396,1896.15,2217.099,1879.481,2189.115z"/>
				</g>
				<g>
					<path style="fill:#3F0021;" d="M1614.871,2377.887c-17.803,0-35.425-4.951-51.631-18.247
						c-30.835-25.308-42.427-75.44-29.526-127.72c17.817-72.197,73.408-124.566,148.701-140.093
						c92.803-19.141,164.731,22.642,201.113,68.105c31.084,38.853,40.537,84.785,24.678,119.878
						c-26.265,58.096-91.392,56.333-134.492,55.151c-13.096-0.356-25.449-0.688-33.062,0.674l0,0
						c-9.316,1.67-23.257,8.281-38.018,15.278C1677.181,2362.985,1645.755,2377.887,1614.871,2377.887z M1727.874,2127.062
						c-11.904,0-24.385,1.226-37.392,3.906c-88.662,18.281-112.71,89.219-117.969,110.527c-8.95,36.26-2.334,72.144,16.079,87.256
						c22.964,18.843,54.658,6.099,96.919-13.94c17.236-8.174,33.521-15.898,48.081-18.511l0,0
						c11.651-2.095,25.342-1.714,41.206-1.284c46.309,1.25,82.803-0.278,96.992-31.665c9.644-21.328,2.183-51.392-19.463-78.452
						C1828.358,2154.948,1784.73,2127.062,1727.874,2127.062z"/>
				</g>
				<g>
					<path style="fill:#3F0021;" d="M1780.394,2228.732c-4.089-24.61,5.725-36.544,20.67-34.09
						c11.268,1.85,17.733,14.833,15.168,19.517C1812.186,2221.548,1799.278,2209.698,1780.394,2228.732z"/>
				</g>
				<g>
					<path style="fill:#3F0021;" d="M1657.723,2254.208c-12.15-21.789-27.264-24.998-37.417-13.76
						c-7.655,8.473-4.613,22.654,0.313,24.716C1628.39,2268.417,1631.092,2251.104,1657.723,2254.208z"/>
				</g>
			</g>
		</g>
	</g>
</g>
</svg>
