<?xml version="1.0" encoding="utf-8"?>
<!-- Generator: Adobe Illustrator 27.5.0, SVG Export Plug-In . SVG Version: 6.00 Build 0)  -->
<svg version="1.1" id="Layer_1" xmlns="http://www.w3.org/2000/svg" xmlns:xlink="http://www.w3.org/1999/xlink" x="0px" y="0px"
	 viewBox="0 0 4000 4000" style="enable-background:new 0 0 4000 4000;" xml:space="preserve">
<g>
	<g>
		<rect style="fill:#FFCAEC;" width="4000" height="4000"/>
	</g>
	<g>
		<g>
			<path style="fill:#FFFFFF;" d="M2736.853,2231.528c0,0,17.799-137.485,93.45-152.785c31.191-6.308,56.165,16.007,56.165,16.007
				s69.457-150.429,186.442-135.753c98.758,12.39,137.353,283.869-65.862,368.801c0,0,26.979,70.897-84.472,94.402
				c-96.364,20.323-181.431-38.162-181.431-38.162L2736.853,2231.528z"/>
		</g>
		<g>
			<path style="fill:#FFFFFF;" d="M3007.066,2327.823c0,0,26.943,70.906-84.481,94.385
				c-96.364,20.286-181.458-38.176-181.458-38.176l-4.276-152.477c0,0,4.351-33.72,17.921-69.604
				c13.905-36.594,37.345-75.51,75.535-83.225c31.191-6.281,56.17,15.993,56.17,15.993s69.448-150.417,186.448-135.732
				c19.878,2.487,37.379,15.497,50.856,35.382l0.017,0.056C3177.434,2073.262,3169.295,2259.997,3007.066,2327.823z"/>
		</g>
		<g style="opacity:0.2;">
			<path style="fill:#000072;" d="M3007.066,2327.823c0,0,26.943,70.906-84.481,94.385
				c-96.364,20.286-181.458-38.176-181.458-38.176l-4.276-152.477c0,0,4.351-33.72,17.921-69.604
				c22.941,16.306,50.723,50.531,72.157,121.755c25.518,84.798,79.622,63.765,62.083,18.236c0,0,254.859-69.75,234.787-307.515
				C3177.434,2073.262,3169.295,2259.997,3007.066,2327.823z"/>
		</g>
		<g>
			<path style="fill:#000072;" d="M2880.527,2442.902c-81.582,0.005-145.522-43.201-148.667-45.364
				c-7.451-5.125-9.341-15.325-4.214-22.778c5.122-7.454,15.322-9.338,22.778-4.219c0.776,0.53,80.732,54.202,168.774,35.632
				c35.063-7.397,58.857-20.686,68.809-38.435c9.585-17.097,3.911-33.584,3.667-34.277c-2.91-8.198,1.03-17.422,9.053-20.776
				c116.479-48.679,145.117-159.011,134.248-238.701c-7.407-54.326-33.77-94.927-64.106-98.733
				c-103.55-12.998-168.887,124.985-169.536,126.379c-2.183,4.707-6.47,8.108-11.548,9.155c-5.103,1.038-10.366-0.364-14.229-3.821
				c-0.117-0.1-19.502-16.697-42.007-12.166c-52.48,10.613-75.869,103.823-80.454,138.843c-1.177,8.967-9.385,15.271-18.359,14.124
				c-8.965-1.167-15.293-9.373-14.131-18.342c0.786-6.086,20.298-149.314,106.45-166.733c21.543-4.368,40.449,1.89,53.223,8.508
				c23.042-41.006,90.771-141.494,194.673-128.452c46.475,5.83,82.778,55.606,92.485,126.812
				c12.969,95.083-26.216,212.837-141.694,267.827c1.299,11.616,0.649,28.423-8.735,45.61
				c-14.746,27.019-45.381,45.603-91.05,55.234C2910.415,2441.508,2895.181,2442.902,2880.527,2442.902z"/>
		</g>
		<g>
			<path style="fill:#000072;" d="M2889.004,2301.94c8.394,6.452,17.901,10.97,27.576,14.24c9.703,3.228,19.646,5.146,29.543,5.719
				c2.468,0.163,4.969,0.073,7.418,0.125c2.445,0.097,4.901-0.029,7.356-0.281c2.448-0.216,4.868-0.336,7.281-0.615l7.212-1.213
				l3.564-0.595l3.541-0.922l7.007-1.811c4.627-1.397,9.169-3.184,13.669-4.702l1.218-0.411c8.676-2.927,18.082,1.732,21.01,10.408
				c2.927,8.676-1.732,18.082-10.408,21.01c-1.32,0.445-2.74,0.718-4.068,0.824c-5.82,0.434-11.526,1.054-17.278,1.236l-8.656-0.053
				l-4.29-0.044l-4.313-0.39l-8.543-0.817c-2.834-0.409-5.655-0.99-8.451-1.485c-2.801-0.457-5.573-1.051-8.31-1.876
				c-2.736-0.78-5.473-1.421-8.146-2.321c-10.724-3.519-20.826-8.437-29.987-14.445
				C2903.827,2317.488,2895.495,2310.359,2889.004,2301.94z"/>
		</g>
		<g>
			<g>
				<path style="fill:#FFFFFF;" d="M2878.235,2170.898c0,0-1.211-34.072,8.233-76.148"/>
			</g>
			<g>
				<path style="fill:#3A3A3A;" d="M2870.05,2171.19c-0.836-6.921-1.307-13.35-1.638-20.027c-0.311-6.621-0.479-13.259-0.412-19.907
					c0.088-13.303,0.912-26.672,2.486-40.093l0.009-0.078c1.06-9.041,9.247-15.508,18.285-14.448
					c9.039,1.06,15.507,9.248,14.447,18.286c-0.136,1.157-0.42,2.354-0.775,3.416c-3.955,11.56-7.323,23.469-10.028,35.598
					c-1.375,6.064-2.535,12.185-3.566,18.335c-1.015,6.096-1.884,12.466-2.437,18.335l-0.035,0.369
					c-0.426,4.517-4.433,7.834-8.95,7.41C2873.516,2178.014,2870.501,2174.945,2870.05,2171.19z"/>
			</g>
		</g>
		<g>
			<path style="fill:#FFFFFF;" d="M1314.135,2180.103c-216.485,12.132-565.835,260.714-456.603,491.98
				c72.122,152.697,294.734,117.754,414.089,54.279c185.498-98.651,210.54-351.43,172.824-561.897"/>
		</g>
		<g>
			<path style="fill:#FFFFFF;" d="M1287.125,2717.509c-5.037,3.072-10.197,6.02-15.521,8.846
				c-119.335,63.476-341.95,98.408-414.067-54.262c-72.322-153.079,56.35-313.816,214.384-408.457
				c80.676-48.323,169.051-79.447,242.232-83.542l130.31-15.644C1481.115,2368.925,1458.51,2613.286,1287.125,2717.509z"/>
		</g>
		<g style="opacity:0.2;">
			<path style="fill:#000072;" d="M1287.125,2717.509l-110.858-3.562c0,0-318.034-34.073-232.772-205.866
				c77.563-156.273,298.705-111.841,128.426-244.444c80.676-48.323,169.051-79.447,242.232-83.542l130.31-15.644
				C1481.115,2368.925,1458.51,2613.286,1287.125,2717.509z"/>
		</g>
		<g>
			<path style="fill:#000072;" d="M1058.223,2796.93c-33.438,0.002-66.26-4.365-96.499-14.399
				c-55.19-18.313-95.229-53.12-118.999-103.455c-35.371-74.878-28.286-157.781,20.488-239.741
				c92.192-154.932,307.114-267.578,450.005-275.586c9.102-0.493,16.763,6.404,17.275,15.439
				c0.503,9.031-6.406,16.765-15.439,17.271c-134.487,7.537-336.831,113.66-423.687,259.629
				c-43.555,73.191-49.956,143.508-19.023,208.997c19.8,41.917,53.34,70.969,99.697,86.353
				c92.041,30.542,215.825,0.916,291.89-39.539c221.929-118.027,181.934-446.641,164.39-544.546
				c-1.597-8.904,4.331-17.417,13.232-19.011c8.906-1.602,17.417,4.329,19.014,13.235c14.941,83.384,26.567,208.259-2.91,329.634
				c-28.643,117.927-88.647,201.912-178.345,249.614C1219.736,2772.507,1137.28,2796.93,1058.223,2796.93z"/>
		</g>
		<g>
			<g>
				<path style="fill:#52BF2E;" d="M2657.472,2845.228c0,0,37.003-135.424,129.911-146.615
					c81.118-9.771,110.91,87.324,55.216,159.232c0,0,82.835-57.817,141.026,6.89c56.328,62.635-18.362,146.044-89.619,147.311
					c0,0,155,95.174,49.494,182.674c-74.222,61.556-146.524-42.444-146.524-42.444s-2.982,148.509-117.759,91.233
					C2552.612,3180.33,2657.472,2845.228,2657.472,2845.228z"/>
			</g>
			<g>
				<path style="fill:#41A51C;" d="M2668.302,2864.479c0,0,15.737,22.584,66.397,35.85c44.028,11.529,81.797-36.775,87.441-21.95
					s-76.445,60.549,38.241,128.888c-29.574,12.422-126.986-34.061-158.589,43.411c-30.985,75.957-35.552-116.322-35.552-116.322
					L2668.302,2864.479z"/>
			</g>
			<g>
				<path style="fill:#A3E887;" d="M2761.802,3005.624c-16.499,2.121-32.05,7.799-44.309,20.372
					c-7.823-2.018-15.917-3.697-24.279-5.124c-9.106-1.52-16.254-3.481-21.521-5.575c-0.675-5.615-1.275-11.366-1.755-17.096
					c6.844-2.216,17.482-3.532,31.735-3.293C2722.524,2995.269,2742.758,2999.223,2761.802,3005.624z"/>
			</g>
			<g>
				<path style="fill:#A3E887;" d="M2811.591,2967.342c-32.049,8.858-67.938,13.879-103.696,10.323
					c-47.568-4.727-53.506-26.904-2.881-26.042c33.75,0.575,65.682-4.553,94.307-11.73
					C2800.411,2948.334,2804.067,2957.499,2811.591,2967.342z"/>
			</g>
			<g>
				<path style="fill:#41A51C;" d="M2929.494,3159.756c0,0-18.76,37.719-74.982,3.402c-45.898-28.015-28.307-57.499-84.446-94.415
					c-16.938-11.138,22.964-21.958,58.937,24.216C2864.976,3139.132,2929.494,3159.756,2929.494,3159.756z"/>
			</g>
			<g style="opacity:0.3;">
				<path style="fill:#FFFFFF;" d="M2973.608,2887.23c24.63,48.826-42.486,89.913-30.125,63.149
					c27.347-59.214-17.777-73.13-76.937-62.648c-5.206,0.922,11.639-18.431,39.949-27.542
					C2930.018,2852.618,2961.038,2862.312,2973.608,2887.23z"/>
			</g>
			<g style="opacity:0.3;">
				<path style="fill:#FFFFFF;" d="M2839.25,2755.334c15.313,38.731-31.466,100.705-24.427,72.078
					c20.504-83.391-34.869-91.276-87.653-59.317c-4.522,2.738,13.208-27.488,41.016-38.034
					C2795.167,2719.829,2826.765,2723.756,2839.25,2755.334z"/>
			</g>
			<g>
				<path style="fill:#41A51C;" d="M2701.792,3050.679c38.723,16.97,77.163,139.395,19.154,156.002s-91.228-95.272-70.559-133.553
					C2671.056,3034.846,2663.069,3033.709,2701.792,3050.679z"/>
			</g>
			<g>
				<path style="fill:#C2FFAB;" d="M2681.445,2963.373c1.465-50.609,72.982-204.18,102.828-194.08
					c18.721,6.336-61.976,106.059-83.463,187.571C2688.622,3003.096,2679.979,3013.982,2681.445,2963.373z"/>
			</g>
			<g>
				<path style="fill:#C2FFAB;" d="M2705.023,2951.634c110.208,1.887,201.161-56.988,219.479-49.568
					c18.319,7.42-99.917,87.192-216.607,75.609C2660.318,2972.952,2654.4,2950.768,2705.023,2951.634z"/>
			</g>
			<g>
				<path style="fill:#A3E887;" d="M2811.591,2967.342c-32.049,8.858-67.938,13.879-103.696,10.323
					c-47.568-4.727-53.506-26.904-2.881-26.042c33.75,0.575,65.682-4.553,94.307-11.73
					C2800.411,2948.334,2804.067,2957.499,2811.591,2967.342z"/>
			</g>
			<g>
				<path style="fill:#C2FFAB;" d="M2701.677,2994.911c110.208,1.886,203.629,104.903,197.568,130.55
					c-4.546,19.235-73.182-82.307-206.034-104.57C2646.058,3012.989,2651.054,2994.044,2701.677,2994.911z"/>
			</g>
			<g>
				<path style="fill:#A3E887;" d="M2761.802,3005.624c-16.499,2.121-32.05,7.799-44.309,20.372
					c-7.823-2.018-15.917-3.697-24.279-5.124c-9.106-1.52-16.254-3.481-21.521-5.575c-0.675-5.615-1.275-11.366-1.755-17.096
					c6.844-2.216,17.482-3.532,31.735-3.293C2722.524,2995.269,2742.758,2999.223,2761.802,3005.624z"/>
			</g>
			<g>
				<path style="fill:#A3E887;" d="M2631.975,3032.646c110.208,1.887,118.831,149.198,86.028,154.01
					c-19.555,2.869,28.225-86.796-94.494-128.031C2578.188,3043.397,2581.352,3031.779,2631.975,3032.646z"/>
			</g>
			<g>
				<path style="fill:#000072;" d="M2726.685,3273.075c-16.563,0-34.863-4.973-54.78-14.91
					c-136.738-68.235-35.669-399.846-30.151-417.559c2.588-9.302,42.349-146.052,143.672-158.257
					c38.418-4.641,70.703,10.862,88.638,42.485c15.972,28.164,17.52,63.984,5.874,98.03c35.918-9.893,80.708-8.188,115.869,30.913
					c24.814,27.59,30.64,62.729,15.991,96.404c-13.843,31.831-44.351,58.306-78.418,70.701
					c26.221,22.222,60.054,58.762,63.066,101.221c2.222,31.326-12.07,59.998-42.485,85.225
					c-22.173,18.386-46.421,25.945-72.148,22.432c-30.029-4.094-55.786-22.915-73.403-39.756
					c-5.708,25.327-17.988,56.946-44.39,72.913C2752.817,3269.689,2740.342,3273.073,2726.685,3273.075z M2798.374,2714.318
					c-2.93,0-5.942,0.186-9.033,0.557c-80.767,9.731-115.728,133.438-116.074,134.688c-0.049,0.181-0.107,0.376-0.161,0.557
					c-27.983,89.514-80.112,332.056,13.428,378.73c25.615,12.781,45.962,14.817,60.483,6.06
					c26.353-15.884,33.179-65.291,33.584-82.986c0.161-7.09,4.868-13.279,11.655-15.322c6.797-2.051,14.126,0.503,18.174,6.323
					c0.322,0.466,34.604,48.826,75.898,54.387c16.445,2.202,31.719-2.761,46.714-15.203c22.129-18.35,32.178-37.217,30.723-57.686
					c-3.062-43.162-57.583-85.679-78.33-98.418c-6.206-3.809-9.15-11.252-7.231-18.274c1.914-7.019,8.232-11.936,15.508-12.065
					c35.366-0.627,74.038-26.348,88.047-58.55c6.68-15.364,10.317-38.491-10.308-61.428c-47.671-53.003-116.597-6.394-119.512-4.387
					c-6.641,4.585-15.664,3.662-21.221-2.209c-5.552-5.864-6.016-14.893-1.069-21.279c26.001-33.564,32.544-77.49,15.913-106.816
					C2835.698,2723.595,2819.141,2714.318,2798.374,2714.318z"/>
			</g>
			<g>
				<path style="fill:#FF7C1A;" d="M1717.066,2385.439c-157.723-17.143-755.037-18.096-847.356,172.668
					c-102.752,212.322,499.598,588.745,1023.833,748.586c400.391,122.08,731.684,72.252,809.846-262.677
					C2794.588,2653.226,2360.833,2455.41,1717.066,2385.439z"/>
			</g>
			<g>
				<path style="fill:#FF7C1A;" d="M1893.546,3306.71c-524.247-159.876-1126.593-536.279-1023.824-748.597
					c80.996-167.335,550.549-187.173,771.106-177.946c30.896,1.284,56.893,3.144,76.264,5.264
					c358.861,38.989,652.48,117.754,826.238,247.486c137.982,103.001,200.452,238.162,160.065,411.098
					C2625.224,3378.943,2293.933,3428.784,1893.546,3306.71z"/>
			</g>
			<g>
				<path style="fill:#FF7C1A;" d="M2703.384,3043.998c-78.178,334.947-409.44,384.786-809.828,262.708
					c-524.269-159.877-1126.593-536.269-1023.844-748.605c41.526-85.754,185.104-132.767,344.94-156.97
					c152.014-23.055,318.689-25.472,426.189-20.967c30.878,1.269,56.883,3.153,76.253,5.282
					c358.864,38.986,652.491,117.737,826.25,247.474c66.916,49.961,116.058,107.458,144.315,173.187
					C2717.717,2875.889,2724.187,2954.927,2703.384,3043.998z"/>
			</g>
			<g>
				<path style="fill:#FF5D1D;" d="M2687.658,2806.107c-74.042,226.424-331.221,321.924-497.405,211.231
					c-151.072-100.66-41.73-280.072-39.683-283.43c-3.522,3.358-179.247,171.467-328.968,171.467
					c-208.61,0-239.857-123.757-231.748-179.329c23.22-159.059,172.368-155.864,194.277-154.512
					c-234.615-17.896-453.791-112.209-569.48-170.402c152.014-23.055,318.689-25.472,426.189-20.967
					c30.878,1.269,56.883,3.153,76.253,5.282c358.864,38.986,652.491,117.737,826.25,247.474
					C2610.258,2682.882,2659.401,2740.379,2687.658,2806.107z"/>
			</g>
			<g>
				<path style="fill:#FF5D1D;" d="M1391.151,3032.927c-357.407-192.992-506.539-372.212-469.131-449.506
					c187.196,326.192,1402.12,865.379,1724.776,447.387c-24.085,103.216-76.178,178.531-154.834,223.859
					c-128.987,74.33-330.056,73.1-581.47-3.562c-170.738-52.055-355.147-129.523-519.258-218.132
					C1391.205,3032.956,1391.181,3032.944,1391.151,3032.927z"/>
			</g>
			<g>
				<path style="fill:#000072;" d="M2251.494,3383.686c-106.758,0.002-228.613-20.435-362.725-61.326
					c-216.167-65.908-450.171-170.19-642.017-286.106c-204.858-123.782-342.583-248.926-387.803-352.375
					c-21.509-49.211-22.847-93.926-3.984-132.908c42.407-87.629,181.011-145.979,411.963-173.43
					c184.102-21.88,374.893-16.758,451.909-8.386c495.166,53.818,813.047,175.356,944.805,361.238
					c64.775,91.382,83.516,198.152,55.698,317.346c-28.96,124.099-92.949,215.437-190.186,271.47
					C2454.575,3362.187,2360.972,3383.683,2251.494,3383.686z M1546.25,2394.697c-81.89,0-179.526,3.975-275.454,15.378
					c-216.045,25.679-349.639,79.336-386.338,155.168c-14.507,29.973-12.988,65.474,4.512,105.513
					c85.43,195.449,547.656,479.497,1009.351,620.266c262.749,80.115,475.234,80.044,614.478-0.198
					c89.063-51.326,147.822-135.618,174.639-250.532c25.591-109.663,8.594-207.554-50.522-290.955
					c-64.375-90.82-179.59-166.887-342.446-226.089c-152.524-55.447-347.388-96.333-579.17-121.526
					C1679.683,2397.853,1619.214,2394.697,1546.25,2394.697z"/>
			</g>
			<g>
				<path style="fill:#000072;" d="M1484.092,2643.757c1.869,38.495-1.09,77.199-6.671,115.56
					c-2.816,19.194-6.518,38.302-11.166,57.238c-4.54,18.968-9.972,37.783-16.507,56.307c-6.454,18.556-13.999,36.807-22.672,54.633
					c-8.691,17.833-18.938,34.964-30.081,51.601c-11.612,16.34-24.424,31.948-38.696,46.28
					c-14.53,14.087-30.403,26.895-47.633,37.609l-18.474-27.056c14.106-11.277,27.61-23.129,40.156-36.108
					c12.321-13.201,23.918-27.149,34.603-41.918c10.677-14.809,20.21-30.488,29.447-46.464c8.957-16.145,17.09-32.841,24.798-49.829
					c14.99-34.176,27.403-69.807,37.775-106.254C1469.252,2718.874,1477.759,2681.674,1484.092,2643.757z"/>
			</g>
			<g>
				<path style="fill:#000072;" d="M1242.869,2659.614c6.412-22.108,10.495-44.261,12.813-66.297
					c1.125-11.017,1.699-22.006,1.84-32.9c-0.008-10.909-0.375-21.721-1.316-32.423c-2.284-21.383-6.278-42.233-12.597-62.352
					c-6.153-20.186-14.616-39.446-23.828-58.808l28.007-16.997c14.162,19.579,24.452,42.091,31.113,65.496
					c3.074,11.786,5.553,23.723,6.878,35.787c1.263,12.067,1.624,24.176,1.11,36.192c-0.55,12.011-1.808,23.927-4.031,35.624
					c-2.071,11.71-5.023,23.202-8.732,34.379C1266.66,2619.596,1256.716,2641.04,1242.869,2659.614z"/>
			</g>
			<g>
				<path style="fill:#000072;" d="M1706.159,2694.324c1.199-28.852-0.517-57.273-4.324-85.096
					c-1.965-13.902-4.57-27.63-7.712-41.135c-3.32-13.47-6.973-26.775-11.531-39.71c-4.695-12.885-9.767-25.541-15.599-37.791
					c-6.15-12.088-12.188-24.177-19.551-35.486c-14.109-23-31.18-43.836-49.494-64.011l22.352-23.952
					c23.28,19.171,43.106,42.837,58.586,68.908c15.348,26.188,26.551,54.637,33.199,83.846c3.448,14.573,5.804,29.326,7.167,44.104
					c1.483,14.76,1.918,29.557,1.43,44.26C1719.58,2637.609,1715.474,2666.84,1706.159,2694.324z"/>
			</g>
			<g>
				<path style="fill:#3A3A3A;" d="M2399.584,2929.347c3.667-41.165,0.964-82.166-5.556-122.065
					c-3.346-19.949-7.842-39.617-13.31-58.921c-5.536-19.294-12.317-38.152-20.032-56.536c-7.75-18.372-16.537-36.255-26.395-53.496
					c-4.808-8.691-10.148-17.063-15.335-25.515c-2.506-4.28-5.52-8.247-8.249-12.385c-2.849-4.063-5.462-8.276-8.514-12.2
					c-23.186-32.239-49.755-61.914-78.198-90.166l21.815-24.443c32.896,26.714,61.864,58.521,86.42,93.406
					c11.895,17.703,23.36,35.779,32.624,55.027c4.976,9.436,9.071,19.307,13.467,28.999c3.894,9.924,7.837,19.81,11.082,29.946
					c6.759,20.154,12.393,40.664,16.095,61.514c3.928,20.791,6.348,41.799,7.3,62.805c1.03,20.996,0.469,42.014-1.561,62.798
					C2409.053,2888.866,2405.734,2909.54,2399.584,2929.347z"/>
			</g>
			<g>
				<path style="fill:#000072;" d="M2485.788,2975.891c14.262,33.63,20.466,70.806,21.242,107.861
					c0.624,37.14-4.154,74.531-14.017,110.741c-9.848,36.182-24.539,71.567-45.996,103.46
					c-10.751,15.893-23.126,30.967-37.575,44.241c-14.394,13.271-30.863,24.893-49.3,32.916l-14.506-29.376
					c28.007-16.385,51.894-40.551,71.509-68.372c19.633-27.855,35.557-59.026,47.678-91.826
					c11.993-32.856,20.435-67.327,24.393-102.578C2493.217,3047.722,2492.73,3011.66,2485.788,2975.891z"/>
			</g>
			<g>
				<path style="fill:#000072;" d="M1833.223,2978.364c-1.262,25.867-5.482,51.514-11.189,76.899
					c-2.97,12.664-6.21,25.331-10.28,37.784c-3.967,12.489-8.348,24.92-13.577,37.093c-10.274,24.393-23.134,48.306-40.867,69.677
					c-8.805,10.67-19.102,20.559-30.786,28.966c-11.669,8.386-24.929,15.302-39.28,19.046l-10.402-31.067
					c19.724-8.999,37.367-23.039,52.87-40.685c7.808-8.739,15.03-18.26,22.08-28.098c6.785-10.032,13.439-20.346,19.636-31.052
					c12.212-21.517,23.36-44.077,33.446-67.312C1815.045,3026.397,1824.396,3002.638,1833.223,2978.364z"/>
			</g>
			<g style="opacity:0.3;">
				<path style="fill:#FFFFFF;" d="M1319.498,2505.984c-77.424-31.669-208.069-28.157-248.073,6.464
					c-57.774,50,41.9,59.488,9.311,85.591c-30.025,24.049-45.692,40.238-20.529,70.761c29.958,36.34,239.655,87.045,273.015,34.928
					c28.022-43.778-58.41-63.232-10.995-87.833C1373.456,2589.314,1399.031,2538.517,1319.498,2505.984z"/>
			</g>
			<g>
				<path style="fill:#3A3A3A;" d="M2889.993,3027.926c-3.95-2.373-8.548-4.746-12.946-6.973c-4.462-2.241-8.984-4.341-13.574-6.313
					c-4.597-1.987-9.243-3.748-14.006-5.229c-4.774-1.438-9.626-2.729-14.804-2.651c4.472-2.739,9.772-4.275,14.969-5.537
					c5.241-1.24,10.585-2.161,15.909-2.832c5.336-0.686,10.703-1.216,16.073-1.58c5.433-0.349,10.633-0.657,16.404-0.647
					L2889.993,3027.926z"/>
			</g>
			<g>
				<path style="fill:#3A3A3A;" d="M2852.714,2870.729c-4.173,1.58-8.759,3.674-13.11,5.691c-4.396,2.063-8.771,4.226-13.084,6.521
					c-8.612,4.626-17.049,9.602-24.84,15.974c3.322-9.536,8.188-18.782,13.411-27.71c2.631-4.468,5.396-8.86,8.262-13.215
					c2.924-4.387,5.724-8.572,9.133-13.03L2852.714,2870.729z"/>
			</g>
			<g>
				<path style="fill:#3A3A3A;" d="M2780.752,3154.535c0.628-4.98,0.861-10.869,0.945-16.372c0.054-5.591-0.13-11.177-0.609-16.746
					c-0.496-5.566-1.387-11.025-2.906-16.35c-1.574-5.269-3.723-10.566-8.427-14.258c5.96,1.157,11.233,5.508,15.456,10.054
					c4.289,4.634,8.028,9.797,11.33,15.117c3.289,5.332,6.292,10.842,9.053,16.462c2.756,5.718,5.256,11.15,7.607,17.573
					L2780.752,3154.535z"/>
			</g>
			<g>
				<path style="fill:#000072;" d="M2168.626,2776.378c10.654,23.383,18.806,48.042,24.665,73.318
					c5.85,25.29,9.195,51.201,10.673,77.237c0.213,6.508,0.77,13.04,0.694,19.558l-0.066,19.583
					c-0.609,13.028-1.122,26.1-2.616,39.074c-2.696,25.976-6.906,51.8-12.554,77.322c-5.801,25.489-13.324,50.564-22.047,75.223
					c-8.913,24.595-19.299,48.674-31.16,72.091c-12.076,23.301-25.416,46.073-41.357,67.415
					c-7.776,10.778-16.418,21.096-25.814,30.959c-9.377,9.901-19.723,19.194-32.561,27.154l-17.827-27.487
					c8.411-6.108,16.597-14.573,24.264-23.508c7.615-9.039,14.97-18.571,21.781-28.639c13.67-20.053,26.077-41.344,36.989-63.422
					c11.137-21.973,20.965-44.68,29.646-67.826c8.813-23.098,16.415-46.7,22.587-70.671c6.396-23.916,11.452-48.203,15.084-72.71
					c3.71-24.5,6.189-49.203,7.341-74.035c1.136-24.824,1.404-49.821-0.044-74.906
					C2174.787,2827.034,2172.119,2801.885,2168.626,2776.378z"/>
			</g>
		</g>
		<g>
			<path style="fill:#FFFFFF;" d="M1782.214,1816.305c291.046-176.253,686.759-260.745,946.593-57.208
				c329.373,258.007,219.219,824.324-127.37,923c-343.162,66.416-879.602-291.478-879.602-291.478"/>
		</g>
		<g>
			<path style="fill:#FFFFFF;" d="M2887.125,2399.024c-51.19,134.855-150.458,244.566-285.682,283.062
				c-343.179,66.424-879.611-291.457-879.611-291.457l60.363-574.313c149.68-90.668,327.085-157.051,499.411-172.449
				c162.744-14.538,320.983,16.381,447.197,115.239C2929.633,1916.404,2967.064,2188.367,2887.125,2399.024z"/>
		</g>
		<g style="opacity:0.2;">
			<path style="fill:#000072;" d="M2887.125,2399.024c-51.19,134.855-150.458,244.566-285.682,283.062
				c-343.179,66.424-879.611-291.457-879.611-291.457l60.363-574.313c149.68-90.668,327.085-157.051,499.411-172.449
				c44.843,135.347,45.907,300.343,36.57,409.972c-15.562,182.155-92.92,387.858,230.97,465.626
				C2729.582,2562.751,2831.881,2480.438,2887.125,2399.024z"/>
		</g>
		<g>
			<path style="fill:#000072;" d="M2509.316,2706.803c-131.709,0.005-293.667-43.735-483.193-130.649
				c-176.147-80.779-312.026-171.006-313.379-171.909c-7.524-5.02-9.556-15.19-4.536-22.715c5.029-7.522,15.19-9.548,22.72-4.539
				c5.308,3.54,534.146,352.944,866.699,289.155c149.722-42.954,265.068-183.711,301.099-367.529
				c40.42-206.191-28.56-407.983-180.02-526.626c-267.651-209.663-667.192-99.619-928.008,58.325
				c-7.734,4.685-17.813,2.212-22.5-5.525c-4.683-7.739-2.212-17.813,5.527-22.498c269.751-163.35,684.385-276.059,965.186-56.094
				c161.211,126.282,234.766,340.371,191.963,558.721c-38.467,196.255-162.983,346.816-324.951,392.93
				c-0.454,0.129-0.913,0.239-1.377,0.327C2574.829,2703.93,2543.052,2706.803,2509.316,2706.803z"/>
		</g>
		<g>
			<path style="fill:#FFFFFF;" d="M1972.596,2339.946c0.198,189.029-392.696,185.368-343.096,404.882
				c29.689,131.396,228.235,137.057,365.583,65.863c198.393-102.836,299.865-281.716,325.414-441.342L1972.596,2339.946z"/>
		</g>
		<g>
			<path style="fill:#FFFFFF;" d="M2320.511,2369.334c-12.9,80.594-45.129,166.061-99.473,244.198
				c-33.089,47.627-74.369,92.511-124.453,131.907c0,0-0.041,0.041-0.082,0.082c-30.509,23.957-64.254,45.866-101.438,65.155
				c-137.312,71.216-335.889,65.564-365.579-65.851c-49.593-219.503,343.302-215.858,343.097-404.894L2320.511,2369.334z"/>
		</g>
		<g style="opacity:0.2;">
			<path style="fill:#000072;" d="M2320.511,2369.334c-12.9,80.594-45.129,166.061-99.473,244.198
				c-7.126-58.89-26.455-153.325-76.662-153.325c-72.936,0-89.235,53.565-242.846,100.087
				c-100.537,30.468-296.411,117.164-174.579,225.237c99.514,88.252,287.402,1.474,369.552-40.01
				c-30.509,23.957-64.254,45.866-101.438,65.155c-137.312,71.216-335.889,65.564-365.579-65.851
				c-49.593-219.503,343.302-215.858,343.097-404.894L2320.511,2369.334z"/>
		</g>
		<g>
			<path style="fill:#000072;" d="M1811.421,2872.299c-41.89,0-81.011-7.2-112.803-21.98
				c-45.376-21.096-74.805-56.326-85.098-101.88c-29.17-129.114,81.67-188.97,179.463-241.782
				c83.984-45.354,163.315-88.193,163.232-166.694c-0.01-9.048,7.319-16.389,16.367-16.399c0.005,0,0.01,0,0.015,0
				c9.038,0,16.372,7.324,16.382,16.365c0.103,98.066-91.675,147.627-180.43,195.557
				c-96.045,51.868-186.768,100.859-163.076,205.732c8.091,35.786,30.615,62.5,66.958,79.395
				c70.747,32.893,183.872,22.832,275.112-24.465c169.37-87.793,287.793-248.311,316.777-429.387
				c1.431-8.931,9.863-15.039,18.765-13.584c8.936,1.428,15.015,9.829,13.589,18.765c-30.62,191.284-155.503,360.74-334.053,453.293
				C1942.9,2856.191,1874.067,2872.299,1811.421,2872.299z"/>
		</g>
		<g>
			<path style="fill:#FFFFFF;" d="M2743.231,2240.128c-47.944-171.74-310.374-224.397-430.385-58.971
				c-121.109,166.938-82.767,358.999-22.244,456.75c-41.76,11.978-186.463,102.527-141.996,235.901
				c40.017,120.025,206.74,125.086,269.767,104.469c110.959-36.296,185.237-127.143,210.305-202.237
				c35.643-106.77,24.674-211.83,13.423-263.818"/>
		</g>
		<g style="opacity:0.2;">
			<path style="fill:#000072;" d="M2285.09,2690.316c0,0-98.841,55.405-28.968,106.641c80.697,59.174,204.847,2.691,202.778-28.14
				C2456.83,2737.987,2336.476,2755.574,2285.09,2690.316z"/>
		</g>
		<g style="opacity:0.2;">
			<path style="fill:#000072;" d="M2312.734,2604.249c11.444,36.404,98.637,76.446,160.649,49.937
				c81.436-34.813,0.759-237.786-112.96-227.7C2290.434,2432.693,2289.638,2530.78,2312.734,2604.249z"/>
		</g>
		<g>
			<path style="fill:#000072;" d="M2743.231,2240.128c-7.665-19.865-18.101-38.247-30.818-54.575
				c-12.782-16.28-27.757-30.547-44.304-42.437c-33.091-23.835-71.957-38.572-111.66-44.304
				c-19.888-2.678-39.982-3.594-59.846-1.826c-19.847,1.735-39.402,5.807-58.11,12.114c-37.428,12.656-71.077,35.189-96.612,65.002
				c-6.467,7.496-12.282,15.058-17.943,23.615c-5.852,8.295-11.125,16.951-16.376,25.606c-10.237,17.47-19.037,35.721-26.448,54.486
				c-14.795,37.53-24.1,77.212-26.909,117.53c-3.2,40.289-0.035,81.073,8.176,120.776c8.526,39.581,22.21,78.393,42.148,113.168
				l0.374,0.652c4.457,7.774,1.769,17.689-6.005,22.146c-1.192,0.684-2.515,1.217-3.78,1.572l-0.017,0.004
				c-4.447,1.288-9.715,3.496-14.765,5.884c-5.101,2.436-10.202,5.145-15.216,8.07c-10.041,5.838-19.782,12.422-29.054,19.564
				c-18.544,14.283-35.321,30.844-48.819,49.369c-13.461,18.514-23.481,39.141-27.921,60.789
				c-4.51,21.624-3.321,44.103,3.044,65.618c6.13,21.531,17.478,40.727,33.293,56.145c15.742,15.461,35.569,27.081,57.02,35.183
				c21.474,8.133,44.559,12.932,67.894,15.031c23.315,2.035,47.134,1.435,69.76-2.322c5.641-0.944,11.171-2.136,16.457-3.577
				c2.716-0.763,5.028-1.433,7.842-2.457l8.282-2.94c10.972-4.118,21.699-8.879,32.144-14.198
				c20.869-10.669,40.651-23.544,58.785-38.483c36.252-29.784,66.727-67.199,87.167-108.925c5.048-10.566,9.262-20.88,12.769-32.281
				c3.816-11.265,7.128-22.722,10.128-34.281c5.845-23.169,9.903-46.853,12.907-70.782c5.975-47.937,7.285-96.737,5.283-146.84
				c9.362,23.378,15.256,48.072,19.245,73.056c1.923,12.513,3.123,25.131,4.135,37.81l0.762,19.059l-0.098,19.11
				c-0.682,25.501-3.77,51.021-9.076,76.159c-2.736,12.548-5.632,25.102-9.46,37.421c-3.495,12.38-8.528,25.142-14.01,37.004
				c-11.129,23.933-25.306,46.106-41.636,66.458c-16.306,20.37-34.754,38.988-55.065,55.357
				c-20.26,16.419-42.343,30.65-65.794,42.174c-11.717,5.772-23.75,10.918-36.047,15.345l-9.278,3.157
				c-3.024,1.057-6.67,2.107-9.934,2.964c-6.693,1.736-13.313,3.06-19.907,4.084c-26.348,4.039-52.488,4.225-78.511,1.766
				c-25.983-2.517-51.875-7.993-76.73-17.573c-24.773-9.545-48.667-23.507-68.249-42.966
				c-19.643-19.287-34.081-44.317-41.522-70.465c-7.74-25.998-9.353-54.492-3.682-81.44c5.549-27.012,17.854-51.904,33.498-73.412
				c15.723-21.557,34.645-40.117,55.339-56.073c10.365-7.98,21.198-15.311,32.583-21.933c5.691-3.317,11.54-6.434,17.623-9.337
				c6.158-2.878,12.316-5.58,19.772-7.777l0.027-0.009l-9.411,24.369c-12.101-18.81-22.446-38.56-30.695-59.102
				c-8.387-20.485-15.161-41.592-20.141-63.119c-10.202-43-13.692-87.591-10.711-131.826c3.313-44.196,13.245-88.082,30.208-129.115
				c8.469-20.506,18.45-40.375,29.935-59.293c5.871-9.373,11.788-18.717,18.286-27.646c6.135-9.043,13.497-18.138,21.071-26.496
				c30.43-33.896,70.33-59.194,113.531-72.623c21.573-6.857,44.005-10.614,66.436-11.575c22.421-0.937,44.926,0.555,66.763,5.221
				c43.661,8.946,85.136,28.696,118.053,58.184C2712.385,2158.363,2735.865,2198.095,2743.231,2240.128z"/>
		</g>
		<g>
			<path style="fill:#000072;" d="M2453.7,2715.814c-15.591,0.225-31.263-1.14-46.862-3.475
				c-15.599-2.399-31.122-6.027-46.435-11.036c-15.284-5.107-30.166-12.017-44.442-20.651c-14.218-8.803-27.15-20.143-38.719-33.266
				c-6.014-6.822-5.358-17.226,1.463-23.24s17.226-5.359,23.24,1.463c0.609,0.691,1.15,1.419,1.623,2.176l0.393,0.643
				c7.157,11.625,15.861,22.844,26.667,32.511c10.879,9.516,23.042,18.138,36.274,25.327c13.264,7.102,27.315,13.163,41.866,18.113
				C2423.332,2709.271,2438.333,2713.317,2453.7,2715.814z"/>
		</g>
		<g>
			<path style="fill:#000072;" d="M2351.125,2818.124c-11.315,12.06-21.051,25.436-29.24,39.446
				c-8.1,14.042-14.533,28.919-17.941,44.069c-3.341,15.13-3.615,30.444,0.282,44.281c3.594,13.923,11.396,26.133,21.02,36.74
				l-25.969,19.974c-10.138-15.669-17.67-33.784-19.271-52.576c-1.954-18.736,1.765-37.14,8.329-53.388
				c6.667-16.313,16.138-30.764,26.834-43.789C2325.958,2839.92,2337.956,2828.183,2351.125,2818.124z"/>
		</g>
		<g>
			<path style="fill:#000072;" d="M2242.08,2763.823c-12.225,8.811-22.588,19.757-31.122,31.688
				c-8.501,11.949-15.295,24.91-19.497,38.545c-1.332,3.287-1.959,6.835-2.833,10.254c-0.803,3.444-1.807,6.799-2.107,10.346
				l-1.396,10.409c-0.237,3.494-0.208,7.021-0.335,10.491c-0.559,6.906,0.669,13.953,1.034,20.807
				c0.802,6.89,2.47,13.743,3.597,20.501l-32.453,4.488c0.052-8.212-0.342-16.294,0.195-24.402
				c0.977-8.138,1.162-16.198,3.209-24.144c0.87-3.969,1.598-7.935,2.604-11.836l3.742-11.525c1.087-3.859,2.891-7.498,4.494-11.164
				c1.674-3.642,3.098-7.354,5.225-10.758c7.385-14.105,17.245-26.617,28.335-37.383
				C2215.885,2779.399,2228.437,2770.296,2242.08,2763.823z"/>
		</g>
		<g>
			<path style="fill:#000072;" d="M1835.369,2750.183c-9.725,12.098-20.576,23.37-32.186,33.954
				c-11.638,10.561-24.176,20.354-37.98,28.751c-13.808,8.315-28.917,15.472-45.831,19.142c-8.431,1.794-17.267,2.924-26.334,2.549
				c-9.049-0.347-18.225-1.948-27.125-4.796l12.577-30.251c5.457,2.889,11.35,5.124,17.651,6.55
				c6.298,1.45,13.017,1.811,19.875,1.608c13.766-0.439,28.06-4.15,41.895-9.47c13.87-5.371,27.369-12.468,40.315-20.603
				C1811.165,2769.452,1823.692,2760.372,1835.369,2750.183z"/>
		</g>
		<g>
			<path style="fill:#000072;" d="M1759.727,2648.53c-13.655,3.83-26.537,9.662-38.551,16.625
				c-12.03,6.939-23.14,15.196-32.944,24.566c-9.835,9.309-18.621,19.512-25.63,30.748c-7.439,10.915-12.666,23.072-17.415,35.077
				l-29.553-14.141c8.263-13.028,17.029-25.612,27.835-36.353c10.366-11.053,22.29-20.417,34.796-28.331
				c12.484-7.983,25.808-14.315,39.517-19.02C1731.46,2652.976,1745.563,2649.674,1759.727,2648.53z"/>
		</g>
		<g>
			<path style="fill:#000072;" d="M1021.638,1846.744c-1.479-2.996-3.282-6.375-5.049-9.571c-1.702-3.262-3.561-6.475-5.46-9.672
				c-3.639-6.45-7.865-12.635-11.769-18.941c-8.287-12.373-16.743-24.63-26.023-36.288c-18.424-23.372-38.189-45.761-60.09-66.026
				c-5.299-5.246-11.208-9.83-16.725-14.848l-8.415-7.379c-2.827-2.435-5.87-4.607-8.794-6.925l-17.657-13.8l-18.412-12.813
				c-12.029-8.969-25.379-15.854-38.009-23.987l-4.792-2.965l-4.976-2.632l-9.961-5.272l-19.891-10.721l-0.49-0.264
				c-3.977-2.144-5.464-7.106-3.32-11.083c2.032-3.769,6.624-5.288,10.482-3.613l21.285,9.315l10.627,4.746l5.318,2.377l5.146,2.718
				c6.881,3.594,13.712,7.3,20.528,11.043c3.379,1.919,6.902,3.602,10.165,5.718l9.861,6.24l19.706,12.556l18.854,13.837
				c3.105,2.357,6.328,4.568,9.337,7.048l8.967,7.524c5.917,5.086,12.093,9.891,17.693,15.337l16.927,16.205
				c5.525,5.521,10.732,11.363,16.04,17.096c5.427,5.629,10.176,11.867,15.221,17.835c5.049,5.97,9.62,12.327,14.22,18.651
				c18.286,25.504,34.03,52.35,44.771,82.747c1.505,4.26-0.728,8.934-4.988,10.44c-3.95,1.396-8.256-0.423-10.062-4.091
				L1021.638,1846.744z"/>
		</g>
		<g>
			<path style="fill:#000072;" d="M979.389,1949.458c-9.69-8.329-20.243-16.68-30.804-24.455
				c-10.616-7.824-21.419-15.361-32.469-22.48c-22.135-14.154-45.016-27.081-69.03-37.307c-11.988-5.138-24.181-9.761-36.631-13.49
				c-6.19-2.012-12.505-3.49-18.769-5.225c-6.337-1.347-12.645-2.961-19.057-3.91c-25.536-4.708-51.655-5.534-77.692-3.158
				l-0.165,0.015c-4.508,0.411-8.496-2.91-8.907-7.418c-0.385-4.217,2.534-7.985,6.597-8.79c27.332-5.317,55.745-6.313,83.501-2.535
				c13.885,1.81,27.661,4.531,41.087,8.401c13.468,3.723,26.708,8.237,39.512,13.71c25.715,10.701,50.137,24.233,72.718,40.209
				c22.637,16.047,43.488,33.873,61.974,55.141c2.968,3.415,2.606,8.59-0.809,11.558c-3.11,2.704-7.681,2.644-10.714,0.031
				L979.389,1949.458z"/>
		</g>
		<g>
			<path style="fill:#FFFFFF;" d="M1797.493,1299.833c2.269-259.477,372.399-408.14,498.48-490.695
				c208.881-136.77,234.276-308.02,194.703-339.359c-42.853-33.936-95.273,18.297-274.287,51.447
				c-105.276,19.495-510.514,48-641.276,406.094c-69.541,190.439-41.107,333.081,2.413,394.866"/>
		</g>
		<g>
			<path style="fill:#FFFFFF;" d="M2295.949,809.144c-86.725,56.807-289.016,144.896-407.488,278.851
				c-53.764,60.719-90.26,130.892-90.951,211.819l-219.992,22.392c-38.217-54.311-64.796-170.957-23.545-327.632
				c5.681-21.63,12.659-44.085,21.125-67.24c130.768-358.13,536.026-386.635,641.303-406.099
				c178.998-33.164,231.401-85.379,274.266-51.475C2530.262,501.133,2504.869,672.383,2295.949,809.144z"/>
		</g>
		<g style="opacity:0.2;">
			<path style="fill:#000072;" d="M1797.51,1299.814l-219.992,22.392c-38.217-54.311-64.796-170.957-23.545-327.632
				c19.635,26.467,51.33,46.529,89.032-12.381c46.19-72.144,144.733,24.821,144.733,24.821s-44.186,131.229,100.724,80.98
				C1834.697,1148.714,1798.202,1218.887,1797.51,1299.814z"/>
		</g>
		<g>
			<path style="fill:#000072;" d="M1577.539,1340.869c-5.869,0-11.645-2.761-15.288-7.925
				c-47.134-66.917-76.641-214.978-4.683-412.029c52.725-144.392,155.054-253.621,304.15-324.653
				c121.44-57.859,243.413-76.567,316.294-87.744c13.804-2.117,25.728-3.948,34.971-5.659
				c74.307-13.76,126.938-31.025,165.366-43.63c56.909-18.674,91.274-29.949,123.921-4.092
				c15.967,12.644,23.984,36.855,22.573,68.176c-3.394,75.242-62.686,199.338-218.638,301.453
				c-23.335,15.278-54.102,32.363-89.727,52.148c-158.706,88.14-398.545,221.338-400.308,423.084
				c-0.088,10.259-8.433,18.516-18.672,18.516c-0.059,0-0.112,0-0.166,0c-10.317-0.09-18.608-8.525-18.516-18.843
				c1.948-223.511,253.242-363.066,419.526-455.415c34.985-19.431,65.2-36.211,87.393-50.745
				c144.15-94.385,198.794-205.449,201.782-271.877c1.05-23.264-4.814-34.336-8.442-37.21c-16.069-12.734-35.449-7.297-89.082,10.3
				c-39.434,12.937-93.438,30.652-170.205,44.868c-9.819,1.819-22.002,3.686-36.118,5.852
				c-142.402,21.841-475.884,72.991-591.016,388.284c-71.665,196.255-33.633,329.758,0.142,377.703
				c5.938,8.435,3.916,20.088-4.517,26.028C1585.01,1339.76,1581.255,1340.866,1577.539,1340.869z"/>
		</g>
		<g>
			<path style="fill:#FF8080;" d="M2408.275,547.688c-2.558,5.389-5.106,10.693-7.684,15.907
				c-40.333,82.299-89.8,151.217-336.599,245.192c-246.3,93.781-319.101,276.5-349,344.243
				c-32.242,73.117-107.061,80.128-112.046,32.837c-13.478-127.877,46.664-320.199,125.034-397.115
				c161.339-158.347,390.029-146.814,556.724-197.845C2355.469,569.25,2408.275,547.688,2408.275,547.688z"/>
		</g>
		<g>
			<path style="fill:#FF8080;" d="M2408.297,547.671c-2.588,5.393-5.11,10.691-7.73,15.924
				c-6.308,12.827-12.79,25.374-20.289,37.743c-0.312,0.429-0.58,0.915-0.841,1.35c-1.237,2.029-2.475,4.057-3.756,6.028
				c-0.128,0.192-0.255,0.384-0.382,0.577c-40.942,63.704-111.349,123.356-311.279,199.48
				c-246.308,93.822-319.123,276.513-349.039,344.278c-32.233,73.088-107.05,80.109-112.014,32.81
				c-7.54-71.453,7.909-162.97,36.723-243.283c0.166-0.499,0.325-0.946,0.42-1.298c0.083-0.249,0.166-0.499,0.248-0.748
				c22.686-62.634,53.432-118.197,87.645-151.78c161.311-158.32,389.999-146.818,556.713-197.856
				C2355.469,569.246,2408.297,547.671,2408.297,547.671z"/>
		</g>
		<g>
			<path style="fill:#FF5C64;" d="M2375.298,609.291c-40.942,63.704-111.349,123.356-311.279,199.48
				c-246.308,93.822-319.123,276.513-349.039,344.278c-32.233,73.088-107.05,80.109-112.014,32.81
				c-7.54-71.453,7.909-162.97,36.723-243.283c-5.05,16.098-29.56,102.344,27.031,103.304
				c66.129,1.099,110.369-160.868,269.966-242.177C2074.226,733.64,2286.735,745.793,2375.298,609.291z"/>
		</g>
		<g>
			<path style="fill:#000072;" d="M1637.139,1232.204c-3.135,0-6.191-0.232-9.146-0.696c-23.022-3.599-38.862-20.43-41.338-43.923
				c-14.15-134.265,47.739-329.937,129.849-410.525c118.462-116.26,272.739-143.845,408.857-168.184
				c55.259-9.883,107.451-19.214,154.546-33.633c69.16-21.165,121.655-42.51,122.178-42.722c6.265-2.556,13.442-1.001,18.091,3.911
				c4.648,4.91,5.796,12.17,2.9,18.279c-2.598,5.471-5.186,10.852-7.803,16.145c-41.533,84.751-93.359,157.251-345.449,253.24
				c-231.563,88.167-305.2,256.409-336.646,328.252l-3.203,7.297C1708.345,1208.7,1668.721,1232.204,1637.139,1232.204z
				 M2374.751,578.002c-21.885,7.974-51.445,18.223-85.254,28.569c-48.979,14.993-102.114,24.495-158.369,34.553
				c-137.871,24.653-280.439,50.146-391.675,159.319c-74.839,73.45-133.262,259.927-120.22,383.708
				c0.928,8.775,5.449,13.679,13.823,14.988c19.78,3.079,50.015-14.316,66.943-52.717l3.169-7.212
				c33.091-75.61,110.591-252.676,354.995-345.73C2276.616,710.297,2336.836,647.346,2374.751,578.002z"/>
		</g>
		<g>
			<path style="fill:#FFFFFF;" d="M911.316,1904.207c6.55-85.293,48.806-136.458,79.059-163.141
				c78.753-299.967,248.202-588.674,666.77-593.109c71.598-0.759,147.059,15.211,260.175,60.307
				c116.058,48.018,189.696,89.518,265.712,177.984c137.51,160.029,160.874,397.05,115.295,657.077
				c8.33,325.927-278.497,465.587-610.366,419.874C1072.093,2378.365,899.124,2062.954,911.316,1904.207z"/>
		</g>
		<g style="opacity:0.2;">
			<path style="fill:#000072;" d="M2294.124,2122.733c-36.771,268.984-302.623,382.259-606.147,340.467
				c-546.206-75.216-744.008-331.8-773.313-499.652c81.824,163.347,304.554,354.884,771.64,419.245
				C1964.383,2421.066,2212.128,2334.565,2294.124,2122.733z"/>
		</g>
		<g>
			
				<ellipse transform="matrix(0.0527 -0.9986 0.9986 0.0527 -350.6089 3966.1011)" style="fill:#FF67A0;" cx="1915.158" cy="2167.85" rx="99.121" ry="140.691"/>
		</g>
		<g>
			<path style="fill:#FF67A0;" d="M1047.761,1916.474c-23.791,27.781-83.647,28.563-130.115,13.35
				c0.893-25.998,4.696-49.493,10.299-69.628c13.947-50.036,38.38-85.13,63.211-109.568c1.258-0.916,2.506-1.789,3.755-2.663
				c5.099,1.414,3.39,0.539,7.679,2.42C1063.98,1796.59,1082.625,1875.782,1047.761,1916.474z"/>
		</g>
		<g>
			<path style="fill:#000072;" d="M1807.603,2487.99c-39.453,0.002-80.195-2.822-121.875-8.564
				c-344.766-47.49-534.365-165.403-632.705-255.957c-125.776-115.813-164.106-241.504-158.037-320.517
				c6.538-85.149,46.704-139.475,80.801-170.791c47.139-177.346,115.42-311.426,208.657-409.746
				c118.12-124.558,277.1-188.767,472.524-190.837c76.768-0.789,156.309,17.576,266.416,61.47
				c116.025,48.003,193.662,91.272,272.07,182.524c130.132,151.44,170.264,376.514,119.292,668.979
				c2.959,131.177-41.421,241.589-128.403,319.39C2095.918,2444.821,1961.782,2487.988,1807.603,2487.99z M1661.772,1164.313
				c-1.489,0-2.969,0.007-4.458,0.022c-336.44,3.567-549.414,193.577-651.094,580.891c-0.825,3.144-2.568,5.974-5.01,8.125
				c-30.283,26.706-67.622,74.773-73.559,152.109l0,0c-5.479,71.353,30.405,186.03,147.563,293.909
				c94.897,87.38,278.623,201.267,614.985,247.6c195.044,26.858,367.915-12.297,474.302-107.449
				c81.099-72.537,120.615-172.051,117.451-295.779c-0.024-1.086,0.054-2.173,0.244-3.245
				c49.624-283.125,12.08-499.653-111.587-643.574c-74.546-86.75-145.894-126.499-259.556-173.523
				C1807.534,1182.131,1732.549,1164.313,1661.772,1164.313z M911.318,1904.206h0.049H911.318z"/>
		</g>
		<g>
			<g>
				<path style="fill:#FFFFFF;" d="M1392.538,1246.269c26.468-49.224-105.837-94.002-95.736-131.941
					c7.529-28.277,176.475-50.419,265.696,55.1c0,0,5.314-26.829,5.375-62.73c0.167-99.083,30.226-118.729,30.226-118.729
					c44.422,2.344,191.665,169.943,384.374,249.064"/>
			</g>
			<g>
				<path style="fill:#000072;" d="M1385.324,1242.39c1.797-7.588-0.181-12.621-4.24-18.636
					c-4.192-5.889-10.515-11.783-17.375-17.445c-13.999-11.259-29.776-22.208-45.763-34.479
					c-8.01-6.233-16.152-12.631-24.154-21.238c-3.958-4.353-8.018-9.322-11.342-16.349c-1.618-3.547-3.009-7.748-3.482-12.565
					c-0.234-2.396-0.219-4.917,0.08-7.433c0.12-1.256,0.411-2.491,0.664-3.729c0.225-1.151,0.986-3.37,1.635-4.857
					c2.918-6.153,6.529-9.415,9.631-12.011c3.166-2.542,6.16-4.355,9.03-5.856c5.774-3.039,11.21-4.995,16.622-6.711
					c10.781-3.326,21.302-5.23,31.819-6.529c21.003-2.59,41.884-2.263,62.566-0.018c20.67,2.283,41.14,6.74,60.914,13.636
					c39.467,13.568,76.514,37.562,103.069,70.67l0.009,0.01l-28.577,7.394c1.229-6.678,2.277-14.48,3.042-21.841
					c0.775-7.474,1.331-14.987,1.659-22.499c0.635-14.489,0.209-31.34,1.609-47.617c1.342-16.388,3.57-32.897,8.037-49.487
					c2.206-8.29,5.054-16.601,9.009-24.881c0.939-2.068,1.991-4.135,3.204-6.201c1.098-2.059,2.397-4.126,3.799-6.183
					c1.31-2.053,2.969-4.117,4.692-6.19c0.98-1.069,1.745-2.038,2.954-3.165c0.592-0.562,1.07-1.049,1.77-1.656l1.124-0.933
					l0.644-0.51l1.163-0.822c2.929-2.071,6.354-2.923,9.671-2.66l0.156,0.013c8.802,0.705,14.462,3.266,19.757,5.636
					c5.237,2.461,9.847,5.135,14.281,7.875c8.829,5.494,16.876,11.287,24.781,17.151c15.749,11.747,30.75,23.81,45.765,35.784
					c29.945,23.98,59.727,47.68,90.35,70.117c61.108,44.846,125.534,85.205,194.798,113.707l0.027,0.011
					c8.366,3.443,12.358,13.016,8.915,21.382c-3.443,8.366-13.016,12.357-21.382,8.915l-0.003-0.001
					c-72.787-29.969-139.314-71.81-201.737-117.6c-31.255-22.9-61.503-46.98-91.424-70.939
					c-14.966-11.938-29.865-23.905-44.86-35.086c-7.489-5.562-15.035-10.962-22.494-15.595c-3.714-2.304-7.43-4.42-10.875-6.032
					c-3.362-1.666-6.819-2.606-7.627-2.607l9.826-2.647l0.567-0.39c0.144-0.11,0.042-0.022,0.074-0.044l-0.009,0.007l-0.369,0.366
					c-0.256,0.185-0.694,0.781-1.054,1.145c-0.756,0.959-1.618,1.928-2.396,3.201c-0.811,1.188-1.614,2.435-2.352,3.852
					c-0.791,1.315-1.518,2.744-2.192,4.259c-2.822,5.885-5.138,12.48-6.951,19.359c-3.711,13.75-5.766,28.484-6.976,43.374
					c-1.296,15.04-0.852,29.643-1.543,46.529c-0.356,8.176-0.96,16.329-1.805,24.473c-0.88,8.253-1.875,16.034-3.489,24.799
					c-1.627,8.838-10.111,14.684-18.949,13.057c-3.739-0.688-6.943-2.604-9.271-5.255l-0.358-0.408l-0.008-0.009
					c-12.048-13.282-25.696-25.035-40.868-34.631c-15.137-9.644-31.675-17.141-48.846-22.952
					c-34.367-11.336-71.907-15.718-107.707-12.059c-8.878,0.943-17.676,2.459-25.605,4.787c-3.913,1.16-7.71,2.531-10.602,4.015
					c-1.479,0.717-2.659,1.491-3.313,1.991c-0.684,0.45-0.569,0.782,0.237-0.94c0.233-0.345,0.486-1.436,0.474-1.391
					c0.04-0.037-0.03-0.093-0.003-0.13c0.002-0.091-0.026-0.16-0.041-0.126c-0.034,0.053,0.013,0.589,0.378,1.498
					c0.762,1.865,2.666,4.788,5.224,7.682c5.116,5.9,12.135,11.962,19.387,17.89c14.611,11.991,30.981,23.473,45.533,38.957
					c3.707,3.822,7.182,8.026,10.485,12.595c3.31,4.578,6.352,9.615,8.641,15.439c2.37,5.713,3.764,12.47,3.303,19.317
					c-0.498,6.879-3.174,13.361-6.907,18.211c-2.789,3.623-7.988,4.299-11.611,1.51c-2.66-2.048-3.731-5.393-3.01-8.461
					L1385.324,1242.39z"/>
			</g>
		</g>
		<g>
			<g>
				<path style="fill:#3A3A3A;" d="M1307.067,1951.35c25.189,56.188-33.735,173.379,40.803,209.133
					c69.9,33.53,131.673-50.549,154.793-133.986"/>
			</g>
			<g>
				<path style="fill:#000072;" d="M1502.683,2026.49c-9.261,33.421-24.699,66.954-44.401,92.951
					c-29.493,38.96-68.497,61.12-110.435,41.061c-26.022-12.471-35.756-34.854-38.489-61.079
					c-5.176-48.984,14.125-111.496-2.298-148.077L1502.683,2026.49z"/>
			</g>
			<g>
				<path style="fill:#FF8080;" d="M1458.282,2119.44c-29.493,38.96-68.497,61.12-110.435,41.061
					c-26.022-12.471-35.756-34.854-38.489-61.079c20.416-10.904,46.019-7.82,70.399,12.268
					C1396.576,2100.987,1431.653,2102.583,1458.282,2119.44z"/>
			</g>
			<g>
				<path style="fill:#000072;" d="M1389.11,2099.161l3.169,6.977c0,0-16.177,6.332-20.053,26.992c0,0-5.215-22.797,9.736-37.589"/>
			</g>
			<g>
				<path style="fill:#000072;" d="M1379.604,2180.273c-12.471,0-24.941-2.905-37.046-8.713
					c-53.599-25.708-48.286-85.181-43.599-137.651c2.7-30.281,5.259-58.882-3.105-77.532c-2.773-6.191-0.005-13.462,6.187-16.238
					c6.187-2.783,13.457-0.005,16.235,6.184c10.986,24.504,8.154,56.206,5.156,89.771c-4.365,48.84-8.481,94.973,29.751,113.313
					c17.08,8.186,34.395,8.401,51.484,0.632c35.454-16.113,69.272-65.894,86.152-126.824c1.812-6.538,8.56-10.374,15.122-8.557
					c6.538,1.812,10.371,8.579,8.56,15.12c-14.917,53.833-48.936,119.573-99.668,142.632
					C1403.301,2177.651,1391.45,2180.273,1379.604,2180.273z"/>
			</g>
		</g>
		<g>
			<path style="fill:#FFFFFF;" d="M1354.763,1959.691l-11.161,93.724c-0.603,5.065,2.519,9.832,7.403,11.303l32.016,9.642
				c4.832,1.455,10.016-0.73,12.348-5.205l43.796-84.045"/>
		</g>
		<g>
			<polygon style="fill:#3A3A3A;" points="1384.097,1983.807 1375.319,2044.164 1396.912,1987.816 			"/>
		</g>
		<g>
			<path style="fill:#FFFFFF;" d="M1519.201,2021.249c-34.832,47.671-106.197,45.523-138.31-29.319
				c-1.556-3.626-5.674-6.478-8.893-4.197c-21.625,15.318-104.818,24.931-88.745-73.127l151.825-4.872L1519.201,2021.249z"/>
		</g>
		<g>
			<path style="fill:#000072;" d="M1524.161,2024.873c-7.406,13.337-18.987,25.126-33.611,32.347
				c-14.521,7.269-31.886,9.939-48.369,6.808c-16.556-3.021-31.451-11.943-42.907-23.135
				c-11.578-11.213-20.386-24.461-27.139-38.276l-2.437-5.228c-0.074-0.153-0.264-0.583-0.242-0.507
				c0.026,0.08,0.067,0.157,0.108,0.227c0.059,0.134,0.138,0.254,0.212,0.361c0.156,0.221,0.333,0.439,0.72,0.741
				c0.392,0.288,1.009,0.708,2.221,1.024c1.167,0.325,3.116,0.34,4.749-0.299c0.404-0.143,0.796-0.358,1.114-0.512l0.482-0.294
				c0.053-0.035,0.208-0.148,0.172-0.126l-0.194,0.131l-1.563,1.037c-1.063,0.726-2.076,1.287-3.091,1.838
				c-8.109,4.326-15.941,6.593-24.085,7.992c-16.025,2.589-33.677,1.65-49.534-7.33c-7.848-4.363-14.69-10.966-19.363-18.54
				c-4.814-7.53-7.402-15.871-8.725-23.903c-1.271-8.095-1.228-16.006-0.291-23.602c0.784-7.636,2.58-14.934,4.802-22.015
				c1.026-3.269,4.507-5.087,7.775-4.061c2.615,0.821,4.301,3.212,4.347,5.81l0.002,0.239c0.221,13.816,0.611,27.416,4.349,38.997
				c3.517,11.67,9.918,20.383,19.232,24.967c9.243,4.682,21.475,5.914,33.27,4.049c5.824-0.913,11.832-2.556,16.292-4.846
				c0.555-0.277,1.106-0.551,1.507-0.83l0.674-0.402l1.594-0.984c0.685-0.409,1.5-0.766,2.314-1.077
				c3.287-1.281,7.085-1.332,9.971-0.587c2.938,0.729,5.157,1.992,6.964,3.341c1.804,1.368,3.224,2.876,4.431,4.524
				c0.6,0.823,1.141,1.699,1.632,2.608l1.004,2.124l2.002,4.442c2.809,5.823,5.827,11.54,9.505,16.697
				c3.708,5.127,7.783,9.9,12.324,14.033c9.091,8.293,19.765,13.993,31.054,16.803c11.278,2.854,23.431,2.536,35.007-1.335
				c11.593-3.791,22.513-10.939,31.802-20.498l0.069-0.071c2.382-2.452,6.301-2.508,8.753-0.125
				C1525.113,2019.42,1525.484,2022.489,1524.161,2024.873z"/>
		</g>
		<g>
			<path style="fill:#000072;" d="M1380.879,2004.218c-5.728,0-10.854-4.026-12.026-9.858c-0.601-2.959-4.883-30.618,28.159-89.463
				c3.32-5.916,10.801-8.023,16.729-4.697c5.918,3.323,8.018,10.811,4.697,16.729c-28.262,50.332-25.542,72.373-25.503,72.573
				c1.343,6.65-2.959,13.13-9.614,14.473C1382.505,2004.14,1381.685,2004.218,1380.879,2004.218z"/>
		</g>
		<g>
			<g>
				<path style="fill:#FFFFFF;" d="M2041.833,1315.093c63.477-129.749,151.283-234.313,243.361-289.037
					c293.551-174.464,648.263-39.59,811.282-8.772c98.804,18.678,222.906,23.238,229.323,51.258
					c7.86,34.316-78.181,158.387-168.916,208.577c-303.6,167.936-762.84,5.057-958.099,200.163"/>
			</g>
			<g>
				<path style="fill:#000072;" d="M2034.476,1311.494c8.442-27.792,20.638-54.151,34.803-79.383
					c14.234-25.219,31.02-48.937,48.427-72.146c35.137-46.142,75.268-89.181,122.621-124.399
					c95.897-69.2,211.707-104.715,327.497-112.543c57.972-4.143,116.05-2.056,173.38,4.131
					c57.357,6.204,114.006,16.532,169.904,28.911c55.88,12.274,111.115,27.223,165.823,39.548
					c54.212,12.102,110.472,17.57,167.322,26.286c14.259,2.24,28.566,4.645,43.17,8.041c7.317,1.734,14.691,3.675,22.362,6.415
					c3.843,1.39,7.767,2.981,11.896,5.125c4.1,2.189,8.535,4.765,13.202,9.651c2.284,2.436,4.683,5.686,6.307,9.943
					c0.4,1.046,0.726,2.186,1.025,3.292c0.256,1.033,0.354,1.729,0.516,2.615c0.289,1.687,0.387,3.186,0.465,4.686
					c0.169,5.825-0.612,10.577-1.58,14.959c-2.011,8.701-4.948,16.091-8.11,23.254c-6.4,14.206-14.001,27.058-22.102,39.504
					c-16.303,24.762-34.778,47.586-54.982,68.915c-20.252,21.261-42.256,41.044-66.873,58.07
					c-6.16,4.245-12.492,8.302-19.024,12.119c-6.629,3.902-13.028,7.069-19.535,10.585c-13.111,6.568-26.348,12.896-39.899,18.4
					c-26.993,11.315-54.796,20.31-82.869,27.809c-56.239,14.805-113.566,23.188-170.75,28.513
					c-114.464,10.31-228.656,8.655-340.969,15.743c-28.063,1.833-55.961,4.453-83.557,8.245
					c-13.786,1.934-27.501,4.085-41.103,6.649c-13.573,2.649-27.026,5.677-40.304,9.185c-26.463,7.199-52.307,16.215-76.279,28.576
					c-6.043,3.002-11.843,6.387-17.667,9.739l-16.999,10.741c-11.43,7.087-22.83,14.163-36.019,20.405l-0.231,0.109
					c-4.297,2.033-9.429,0.198-11.463-4.099c-1.18-2.494-1.036-5.31,0.115-7.598c7.021-13.746,17.386-25.051,28.969-34.627
					c11.709-9.48,24.742-17.076,37.872-24.153c26.372-14.107,54.289-24.507,82.558-32.489
					c56.701-15.768,114.56-22.046,171.802-25.781c57.315-3.766,114.338-4.527,171.076-5.788
					c56.728-1.212,113.222-3.038,169.239-7.909c27.993-2.478,55.86-5.697,83.479-10.043c27.585-4.476,54.939-10.045,81.761-17.244
					c26.806-7.228,53.182-15.835,78.591-26.561c12.773-5.215,25.176-11.195,37.456-17.373c5.982-3.256,12.316-6.423,17.921-9.754
					c5.729-3.365,11.362-6.989,16.892-10.819c22.122-15.36,42.611-33.786,61.482-53.706c18.836-19.958,36.191-41.543,51.088-64.297
					c7.378-11.367,14.21-23.102,19.448-34.838c2.581-5.817,4.802-11.747,5.956-16.914c0.588-2.542,0.805-4.883,0.758-6.166
					c-0.025-0.269-0.03-0.552-0.06-0.611c0,0-0.02-0.175,0.012,0c0.032,0.261,0.149,0.533,0.232,0.751
					c0.368,0.924,0.692,1.2,0.537,1.065c-0.227-0.287-1.882-1.582-4.067-2.66c-2.178-1.129-4.843-2.24-7.684-3.252
					c-5.717-2.032-12.102-3.734-18.612-5.251c-13.088-3.012-26.829-5.311-40.645-7.438c-55.483-8.395-112.649-13.739-169.522-26.237
					c-56.216-12.525-110.788-27.164-165.976-39.13c-55.083-12.09-110.438-22.169-166.124-28.137
					c-55.651-5.968-111.632-7.904-167.078-3.9c-55.408,4.014-110.265,14-162.754,31.212c-26.24,8.588-51.853,19.033-76.571,31.271
					c-12.395,6.057-24.462,12.752-36.404,19.655l-17.317,10.81l-16.792,11.732c-44.172,32.447-82.667,73.115-116.524,117.114
					c-16.999,22.011-32.511,45.165-47.655,68.605c-15.346,23.34-30.417,46.898-47.151,70.063l-0.051,0.071
					c-2.683,3.714-7.869,4.55-11.583,1.867C2034.611,1318.502,2033.482,1314.788,2034.476,1311.494z"/>
			</g>
		</g>
		<g>
			<path style="fill:#FF8080;" d="M3225.497,1129.467c-15.681,39.986-153.523,115.892-258.357,138.589
				c-219.693,47.563-431.698-34.953-702.351,83.718c-48.407,21.225-88.639,59.456-113.414,48.174
				c-17.527-7.982-7.187-56.086,2.049-79.988c55.763-144.306,209.405-268.97,493.149-231.537
				C3091.402,1147.106,3229.604,1118.995,3225.497,1129.467z"/>
		</g>
		<g>
			<path style="fill:#FF8080;" d="M3225.492,1129.45c-15.69,40.024-153.534,115.917-258.327,138.609
				c-203.394,44.018-400.096-23.412-642.891,60.457c-19.519,6.679-39.325,14.413-59.474,23.247
				c-48.424,21.236-88.665,59.477-113.441,48.161c-17.503-7.976-7.152-56.085,2.081-79.977
				c55.769-144.289,209.398-268.971,493.148-231.511C3091.405,1147.124,3229.586,1118.997,3225.492,1129.45z"/>
		</g>
		<g>
			<path style="fill:#FF5C64;" d="M3225.492,1129.45c-67.269,38.436-623.55-10.847-758.56,9.258
				c-135.003,20.054-235.397,137.544-232.996,168.583c1.84,23.803,47.787,25.165,90.337,21.224
				c-19.519,6.679-39.325,14.413-59.474,23.247c-48.424,21.236-88.665,59.477-113.441,48.161
				c-17.503-7.976-7.152-56.085,2.081-79.977c55.769-144.289,209.398-268.971,493.148-231.511
				C3091.405,1147.124,3229.586,1118.997,3225.492,1129.45z"/>
		</g>
		<g>
			<path style="fill:#000072;" d="M2161.284,1418.422c-5.713,0-11.27-1.094-16.694-3.567c-38.159-17.373-7.759-97.4-6.445-100.798
				c31.982-82.768,90.234-149.287,168.457-192.368c91.997-50.667,207.08-67.329,342.114-49.507
				c316.685,41.78,480,39.358,541.46,38.455c35.054-0.525,42.344-0.627,48.716,8.577c3.286,4.746,3.984,10.815,1.855,16.235l0,0
				c-19.897,50.733-169.058,126.733-270.142,148.618c-87.92,19.033-172.7,17.703-262.402,16.294
				c-135.425-2.129-275.493-4.326-436.836,66.416c-16.108,7.06-31.284,16.133-45.962,24.907
				C2201.797,1405.795,2180.674,1418.42,2161.284,1418.422z M2159.36,1385.439c9.106,2.107,31.284-11.145,49.238-21.878
				c14.824-8.86,31.621-18.901,49.614-26.789c167.876-73.608,311.543-71.348,450.503-69.17
				c87.793,1.379,170.718,2.683,254.956-15.557c89.102-19.287,190.269-73.306,230.078-108.696c-1.025,0.015-2.056,0.029-3.091,0.044
				c-62.119,0.923-227.173,3.362-546.23-38.731c-335.039-44.211-444.331,139.966-475.728,221.204
				C2159.6,1349.428,2156.108,1377.731,2159.36,1385.439z M3225.498,1129.467h0.049H3225.498z M3210.249,1123.486
				c0,0.003,0,0.003,0,0.003V1123.486z"/>
		</g>
		<g>
			<path style="fill:#000072;" d="M2188.975,2109.609c29.807-12.284,60.307-18.473,91.504-21.872
				c7.781-0.794,15.565-1.632,23.381-1.855c7.812-0.225,15.627-0.85,23.441-0.565c7.812,0.128,15.637,0.107,23.436,0.539
				l23.365,1.793c7.793,0.537,15.493,1.931,23.229,2.944l11.587,1.658c3.855,0.587,7.652,1.511,11.48,2.251l22.887,4.809
				l22.501,6.298l11.228,3.18c3.754,1.018,7.358,2.519,11.042,3.755c7.335,2.579,14.654,5.193,21.923,7.92l5.458,2.019l5.319,2.375
				l10.626,4.748l21.141,9.637c4.111,1.874,5.925,6.726,4.051,10.837c-1.776,3.896-6.227,5.729-10.187,4.315l-0.554-0.2
				l-21.258-7.66l-10.573-3.901l-5.281-1.949l-5.406-1.59c-14.485-3.98-28.521-9.329-43.228-12.302l-21.829-5.163l-22.061-3.942
				c-3.678-0.631-7.326-1.448-11.026-1.928l-11.111-1.343c-7.419-0.76-14.776-2.103-22.219-2.549
				c-29.708-2.788-59.572-2.569-89.274-0.695c-14.874,0.868-29.646,2.749-44.391,4.833c-7.302,1.302-14.729,2.28-21.961,3.875
				c-3.648,0.719-7.282,1.478-10.847,2.388c-3.559,0.817-7.279,1.729-10.498,2.626l-0.579,0.162
				c-4.353,1.214-8.865-1.33-10.079-5.683C2183.086,2115.336,2185.192,2111.163,2188.975,2109.609z"/>
		</g>
		<g>
			<path style="fill:#000072;" d="M2175.012,2228.035c28.176-0.424,55.367,3.211,82.424,9.363
				c26.968,6.157,53.343,15.316,78.472,27.329c12.621,5.884,24.817,12.733,36.578,20.28c11.841,7.417,23.06,15.862,33.674,24.995
				c21.335,18.152,39.553,39.978,53.832,63.883c2.321,3.886,1.053,8.918-2.833,11.24c-3.635,2.171-8.273,1.202-10.757-2.113
				l-0.121-0.164c-15.605-20.978-33.649-39.879-54.196-55.757c-4.985-4.142-10.396-7.764-15.628-11.584
				c-5.473-3.508-10.787-7.225-16.416-10.492c-11.085-6.784-22.665-12.781-34.491-18.281c-23.641-11.062-48.538-19.477-73.85-26.518
				c-12.676-3.479-25.498-6.496-38.41-9.182c-12.837-2.677-26.099-4.965-38.769-6.623l-0.448-0.059
				c-4.486-0.587-7.647-4.7-7.06-9.187C2167.547,2231.077,2171.009,2228.091,2175.012,2228.035z"/>
		</g>
		<g style="opacity:0.2;">
			<path style="fill:#000072;" d="M1429.97,2017.785c-33.48-21.956-27.015-53.711-17.351-71.514
				c7.213-13.288,29.019-19.091,25.658-7.675c-23.451,79.659,62.566,69.717,62.566,69.717S1455.975,2034.839,1429.97,2017.785z"/>
		</g>
		<g style="opacity:0.2;">
			<path style="fill:#000072;" d="M1326.874,1976.116c34.207,6.476,47.105-25.76,55.064-44.387
				c5.94-13.904-3.826-21.771-9.646-11.39c-40.678,72.552-71.723,8.286-71.723,8.286S1300.357,1971.096,1326.874,1976.116z"/>
		</g>
		<g>
			<path style="fill:#000072;" d="M1335.562,1869.61c-7.124,23.792,13.105,52.752,29.707,71.499
				c11.495,12.98,29.389,18.338,46.126,13.811c24.173-6.538,56.989-19.615,64.112-43.408
				C1487.079,1872.868,1347.133,1830.965,1335.562,1869.61z"/>
		</g>
		<g style="opacity:0.35;">
			<path style="fill:#FFFFFF;" d="M1371.259,1871.18c-1.318,4.401,7.331,11.228,14.173,15.825c4.738,3.183,11.358,5.165,17.066,5.11
				c8.243-0.08,19.22-1.03,20.538-5.432C1425.176,1879.533,1373.399,1864.031,1371.259,1871.18z"/>
		</g>
		<g>
			<path style="fill:#000072;" d="M1084.576,1676.241c2.503-8.42,5.374-15.644,8.888-23.131c3.483-7.38,7.481-14.56,12.021-21.51
				c9.085-13.859,20.249-27.026,34.472-37.811c14.03-10.868,31.454-19.149,50.259-22.285c18.704-3.258,38.391-1.297,55.276,4.193
				c17.173,5.212,34.335,14.217,48.187,27.695c13.84,13.416,23.794,30.782,28.533,48.626c1.008,4.483,2.174,8.945,2.915,13.412
				c0.435,4.496,1.015,8.979,1.203,13.42c-0.034,4.434,0.151,8.859-0.15,13.224c-0.495,4.343-0.879,8.675-1.529,12.93
				c-2.894,16.98-8.755,33.027-17.561,47.09c-3.353,5.355-10.412,6.979-15.768,3.625c-4.039-2.529-5.955-7.166-5.215-11.589
				l0.053-0.294c4.738-28.113,3.946-56.034-5.302-78.168c-9.084-22.26-26.672-36.193-50.087-43.946
				c-5.907-2.058-11.649-3.769-17.335-4.533c-5.703-0.882-11.412-1.253-17.055-0.658c-5.633,0.58-11.329,1.469-16.932,3.375
				c-5.595,1.894-11.136,4.452-16.644,7.503c-21.856,12.44-41.817,34.539-57.516,57.617l-0.538,0.791
				c-3.511,5.16-10.54,6.498-15.7,2.987C1084.885,1685.97,1083.219,1680.828,1084.576,1676.241z"/>
		</g>
		<g>
			<path style="fill:#000072;" d="M1808.312,1903.683c-1.212-31.661-7.005-64.72-20.49-90.19
				c-3.48-6.316-7.174-12.282-11.528-17.555c-4.349-5.268-9.255-9.802-14.462-13.849c-5.191-4.083-11.042-7.263-17.195-9.923
				c-6.069-2.776-12.772-4.572-19.788-6.141c-13.801-3.145-27.341-3.993-40.052-1.768c-12.702,2.245-24.725,7.544-35.573,15.827
				c-10.793,8.31-20.4,19.185-28.943,31.52c-8.58,12.373-15.766,26.25-22.594,41.184l-0.158,0.346
				c-2.646,5.788-9.483,8.335-15.271,5.689c-4.069-1.86-6.534-5.806-6.721-9.988c-0.797-18.644,2.986-37.498,10.269-55.338
				c7.321-17.821,18.652-34.685,33.983-48.392c15.158-13.764,34.605-24.28,55.447-28.547c20.844-4.484,42.116-2.76,61.299,2.302
				c19.099,4.637,38.677,14.086,54.394,27.867c16.004,13.605,27.526,31.523,34.696,49.818c7.253,18.415,10.306,37.378,10.937,55.858
				c0.266,9.258-0.045,18.426-1.026,27.49c-0.984,9.17-2.466,17.776-4.98,27.181c-1.611,6.029-7.805,9.611-13.834,7.999
				c-4.903-1.31-8.187-5.651-8.377-10.47L1808.312,1903.683z"/>
		</g>
	</g>
</g>
</svg>
