<?xml version="1.0" encoding="utf-8"?>
<!-- Generator: Adobe Illustrator 27.5.0, SVG Export Plug-In . SVG Version: 6.00 Build 0)  -->
<svg version="1.1" id="Layer_1" xmlns="http://www.w3.org/2000/svg" xmlns:xlink="http://www.w3.org/1999/xlink" x="0px" y="0px"
	 viewBox="0 0 3999.256 3999.256" style="enable-background:new 0 0 3999.256 3999.256;" xml:space="preserve">
<g>
	<g>
		<rect x="0" style="fill:#E6EBED;" width="4000" height="4000"/>
	</g>
	<g>
		<g>
			<g>
				<path style="fill-rule:evenodd;clip-rule:evenodd;fill:#FFE7D2;" d="M1900.727,2928.809l-1.827,8.616l-26.972,128.492h-375.69
					c0,0-11.66-5.666-23.507-17.372c-13.111-12.971-26.504-33.294-24.771-61.577c1.171-19.667,12.737-50.854,26.925-82.649
					c10.77-24.209,23.133-48.699,33.669-68.647c0.047-0.141,0.094-0.328,0.234-0.469c13.439-25.52,23.741-43.455,23.741-43.455
					l99.788,26.176l64.434,52.446c-9.178,8.242-16.389,17.794-21.821,26.505c-4.59,7.445-7.961,14.282-10.162,19.245
					c-2.201,5.011-3.231,8.148-3.231,8.148l12.737,0.234c0,0,0,0,0.047,0l7.024,0.141l105.032,2.013L1900.727,2928.809z"/>
			</g>
			<g>
				<path style="fill-rule:evenodd;clip-rule:evenodd;fill:#F7C7A6;" d="M1718.15,3065.917h-221.912c0,0-11.66-5.666-23.507-17.372
					c44.954-5.431,98.664-16.014,102.645-39.756c6.977-41.816-88.503-113.367-88.503-113.367l21.634-59.376
					c0-0.14,0-0.234,0.047-0.375c0.047-0.141,0.094-0.328,0.234-0.469c2.95-3.278,27.768-2.341,105.594,10.583
					c46.827,7.774,53.851,22.242,60.548,51.088c1.873,8.054,3.746,17.279,6.415,27.768c4.917,19.199,12.643,42.753,28.471,71.598
					C1728.546,3030.422,1729.201,3051.026,1718.15,3065.917z"/>
			</g>
			<g>
				<path style="fill-rule:evenodd;clip-rule:evenodd;fill:#8C4E1F;" d="M1900.713,2928.809l-28.798,137.108h-126.011
					c14.516-48.98,31.749-107.092,40.458-139.262L1900.713,2928.809z"/>
			</g>
			<g>
				<path style="fill:#53271A;" d="M1871.927,3079.952h-375.693c-2.129,0-4.229-0.483-6.147-1.416
					c-2.446-1.191-59.946-29.902-56.177-92.422c3.413-56.523,83.062-195.498,86.45-201.387c3.872-6.723,12.451-9.043,19.185-5.171
					c6.724,3.872,9.038,12.461,5.171,19.185c-22.173,38.525-80.259,147.597-82.759,189.063
					c-2.275,37.739,28.438,58.584,37.842,64.052h360.723l22.964-109.316l-222.222-4.233c-4.463-0.083-8.618-2.285-11.196-5.923
					c-2.578-3.643-3.276-8.296-1.87-12.534c0.474-1.436,11.953-35.474,39.146-59.937c5.762-5.191,14.653-4.717,19.839,1.05
					c5.19,5.767,4.722,14.648-1.05,19.839c-10.278,9.248-17.852,20.532-22.969,29.824l217.827,4.146
					c4.185,0.083,8.115,2.021,10.723,5.298c2.607,3.277,3.618,7.544,2.759,11.636l-28.794,137.085
					C1884.309,3075.294,1878.572,3079.952,1871.927,3079.952z"/>
			</g>
			<g>
				<path style="fill:#53271A;" d="M1743.299,3079.957c-1.196,0-2.417-0.156-3.628-0.478c-7.495-1.997-11.953-9.693-9.956-17.193
					l37.139-139.375c1.997-7.495,9.702-11.958,17.192-9.956c7.495,1.997,11.953,9.692,9.956,17.192l-37.139,139.375
					C1755.188,3075.806,1749.51,3079.957,1743.299,3079.957z"/>
			</g>
		</g>
		<g>
			<path style="fill-rule:evenodd;clip-rule:evenodd;fill:#FFFFFF;" d="M3446.426,2500.252
				c8.007,26.504,12.316,50.151,12.924,71.083c1.967,65.51-31.654,104.283-96.884,119.361
				c-49.917,104.563-118.612,116.598-204.304,44.579l10.442-132.332l14.609-185.34l44.485-216.011
				c79.652-38.679,135.189-23.039,157.759,66.728C3477.472,2294.777,3489.132,2378.222,3446.426,2500.252z"/>
		</g>
		<g>
			<path style="fill-rule:evenodd;clip-rule:evenodd;fill:#F4E5D9;" d="M3459.35,2571.335
				c1.967,65.51-31.654,104.283-96.884,119.361c-49.917,104.563-118.612,116.598-204.304,44.579l10.442-132.332l11.378,1.826
				c69.818,56.473,129.803,76.562,154.622-33.434C3334.604,2571.335,3396.696,2661.897,3459.35,2571.335z"/>
		</g>
		<g>
			<path style="fill:#53271A;" d="M3257.097,2797.267c-33.618,0-70.337-16.567-109.492-49.463c-4.053-3.408-6.211-8.56-5.796-13.838
				l25.078-317.652c0.054-0.679,0.146-1.352,0.283-2.017l44.477-215.986c1.031-4.985,4.316-9.214,8.892-11.435
				c47.686-23.169,87.622-27.573,118.682-13.105c27.637,12.876,47.7,40.307,59.717,81.602
				c33.877,11.641,58.276,31.553,72.603,59.282c22.495,43.535,19.912,104.409-7.915,186.001
				c17.529,60.645,16.016,109.346-4.512,144.804c-16.572,28.638-45.244,48.555-85.283,59.278
				c-26.181,51.821-58.423,82.197-95.913,90.322C3271.121,2796.529,3264.177,2797.267,3257.097,2797.267z M3175.159,2727.999
				c36.553,29.106,68.745,40.894,95.821,35.024c28.721-6.226,54.526-32.939,76.709-79.409c2.149-4.507,6.24-7.788,11.104-8.911
				c35.351-8.154,58.892-23.091,71.958-45.664c16.372-28.286,16.367-70.01-0.015-124.013c-1.01-3.325-0.933-6.89,0.215-10.171
				c25.942-74.107,29.804-129.673,11.47-165.156c-11.416-22.09-31.528-37.021-61.485-45.639c-5.61-1.616-9.937-6.094-11.362-11.753
				c-9.126-36.255-23.994-59.414-44.194-68.823c-20.308-9.463-48.296-6.255-83.281,9.487l-42.612,206.939L3175.159,2727.999z"/>
		</g>
		<g>
			<path style="fill-rule:evenodd;clip-rule:evenodd;fill:#FFFFFF;" d="M3164.202,2667.938
				c19.995,87.145-8.241,156.167-62.232,215.449c4.87,104.611-39.616,116.271-91.968,113.227l-345.487,69.303h-908.389
				c-79.558-11.707-148.44-41.581-171.338-149.798c-88.034-26.129-134.861-96.743-101.708-253.894c0,0-14.563-47.716,15.734-105.547
				c9.084-17.373,31.749-74.923,58.908-146.848c63.216-167.077,151.063-411.981,151.063-411.981s39.568-222.426,235.444-282.88
				c195.875-60.453,311.584-194.096,476.227-107.045c164.642,87.097,339.259,65.978,399.618,162.207
				c60.359,96.229,212.687,213.717,212.687,213.717c94.636,7.492,149.236,65.932,159.772,180.657
				c36.619,28.892,57.316,66.26,62.092,112.056c4.542,43.548-5.291,94.73-29.594,153.591
				C3245.025,2542.864,3215.243,2614.228,3164.202,2667.938z"/>
		</g>
		<g>
			<path style="fill-rule:evenodd;clip-rule:evenodd;fill:#F4E5D9;" d="M3164.202,2667.938
				c19.995,87.145-8.241,156.167-62.232,215.449c4.87,104.611-39.616,116.271-91.968,113.227l-345.487,69.303h-908.389
				c-79.558-11.707-148.44-41.581-171.338-149.798c-88.034-26.129-134.861-96.743-101.708-253.894c0,0-14.563-47.716,15.734-105.547
				c9.084-17.373,31.749-74.923,58.908-146.848l166.983,30.109c-32.685,90.797-59.188,177.519,11.941,199.668
				c0,0,7.633,65.464,23.648,76.608c16.061,11.145,75.953,66.868,89.204,69.678c13.205,2.762,200.277,16.015,200.277,16.015
				c64.948,74.407,133.128,107.279,210.017,27.862c74.174,30.015,146.661,46.498,208.94-18.122
				c3.699,74.032,242.327,111.541,236.006-25.848c-0.047-0.983,176.396-42.425,183.373-40.318
				c6.931,2.06,101.848-86.489,101.848-86.489c67.337-12.269,125.214-33.341,58.487-171.011c0,0,75.391-140.105,75.391-140.855
				c1.077,0,88.268-47.388,130.786-70.567c4.542,43.548-5.291,94.73-29.594,153.591
				C3245.025,2542.864,3215.243,2614.228,3164.202,2667.938z"/>
		</g>
		<g>
			<path style="fill:#53271A;" d="M2664.495,3082.296h-908.359c-0.796,0-1.597-0.059-2.383-0.176
				c-74.868-11.011-154.692-38.008-182.876-153.228c-100.063-34.082-134.307-121.353-104.614-266.348
				c-3.149-14.199-9.907-60.103,18.008-113.448c28.667-54.79,198.638-527.739,208.628-555.557
				c4.087-21.338,49.487-233.428,246.484-294.224c60.454-18.657,112.505-44.128,162.842-68.76
				c110.385-54.016,205.713-100.674,325.888-37.112c69.517,36.768,141.875,53.972,205.718,69.155
				c87.119,20.715,162.363,38.606,200.127,98.818c52.934,84.397,181.528,187.944,205.088,206.545
				c99.756,9.761,156.611,73.027,169.096,188.154c71.86,60.679,83.237,153.428,33.823,275.874
				c16.728,99.844-2.383,176.719-59.981,240.811c15.713,79.238-5.078,150.229-63.403,216.597
				c1.328,48.052-7.89,81.187-28.11,101.177c-22.358,22.09-53.833,23.813-79.287,22.515l-343.467,68.882
				C2666.658,3082.188,2665.579,3082.296,2664.495,3082.296z M1757.342,3049.513h905.527l343.911-68.97
				c1.372-0.278,2.779-0.381,4.175-0.293c28.701,1.689,45.571-2.212,56.475-12.988c13.97-13.814,20.083-41.773,18.154-83.101
				c-0.2-4.341,1.328-8.584,4.253-11.797c56.924-62.495,75.469-126.299,58.374-200.781c-1.23-5.361,0.308-10.982,4.097-14.966
				c55.351-58.164,73.33-129.219,56.572-223.604c-0.547-3.076-0.2-6.24,0.991-9.121c47.114-114.087,38.12-194.722-27.51-246.514
				c-3.53-2.783-5.761-6.895-6.172-11.372c-9.58-104.639-56.914-158.877-144.717-165.806c-3.174-0.249-6.201-1.418-8.721-3.359
				c-6.313-4.871-155.347-120.405-216.563-218.005c-30.635-48.843-96.523-64.512-179.941-84.348
				c-65.742-15.632-140.259-33.352-213.457-72.068c-105.435-55.757-189.595-14.565-296.162,37.578
				c-49.068,24.011-104.683,51.228-167.578,70.64c-183.74,56.704-223.77,267.957-224.15,270.083c-0.161,0.896-0.4,1.792-0.708,2.649
				c-7.354,20.503-180.449,502.773-210.879,560.923c-26.484,50.611-15.039,91.533-14.536,93.247
				c0.752,2.593,0.884,5.425,0.327,8.066c-36.992,175.449,33.838,218.032,90.332,234.8c5.762,1.709,10.127,6.436,11.372,12.32
				C1622.537,3015.343,1688.763,3039.273,1757.342,3049.513z"/>
		</g>
		<g>
			<g>
				<path style="fill-rule:evenodd;clip-rule:evenodd;fill:#FFCF64;" d="M1165.409,1360.633c0,0-13.907,99.6-15.313,103.814
					c-1.405,4.168-185.293,55.021-185.293,55.021s14.61-98.242-98.898-118.424c-113.555-20.182-202.01,87.753-195.08,167.171
					c6.977,79.418,65.511,103.815,88.83,50.152c23.32-53.617-23.32-61.998-23.32-61.998
					c116.411-46.546,184.028,5.197,194.845,72.628c8.569,53.241-18.403,116.223-84.803,148.206
					c-75.484,36.338-149.049,34.137-209.175-1.077c-59.704-34.932-106.109-102.363-127.977-196.766
					c-43.876-189.46,82.181-341.318,294.633-392.875C1016.36,1134.929,1165.409,1360.633,1165.409,1360.633z"/>
			</g>
			<g style="opacity:0.72;">
				<path style="fill-rule:evenodd;clip-rule:evenodd;fill:#FFFFFF;" d="M763.917,1606.52c6.415,9.271,9.084,23.881-0.796,46.639
					c-23.32,53.663-81.853,29.267-88.83-50.151c-0.422-4.636-0.469-9.365-0.234-14.142c14.329,62.607,64.433,78.2,85.599,29.501
					C761.483,1614.152,762.887,1610.219,763.917,1606.52z"/>
			</g>
			<g style="opacity:0.72;">
				<path style="fill-rule:evenodd;clip-rule:evenodd;fill:#FFFFFF;" d="M1165.409,1360.633c0,0-1.452,10.583-3.512,24.958
					c-31.749-42.847-168.95-209.362-354.571-164.314c-189.414,45.984-310.179,171.666-302.968,332.656
					c-27.44-177.52,96.65-318.233,299.503-367.448C1016.36,1134.929,1165.409,1360.633,1165.409,1360.633z"/>
			</g>
			<g>
				<path style="fill-rule:evenodd;clip-rule:evenodd;fill:#F9A74E;" d="M1100.64,1297.949c0,0-11.146,103.365-68.266,94.697
					c-57.121-8.668-162.328-91.563-272.727-52.205s-97.164,139.667-97.164,139.667s53.638-116.039,176.238-110.438
					c122.601,5.601,140.705,96.938,140.705,96.938s128.877,5.212,135.378,0.707c6.502-4.505,43.653-115.031,43.653-115.031"/>
			</g>
			<g>
				<path style="fill-rule:evenodd;clip-rule:evenodd;fill:#F9A74E;" d="M846.379,1777.202
					c-75.484,36.338-149.049,34.137-209.175-1.077c-56.332-61.951-114.257-150.454-107.092-250.147
					c0,0,43.642,186.697,193.675,208.753c150.033,22.055,61.296-182.718,61.296-182.718s123.997,21.775,139.309,57.316
					c1.826,4.308,4.214,11.051,6.79,19.668C939.752,1682.238,912.779,1745.22,846.379,1777.202z"/>
			</g>
			<g>
				<path style="fill:#53271A;" d="M738.333,1817.396c-32.319,0.002-63.565-6.892-92.412-20.728
					c-73.11-35.068-126.514-111.113-150.376-214.126c-22.183-95.776-3.594-185.654,53.765-259.917
					c55.229-71.506,142.114-123.301,251.265-149.783c91.182-22.119,185.391,2.192,272.412,70.334
					c64.878,50.808,102.583,107.341,104.16,109.724c1.885,2.854,2.661,6.299,2.188,9.688
					c-14.106,100.884-15.415,104.807-15.903,106.284c-3.052,9.124-3.774,11.287-194.883,64.133c-4.58,1.27-9.497,0.129-13.057-3.02
					c-3.56-3.149-5.283-7.888-4.585-12.59c0.479-3.408,10.781-85.039-87.48-102.52c-61.313-10.901-105.732,19.749-126.763,38.992
					c-34.727,31.78-55.068,76.187-51.826,113.132c3.491,39.81,21.206,63.225,36.899,65.779c13.657,2.241,22.09-13.24,25.029-20
					c4.077-9.377,7.93-22.446,3.11-31.44c-4.678-8.735-15.923-11.106-16.03-11.125c-6.172-1.106-10.864-6.167-11.499-12.402
					c-0.635-6.238,2.935-12.141,8.755-14.47c114.141-45.652,181.665-0.41,204.824,52.197
					c27.515,62.522,3.828,152.302-83.447,194.324C814.407,1808.194,775.657,1817.396,738.333,1817.396z M866.409,1192.994
					c-19.106,0-38.867,2.217-59.214,7.153c-213.604,51.826-325.186,199.436-284.277,376.057
					c21.895,94.529,69.893,163.828,135.156,195.129c55.088,26.428,118.105,24.082,182.217-6.785
					c71.958-34.648,92.06-107.388,69.917-157.693c-17.061-38.774-62.661-68.945-141.079-46.873c2.017,2.373,3.892,5.059,5.518,8.091
					c8.125,15.178,7.417,33.989-2.119,55.911c-11.572,26.624-32.217,40.288-55.308,36.526
					c-26.455-4.307-55.381-34.131-60.371-91.055c-3.979-45.342,19.907-98.848,60.845-136.313
					c42.915-39.27,96.421-55.569,150.654-45.928c92.007,16.37,108.516,80.298,110.703,113.718
					c67.866-18.896,138.057-39.165,158.565-46.335c2.627-16.443,8.818-59.714,13.13-90.435
					C1131.512,1337.391,1020.555,1192.994,866.409,1192.994z"/>
			</g>
			<g>
				<path style="fill-rule:evenodd;clip-rule:evenodd;fill:#FFE7D2;" d="M987.992,1506.497
					c-48.11-57-118.843-98.498-212.197-124.492c-60.836,120.743,60.372,314.86,194.118,243.343"/>
			</g>
			<g>
				<path style="fill-rule:evenodd;clip-rule:evenodd;fill:#FFFFFF;" d="M950.872,1556.385c-45.925-47-94.714-83.51-146.982-107.275
					c0,0-1.393,52.941,34.133,91.254c0,0,45.061,72.629,120.279,61.3"/>
			</g>
			<g>
				<path style="fill:#53271A;" d="M911.253,1654.906c-35.337,0-69.883-14.985-99.971-44.353
					c-54.824-53.503-87.778-155.986-48.032-234.868c3.018-5.989,9.834-9.009,16.313-7.212
					c95.684,26.643,169.424,70.032,219.165,128.965l-21.475,18.12c-44.043-52.18-109.155-91.401-193.657-116.68
					c-26.177,65.798,2.173,147.517,47.31,191.57c23.062,22.51,70.942,55.369,132.383,22.512l13.252,24.775
					C955.047,1649.229,932.996,1654.906,911.253,1654.906z"/>
			</g>
			<g>
				<path style="fill:#53271A;" d="M947.429,1559.751c-45.746-37.104-94.916-75.107-148.159-100.478c0,0,15.782-9.869,15.782-9.869
					c-0.289,14.986,2.177,30.837,6.316,45.364c4.252,15.201,11.163,29.278,20.188,42.322c1.692,2.222,1.202,5.454-1.15,7
					c-1.88,1.245-4.316,0.999-5.911-0.452c-20.101-17.343-32.641-42.219-38.403-67.918c-1.989-9.089-3.126-17.287-3.36-26.902
					c-0.107-5.986,4.658-10.925,10.645-11.03c1.849-0.045,3.538,0.418,5.137,1.16c14.468,6.116,28.379,13.472,41.829,21.492
					c20.039,12.213,38.948,26.096,56.365,41.755c17.361,15.456,33.468,32.407,47.61,50.825
					C957.737,1557.446,951.8,1563.313,947.429,1559.751L947.429,1559.751z"/>
			</g>
			<g>
				<path style="fill:#53271A;" d="M881.941,1408.541c-0.117-6.045-1.748-148.835,90.664-215.063l13.643,19.033
					c-82.519,59.133-80.923,194.229-80.898,195.586L881.941,1408.541z"/>
			</g>
			<g>
				<path style="fill:#53271A;" d="M700.154,1477.843c-69.722-33.906-115.513-84.954-139.976-156.057l22.139-7.617
					c22.339,64.919,64.233,111.572,128.081,142.62L700.154,1477.843z"/>
			</g>
			<g>
				<path style="fill:#53271A;" d="M585.613,1739.2l-9.951-21.191c60.356-28.352,98.726-103.826,99.106-104.585l20.942,10.471
					C694.016,1627.288,653.421,1707.349,585.613,1739.2z"/>
			</g>
			<g>
				<path style="fill:#53271A;" d="M862.439,1759.505c-26.304-109.568-100.835-118.916-103.994-119.26l2.344-23.296
					c3.823,0.374,94.058,10.625,124.414,137.092L862.439,1759.505z"/>
			</g>
		</g>
		<g style="opacity:0.72;">
			<path style="fill-rule:evenodd;clip-rule:evenodd;fill:#FFFFFF;" d="M965.225,1514.646c0.421,1.498,0.749,2.95,1.077,4.401
				c-0.983,0.281-1.499,0.421-1.499,0.421S965.085,1517.736,965.225,1514.646z"/>
		</g>
		<g style="opacity:0.72;">
			<path style="fill-rule:evenodd;clip-rule:evenodd;fill:#FFFFFF;" d="M1168.874,1395.425c0,0-13.907,99.6-15.313,103.815
				c-1.405,4.168-185.293,55.021-185.293,55.021s2.294-15.405-1.967-35.214c17.372-4.823,182.483-50.666,183.794-54.6
				c0.936-2.856,7.586-49.074,11.8-78.856C1166.486,1391.819,1168.874,1395.425,1168.874,1395.425z"/>
		</g>
		<g>
			<g>
				<path style="fill-rule:evenodd;clip-rule:evenodd;fill:#FFCF64;" d="M1924.005,1654.137c0,0-56.751,83.024-58.548,87.086
					c-1.766,4.028,100.009,165.406,100.009,165.406s55.317-82.492,152.85-21.022c97.568,61.502,90.343,200.865,31.765,254.938
					c-58.614,54.041-118.324,32.688-99.453-22.696c18.84-55.35,58.975-30.158,58.975-30.158
					c-54.769-112.776-139.604-120.017-192.989-77.426c-42.172,33.609-64.614,98.344-37.031,166.689
					c31.371,77.68,87.26,125.566,155.429,139.99c67.668,14.348,147.373-4.29,227.085-59.391
					c159.968-110.592,168.946-307.749,46.518-488.871C2186.152,1587.526,1924.005,1654.137,1924.005,1654.137z"/>
			</g>
			<g style="opacity:0.72;">
				<path style="fill-rule:evenodd;clip-rule:evenodd;fill:#FFFFFF;" d="M2055.45,2106.219
					c-10.985,2.539-22.792,11.548-30.802,35.03c-18.871,55.384,40.84,76.737,99.453,22.696c3.432-3.145,6.65-6.611,9.691-10.302
					c-52.736,36.66-100.287,14.469-83.164-35.794C2052.114,2113.502,2053.722,2109.648,2055.45,2106.219z"/>
			</g>
			<g style="opacity:0.72;">
				<path style="fill-rule:evenodd;clip-rule:evenodd;fill:#FFFFFF;" d="M1924.005,1654.137c0,0-6.049,8.804-14.201,20.823
					c52.319-10.32,265.866-41.129,372.831,117.12c109.139,161.495,113.866,335.73,0.177,449.944
					c139.775-112.823,142.707-300.414,25.802-473.344C2186.152,1587.526,1924.005,1654.137,1924.005,1654.137z"/>
			</g>
			<g>
				<path style="fill-rule:evenodd;clip-rule:evenodd;fill:#F9A74E;" d="M2014.098,1651.37c0,0-61.327,83.95-13.247,115.984
					c48.08,32.035,181.683,41.536,236.844,144.95c55.161,103.413-22.142,168.693-22.142,168.693s38.431-121.923-56.013-200.297
					c-94.444-78.375-169.309-23.008-169.309-23.008s-98.824-82.886-100.6-90.594s45.137-114.457,45.137-114.457"/>
			</g>
			<g>
				<path style="fill-rule:evenodd;clip-rule:evenodd;fill:#F9A74E;" d="M1879.583,2176.953
					c31.371,77.68,87.26,125.566,155.429,139.99c83.36-7.904,185.767-34.374,247.568-112.928c0,0-157.935,108.706-283.743,24.038
					c-125.807-84.668,77.645-176.392,77.645-176.392s-106.362-67.353-141.609-51.373c-4.25,1.957-10.555,5.337-18.259,9.976
					C1874.442,2043.873,1852,2108.608,1879.583,2176.953z"/>
			</g>
			<g>
				<path style="fill:#53271A;" d="M2080.222,2335.665c-22.559,0-44.492-3.105-65.478-9.394
					c-66.045-19.785-118.672-70.948-148.193-144.058c-36.265-89.82,6.641-172.168,69.077-199.885
					c52.529-23.335,132.93-11.331,186.611,99.255c2.74,5.639,1.406,12.407-3.262,16.592c-4.673,4.185-11.538,4.775-16.851,1.435l0,0
					c0,0-10.122-5.938-19.512-2.505c-9.521,3.487-15.42,15.679-18.691,25.288c-2.378,6.978-6.64,24.029,5.049,31.636
					c13.335,8.672,42.192,3.281,71.563-23.813c27.266-25.142,42.109-71.68,37.813-118.555
					c-2.597-28.384-14.829-80.962-67.51-114.158c-84.443-53.196-131.758,14.104-133.735,16.992
					c-2.617,3.84-6.982,6.155-11.621,6.155c-0.083,0-0.166,0-0.254-0.002c-4.731-0.085-9.116-2.524-11.641-6.526
					c-105.786-167.725-104.863-169.814-100.962-178.604c0.625-1.411,2.295-5.195,59.761-89.309c1.934-2.825,4.829-4.849,8.145-5.691
					c2.764-0.701,68.721-17.136,150.884-11.045c110.22,8.174,196.26,53.586,248.813,131.331
					c62.906,93.047,92.3,189.832,85.02,279.89c-7.563,93.53-54.307,172.515-135.176,228.423
					C2206.594,2312.994,2141.146,2335.665,2080.222,2335.665z M1982.796,2000.352c-12.744,0-24.863,2.813-35.767,7.651
					c-50.234,22.305-84.326,89.629-54.424,163.692c26.641,65.977,71.665,110.122,130.205,127.661
					c69.341,20.762,151.474,1.816,231.284-53.354c149.136-103.091,165.957-287.368,42.861-469.46
					c-106.299-157.234-328.218-117.629-364.482-109.924c-17.485,25.625-42.036,61.799-51.152,75.728
					c10.337,19.099,48.608,81.333,86.084,140.989c24.106-23.242,79.336-59.424,158.413-9.6c46.612,29.37,75.2,77.444,80.508,135.364
					c5.063,55.269-13.281,110.918-46.743,141.773c-42.007,38.75-83.477,41.328-105.938,26.709
					c-19.575-12.74-25.674-36.753-16.323-64.238c7.705-22.632,19.844-37.022,36.069-42.778c3.242-1.148,6.435-1.87,9.526-2.271
					C2051.931,2018.663,2015.315,2000.352,1982.796,2000.352z"/>
			</g>
			<g>
				<path style="fill-rule:evenodd;clip-rule:evenodd;fill:#FFE7D2;" d="M1957.047,1881.428
					c73.946-9.776,154.189,7.14,240.73,50.747c-36.273,130.246-256.569,192.235-307.352,49.323"/>
			</g>
			<g>
				<path style="fill-rule:evenodd;clip-rule:evenodd;fill:#FFFFFF;" d="M1950.923,1943.309
					c65.599-3.851,126.257,1.984,180.909,19.587c0,0-34.602,40.092-86.663,44.517c0,0-82.21,23.387-130.216-35.617"/>
			</g>
			<g>
				<path style="fill:#53271A;" d="M2010.95,2077.442c-64.526,0.005-113.057-32.974-133.765-91.24l26.475-9.409
					c23.335,65.664,80.767,73.608,113.066,72.451c63.027-2.202,138.999-43.559,163.926-109.839
					c-79.512-38.186-154.077-53.005-221.763-44.05l-3.682-27.852c76.45-10.12,160.19,7.429,248.892,52.129
					c5.991,3.018,9.009,9.851,7.212,16.313c-23.701,85.09-117.051,138.704-193.608,141.38
					C2015.437,2077.403,2013.177,2077.442,2010.95,2077.442z"/>
			</g>
			<g>
				<path style="fill:#53271A;" d="M1950.64,1938.501c61.329-10.55,125.607-6.452,184.614,13.767
					c7.746,2.008,10.633,12.218,5.029,17.923c-12.649,13.143-27.145,23.24-43.552,30.84c-15.915,7.473-33.605,11.585-51.155,11.179
					c-5.83-0.003-6.5-8.618-0.815-9.594c30.32-6.758,58.055-24.021,78.618-47.014l5.029,17.92
					c-28.504-8.392-57.656-14.058-87.163-17.888c-12.933-1.706-31.534-3.422-44.712-4.529l-45.329-2.988
					C1945.632,1947.832,1945.083,1939.443,1950.64,1938.501L1950.64,1938.501z"/>
			</g>
			<g>
				<path style="fill:#53271A;" d="M2101.409,1880.36l-17.017-16.079c0.933-0.989,92.998-100.056,71.816-199.106l22.9-4.897
					C2202.879,1771.458,2105.564,1875.965,2101.409,1880.36z"/>
			</g>
			<g>
				<path style="fill:#53271A;" d="M2271.263,2066.383c-26.612,0-53.882-4.146-82.051-12.422l6.601-22.461
					c68.12,20.01,130.508,13.706,190.713-19.272l11.25,20.537C2356.795,2055.206,2314.934,2066.383,2271.263,2066.383z"/>
			</g>
			<g>
				<path style="fill:#53271A;" d="M2098.021,2324.356c-28.711-69.194-4.849-155.732-3.819-159.38l22.534,6.348
					c-0.229,0.82-22.646,82.466,2.906,144.057L2098.021,2324.356z"/>
			</g>
			<g>
				<path style="fill:#53271A;" d="M1879.622,2153.058l-13.164-19.365c107.578-73.105,181.206-19.961,184.287-17.656l-13.994,18.77
					l6.997-9.385l-6.948,9.424C2034.231,2132.969,1972.815,2089.727,1879.622,2153.058z"/>
			</g>
		</g>
		<g>
			<g>
				<path style="fill-rule:evenodd;clip-rule:evenodd;fill:#FFFFFF;" d="M1944.229,2046.081c0,0-847.983-237.739-867.509-272.109
					c-8.851-15.594-21.962-53.008-33.294-89.907c-57.597-7.165-102.316-60.126-102.316-124.372
					c0-69.163,51.79-125.214,115.662-125.214c7.211,0,14.235,0.749,21.119,2.107c3.184-25.473,12.971-48.559,27.346-66.915
					c20.838-26.644,51.322-43.455,85.272-43.455c24.865,0,47.857,9.038,66.587,24.303c80.12-40.224,160.334-60.453,240.829,17.092
					c63.263-21.353,111.448-11.66,139.309,39.943c53.054-0.563,104.189,24.537,151.39,104.002
					c90.282,16.717,137.811,90.282,155.605,203.414c38.632,34.184,65.464,66.775,81.807,97.962
					C2071.738,1900.263,2035.26,1976.731,1944.229,2046.081z"/>
			</g>
			<g>
				<path style="fill-rule:evenodd;clip-rule:evenodd;fill:#F4E5D9;" d="M1944.229,2046.081c0,0-847.983-237.739-867.509-272.109
					c-8.851-15.594-21.962-53.008-33.294-89.907c-57.597-7.165-102.316-60.126-102.316-124.372
					c0-69.163,51.79-125.214,115.662-125.214c7.211,0,14.235,0.749,21.119,2.107c3.184-25.473,12.971-48.559,27.346-66.915
					l4.917,3.044c-31.842,125.729,19.292,146.708,100.303,130.038c28.986,57.971,65.697,80.261,119.033,25.988
					c87.706,88.69,174.569,186.886,279.883,81.76c63.637,92.623,137.248,156.12,248.93,108.638c0,0,42.238,163.003,122.592,138.419
					c27.722-8.475,40.412-25.708,45.142-44.626C2071.738,1900.263,2035.26,1976.731,1944.229,2046.081z"/>
			</g>
			<g>
				<path style="fill:#53271A;" d="M1944.217,2062.481c-1.479,0-2.969-0.2-4.424-0.61c-2.124-0.596-214.575-60.208-426.68-123.252
					c-435.195-129.355-444.868-146.394-450.645-156.572c-10.415-18.352-24.087-59.336-31.719-83.525
					c-61.148-13.054-106.021-70.828-106.021-138.828c0-80.833,63.594-146.255,139.771-141.353
					c14.644-62.893,66.421-108.521,126.021-108.521c24.399,0,47.822,7.412,68.33,21.536
					c73.574-35.483,158.765-57.942,243.237,17.742c80.298-23.794,122.612,7.498,144.644,42.229
					c60.122,2.744,110.034,37.4,152.207,105.615c86.353,19.172,140.322,89.658,160.522,209.67
					c71.235,64.175,104.8,124.954,102.588,185.688c-2.139,58.589-37.432,113.159-107.9,166.826
					C1951.263,2061.329,1947.762,2062.481,1944.217,2062.481z M1090.081,1764.229c39.619,29.409,537.617,175.974,850.62,263.853
					c57.896-45.632,86.895-90.498,88.589-136.978c1.855-50.825-30.42-105.952-95.928-163.848c-2.856-2.524-4.746-5.969-5.337-9.736
					c-17.813-113.32-64.38-175.415-142.363-189.834c-4.648-0.859-8.701-3.684-11.113-7.749
					c-39.224-66.055-82.734-96.526-137.129-96.001c-0.059,0-0.117,0-0.171,0c-6.016,0-11.558-3.298-14.419-8.601
					c-14.238-26.355-42.134-58.372-119.653-32.2c-5.801,1.965-12.202,0.522-16.616-3.726
					c-71.211-68.611-140.303-55.33-222.139-14.263c-5.767,2.9-12.7,2.134-17.71-1.948c-16.519-13.477-35.952-20.601-56.191-20.601
					c-48.115,0-89.556,41.287-96.387,96.033c-0.566,4.521-2.983,8.601-6.68,11.265s-8.335,3.667-12.798,2.778
					c-5.986-1.196-12.007-1.804-17.9-1.804c-54.727,0-99.243,48.818-99.243,108.823c0,55.381,37.798,101.851,87.92,108.093
					c6.401,0.798,11.743,5.281,13.638,11.45C1071.141,1718.492,1082.879,1750.631,1090.081,1764.229z M1089.197,1763.529"/>
			</g>
			<g>
				<path style="fill-rule:evenodd;clip-rule:evenodd;fill:#FFE7D2;" d="M1845.763,1779.528
					c-40.861,110.26,84.52,177.399,110.875,240.464c-107.174,399.026-230.97,594.402-470.71,624.878
					c-54.48,6.925-109.827,3.925-163.565-7.4c-597.726-125.966-728.571-456.748-540.067-617.478
					c56.73-159.32,126.246-322.799,230.995-497.74c0,0,20.475-18.808,23.958-15.325c3.483,3.483,38.125,107.972,174.403,52.941
					c26.71,38.68,65.63,53.814,125.133,29.257c59.826,113.226,155.214,137.734,277.245,95.782
					C1670.618,1772.947,1741.376,1822.229,1845.763,1779.528z"/>
			</g>
			<g>
				<path style="fill-rule:evenodd;clip-rule:evenodd;fill:#F7C7A6;" d="M1844.16,2344.366
					c32.124-77.217,61.296-167.732,89.346-272.156c-26.364-63.028-151.719-130.178-110.886-240.454
					c-104.376,42.706-175.132-6.556-231.745-94.637c-122.03,41.957-217.416,17.467-277.214-95.76
					c-59.516,24.537-98.43,9.412-125.167-29.267c-136.265,55.021-170.917-49.449-174.382-52.914
					c-3.465-3.512-23.975,15.313-23.975,15.313c-51.556,86.115-94.589,169.466-131.723,250.897
					c42.191-98.008,92.248-198.545,154.856-303.155c0,0,20.51-18.777,23.975-15.312c3.465,3.512,38.117,107.982,174.429,52.961
					c26.692,38.679,65.604,53.804,125.121,29.267c59.798,113.226,155.183,137.717,277.214,95.76
					c56.613,88.034,127.368,137.342,231.745,94.636c-40.833,110.23,84.522,177.379,110.885,240.455
					C1922.033,2148.958,1885.602,2256.66,1844.16,2344.366z"/>
			</g>
			<g>
				<path style="fill-rule:evenodd;clip-rule:evenodd;fill:#F7C7A6;" d="M1956.638,2019.999
					c-107.186,399.009-230.949,594.417-470.701,624.854c-54.506,6.93-109.855,3.933-163.565-7.399
					c-470.28-99.085-651.546-325.023-615.676-495.098c30.484,153.638,221.583,325.726,615.676,408.75
					c53.71,11.332,109.059,14.329,163.565,7.399c227.578-28.939,350.638-206.412,454.265-565.712
					C1947.179,2002.017,1952.891,2011.054,1956.638,2019.999z"/>
			</g>
			<g>
				
					<ellipse transform="matrix(0.3761 -0.9266 0.9266 0.3761 -1229.1179 2202.2175)" style="fill-rule:evenodd;clip-rule:evenodd;fill:#53271A;" cx="1020.828" cy="2013.863" rx="148.823" ry="122.265"/>
			</g>
			<g>
				
					<ellipse transform="matrix(0.3761 -0.9266 0.9266 0.3761 -1207.7423 2163.0654)" style="fill-rule:evenodd;clip-rule:evenodd;fill:#FFFFFF;" cx="1002.434" cy="1978.409" rx="44.221" ry="39.899"/>
			</g>
			<g style="opacity:0.67;">
				
					<ellipse transform="matrix(0.3761 -0.9266 0.9266 0.3761 -1304.3348 2208.6423)" style="fill-rule:evenodd;clip-rule:evenodd;fill:#FFFFFF;" cx="987.992" cy="2072.933" rx="22.737" ry="26.495"/>
			</g>
			<g>
				<path style="fill-rule:evenodd;clip-rule:evenodd;fill:#53271A;" d="M1272.537,2256.614
					c-18.783-50.521-65.298-78.767-121.768-65.418c0,0,10.687,36.919,37.891,73.19
					C1188.659,2264.386,1213.056,2269.568,1272.537,2256.614z"/>
			</g>
			<g>
				<path style="fill:#53271A;" d="M1097.908,2256.58c-14.248,39.179,25.457,63.995,56.98,38.793
					c9.104-7.016,16.562-16.826,22.539-27.614c2.908-5.249,9.519-7.146,14.768-4.238c4.814,2.664,6.81,8.453,4.866,13.435
					c-4.065,10.72-6.138,22.102-5.061,33.018c4.469,41.566,40.62,47.412,70.901,23.979c7.142-4.94,15.221,5.084,8.87,11.012
					c-10.063,9.333-22.422,17.441-37.514,20.505c-55.1,8.643-75.983-53.535-57.45-96.382c-0.001,0,19.633,9.199,19.633,9.199
					c-7.261,12.598-16.355,24.824-28.938,34.004c-25.929,20.431-68.853,17.648-83.628-15.338
					c-6.67-14.586-4.891-31.762,2.093-45.485c1.592-3.223,5.493-4.541,8.713-2.949
					C1097.688,2250.002,1099.03,2253.51,1097.908,2256.58L1097.908,2256.58z"/>
			</g>
			<g>
				<path style="fill:#53271A;" d="M1386.504,2247.495c27.425-33.236,78.737-40.712,118.201-25.314
					c38.858,14.002,79.247,55.665,66.473,99.763c-0.714,2.168-3.988,2.154-4.684,0c-19.907-46.479-75.925-71.781-123.464-75.115
					c-16.998-1.188-34.481,0.851-54.093,4.669C1386.733,2252.078,1384.972,2249.181,1386.504,2247.495L1386.504,2247.495z"/>
			</g>
			<g>
				<path style="fill:#53271A;" d="M1426.888,2664.967c-35.576,0-71.675-3.823-107.905-11.46
					c-182.168-38.389-330.806-97.114-441.777-174.546c-98.726-68.882-162.192-149.639-183.54-233.54
					c-22.422-88.106,4.78-173.506,74.644-234.995c67.959-190.195,139.263-343.516,230.923-496.594
					c0.811-1.353,1.812-2.581,2.974-3.65c11.987-11.013,32.061-29.429,46.636-14.839c2.231,2.229,3.325,4.436,4.976,7.776
					c28.096,56.875,79.146,70.85,151.699,41.553c7.104-2.864,15.264-0.43,19.624,5.886c24.863,36.013,57.378,43.23,105.391,23.418
					c7.822-3.225,16.797,0.017,20.747,7.493c53.081,100.479,137.285,129.238,257.427,87.942c7.153-2.461,15.034,0.288,19.116,6.636
					c61.567,95.786,126.865,123.027,211.738,88.313c6.021-2.473,12.93-1.13,17.598,3.389c4.678,4.519,6.235,11.377,3.975,17.476
					c-24.448,65.969,19.063,114.412,61.133,161.262c20.601,22.935,40.059,44.597,49.497,67.188
					c1.401,3.345,1.646,7.065,0.708,10.571c-57.163,212.822-116.968,357.724-188.203,456.011
					c-78.003,107.622-172.144,165.093-296.274,180.874C1467.854,2663.688,1447.459,2664.967,1426.888,2664.967z M1026.097,1532.774
					c-90.557,151.55-161.025,303.616-228.359,492.715c-0.962,2.705-2.622,5.112-4.805,6.973
					c-63.394,54.053-87.368,126.811-67.505,204.878c19.385,76.167,78.35,150.425,170.532,214.741
					c107.344,74.898,251.943,131.875,429.78,169.355c53.589,11.289,106.792,13.706,158.12,7.173
					c114.521-14.556,201.543-67.808,273.862-167.588c68.188-94.082,125.928-233.838,181.543-439.551
					c-8.281-16.221-24.404-34.175-41.387-53.083c-38.467-42.832-85.151-94.81-75.425-163.645
					c-83.262,22.417-153.979-10.625-215.186-100.364c-124.907,39.089-218.311,7.166-277.959-94.971
					c-51.27,17.102-92.651,7.078-123.311-29.868c-78.301,27.749-139.868,9.98-175.454-50.554
					C1029.065,1530.201,1027.552,1531.488,1026.097,1532.774z"/>
			</g>
		</g>
		<g>
			<rect x="729.353" y="3049.513" style="fill:#53271A;" width="2761.299" height="32.783"/>
		</g>
		<g>
			<g>
				<path style="fill-rule:evenodd;clip-rule:evenodd;fill:#FFE7D2;" d="M2127.18,2928.809l-1.826,8.616l-26.972,128.492h-375.69
					c0,0-51.556-25.098-48.278-78.949c1.171-19.667,12.737-50.854,26.925-82.649c24.771-55.442,57.644-112.571,57.644-112.571
					l99.787,26.176l64.433,52.446c-16.951,15.219-27.159,34.886-31.982,45.75c-2.201,5.011-3.231,8.148-3.231,8.148l12.737,0.234
					c0,0,0,0,0.047,0l112.056,2.154L2127.18,2928.809z"/>
			</g>
			<g>
				<path style="fill-rule:evenodd;clip-rule:evenodd;fill:#FFFFFF;" d="M2062.185,2754.754
					c-2.154,104.658-122.592,176.958-203.415,63.169c-123.06,10.208-196.906-114.678-101.239-190.396L2062.185,2754.754z"/>
			</g>
			<g>
				<path style="fill-rule:evenodd;clip-rule:evenodd;fill:#F7C7A6;" d="M1891.221,2916.118
					c-95.293-80.682-165.298-31.374-189.882-11.8c24.771-55.442,57.644-112.571,57.644-112.571l99.787,26.176l38.193,31.087
					l26.24,21.358C1906.252,2885.587,1896.044,2905.255,1891.221,2916.118z"/>
			</g>
			<g>
				<path style="fill-rule:evenodd;clip-rule:evenodd;fill:#8C4E1F;" d="M2127.18,2928.809l-28.798,137.108h-126.011
					c14.516-48.98,31.749-107.092,40.458-139.262L2127.18,2928.809z"/>
			</g>
			<g>
				<path style="fill-rule:evenodd;clip-rule:evenodd;fill:#F4E5D9;" d="M2062.185,2754.754
					c-2.154,104.658-122.592,176.958-203.415,63.169c-105.594,8.757-174.944-81.946-132.051-155.698
					c-3.231,62.045,56.519,121.047,139.496,113.883c67.618,98.897,164.127,57.222,189.601-24.023L2062.185,2754.754z"/>
			</g>
			<g>
				<path style="fill:#53271A;" d="M1762.732,2634.089c-61.258,51.502-43.172,130.311,28.187,160.23
					c20.82,8.542,43.874,11.533,66.689,9.641c5.111-0.421,9.799,1.947,12.576,5.85c13.107,17.903,29.031,34.516,49.058,43.85
					c40.1,20.63,88.008,0.896,112.023-35.611c12.884-18.345,20.112-40.65,21.78-63.546c0.999-11.43,17.771-11.022,18.259,0.442
					c3.125,84.931-79.671,163.076-163.897,123.886c-24.808-11.548-44.471-31.077-60.058-52.804l12.576,5.847
					c-53.885,4.682-112.718-17.266-141.545-65.43c-32.014-51.383-13.44-112.35,33.946-145.5
					C1761.07,2614.868,1770.608,2627.087,1762.732,2634.089L1762.732,2634.089z"/>
			</g>
			<g>
				<path style="fill:#53271A;" d="M2098.396,3079.952h-375.698c-2.129,0-4.229-0.483-6.147-1.416
					c-2.446-1.191-59.946-29.902-56.172-92.422c3.413-56.523,83.062-195.498,86.45-201.387c3.872-6.723,12.451-9.043,19.185-5.171
					c6.724,3.872,9.038,12.461,5.171,19.185c-22.173,38.525-80.259,147.597-82.759,189.063
					c-2.28,37.739,28.433,58.584,37.837,64.052h360.727l22.959-109.316l-222.217-4.233c-4.463-0.083-8.618-2.28-11.196-5.923
					c-2.578-3.643-3.271-8.296-1.875-12.529c0.479-1.441,11.953-35.479,39.146-59.941c5.762-5.191,14.653-4.717,19.839,1.05
					c5.19,5.767,4.722,14.648-1.05,19.839c-10.278,9.248-17.852,20.532-22.969,29.824l217.827,4.146
					c4.184,0.083,8.115,2.021,10.722,5.298c2.607,3.277,3.618,7.539,2.759,11.636l-28.789,137.085
					C2110.779,3075.294,2105.042,3079.952,2098.396,3079.952z"/>
			</g>
			<g>
				<path style="fill:#53271A;" d="M1969.768,3079.957c-1.196,0-2.417-0.156-3.628-0.478c-7.495-1.997-11.953-9.693-9.956-17.193
					l37.134-139.375c2.002-7.495,9.688-11.958,17.192-9.956c7.495,1.997,11.953,9.692,9.956,17.192l-37.134,139.375
					C1981.658,3075.806,1975.979,3079.957,1969.768,3079.957z"/>
			</g>
		</g>
		<g>
			<g>
				<path style="fill-rule:evenodd;clip-rule:evenodd;fill:#FFE7D2;" d="M3057.391,3065.917h-392.876l-34.839-136.546l113.04-2.06
					l92.202-1.639l-3.278-16.108l-11.566-57.269c0,0,25.988-84.054,29.735-84.522c3.699-0.469,130.927-8.335,130.927-8.335
					s23.179,47.81,44.345,123.809C3039.175,2933.632,3052.38,2996.426,3057.391,3065.917z"/>
			</g>
			<g>
				<path style="fill-rule:evenodd;clip-rule:evenodd;fill:#F7C7A6;" d="M3025.08,2883.246c-2.481-1.218-5.01-2.528-7.492-4.027
					c-100.209-59.423-179.862,33.434-179.862,33.434l-6.087-3.09l-11.566-57.269c0,0,25.988-84.054,29.735-84.522
					c3.699-0.469,130.927-8.335,130.927-8.335S3003.915,2807.247,3025.08,2883.246z"/>
			</g>
			<g>
				<polygon style="fill-rule:evenodd;clip-rule:evenodd;fill:#8C4E1F;" points="2779.756,3065.917 2664.515,3065.917 
					2629.676,2929.371 2742.716,2927.311 				"/>
			</g>
			<g>
				<path style="fill:#53271A;" d="M3057.371,3079.952h-392.876c-6.421,0-12.027-4.355-13.614-10.576l-34.829-136.533
					c-1.06-4.16-0.161-8.574,2.441-11.988c2.603-3.418,6.626-5.454,10.918-5.532l188.398-3.408l-11.514-56.846
					c-0.464-2.305-0.346-4.692,0.352-6.938c28.687-92.72,31.123-93.022,41.402-94.306c3.735-0.469,93.438-6.031,131.831-8.403
					c5.688-0.264,11.025,2.768,13.506,7.9c2.666,5.503,65.41,136.743,77.998,311.572c0.278,3.892-1.074,7.725-3.73,10.581
					C3064.998,3078.331,3061.272,3079.952,3057.371,3079.952z M2675.408,3051.856h366.729
					c-12.456-137.802-56.792-247.29-70.181-277.793c-41.025,2.534-94.067,5.854-113.384,7.148
					c-4.995,12.588-15.171,43.34-24.023,71.802l14.146,69.854c0.825,4.087-0.205,8.33-2.813,11.582
					c-2.612,3.252-6.533,5.176-10.703,5.254l-187.515,3.394L2675.408,3051.856z"/>
			</g>
			<g>
				<path style="fill-rule:evenodd;clip-rule:evenodd;fill:#FFFFFF;" d="M2704.199,2740.595
					c-39.776,117.83,144.195,195.743,186.688,57.121c76.625,55.728,185.281-52.941,88.467-150.464"/>
			</g>
			<g>
				<path style="fill-rule:evenodd;clip-rule:evenodd;fill:#F4E5D9;" d="M2890.875,2800.131
					c-38.257,127.565-191.427,75.592-192.27-23.954c36.993,66.412,148.347,84.581,180.188-21.564
					c55.584,41.263,127.931-5.69,126.666-72.58C3050.928,2770.008,2958.446,2850.334,2890.875,2800.131z"/>
			</g>
			<g>
				<path style="fill:#53271A;" d="M2712.144,2743.276c-6.528,23.053-4.886,47.947,7.42,68.462
					c22.093,39.458,79.5,60.311,118.987,36.391c19.985-11.563,31.884-32.653,38.928-54.524c2.299-7.512,10.364-11.692,17.825-9.204
					c34.743,25.471,77.956,16,100.11-20.982c15.508-25.481,11.593-58.933-3.744-84.299c-5.284-9.123-12.041-17.565-19.106-25.791
					c-7.392-8.738,4.979-20.371,13.272-12.512c107.816,98.966-5.922,234.779-103.197,168.24c0.001-0.001,21.656-7.232,21.656-7.232
					c-4.336,13.669-10.383,27.087-18.892,39.333c-45.801,68.632-150.266,50.876-185.435-18.817
					c-13.406-25.899-14.239-57.683-3.713-84.43C2700.258,2727.97,2715.007,2733.079,2712.144,2743.276L2712.144,2743.276z"/>
			</g>
			<g>
				<path style="fill:#53271A;" d="M2778.26,3079.957c-6.279,0-11.992-4.238-13.608-10.601l-33.438-131.889
					c-1.904-7.52,2.646-15.161,10.166-17.07c7.51-1.899,15.156,2.646,17.071,10.166l33.438,131.889
					c1.904,7.52-2.646,15.161-10.166,17.07C2780.564,3079.815,2779.402,3079.957,2778.26,3079.957z"/>
			</g>
		</g>
	</g>
</g>
</svg>
